<svg width="48" height="64" viewBox="0 0 48 64" xmlns="http://www.w3.org/2000/svg"><title>Artboard</title><path d="M30.65 17.305V4.545l12.774 12.76H30.649zM30.26.391a1.359 1.359 0 0 0-.385-.259c-.236-.084-.356-.108-.48-.115C29.377.016 20.484.01 2.716 0A2.717 2.717 0 0 0 0 2.713v58.475A2.717 2.717 0 0 0 2.716 63.9h42.557a2.704 2.704 0 0 0 2.702-2.699V34h-2.667l-.035 27.237-42.608-.049.002-58.608h25.317v16.057c0 .736.613 1.276 1.35 1.276h15.974V34h2.667V18.77c.026-.58-.196-.978-.536-1.22L30.26.39z" fill="#31A3DC" fill-rule="evenodd"/></svg>