<svg width="114" height="114" viewBox="0 0 114 114" xmlns="http://www.w3.org/2000/svg"><title>Artboard</title><defs><linearGradient x1="49.999%" y1="102.593%" x2="49.999%" y2="1.808%" id="a"><stop stop-color="#F9F5EA" offset="39%"/><stop stop-color="#FFF" offset="100%"/></linearGradient><linearGradient x1="52.305%" y1="170.25%" x2="44.799%" y2="-115.375%" id="b"><stop stop-color="#155D93" offset="69%"/><stop stop-color="#4E85AD" offset="75%"/><stop stop-color="#99B8D0" offset="84%"/><stop stop-color="#D0DFE9" offset="92%"/><stop stop-color="#F2F6F9" offset="97%"/><stop stop-color="#FFF" offset="100%"/></linearGradient><linearGradient x1="13138%" y1="1039.505%" x2="13011%" y2="342.78%" id="c"><stop stop-color="#155D93" offset="69%"/><stop stop-color="#4E85AD" offset="75%"/><stop stop-color="#99B8D0" offset="84%"/><stop stop-color="#D0DFE9" offset="92%"/><stop stop-color="#F2F6F9" offset="97%"/><stop stop-color="#FFF" offset="100%"/></linearGradient><linearGradient x1="6393.952%" y1="6671%" x2="6297.173%" y2="2102%" id="d"><stop stop-color="#155D93" offset="69%"/><stop stop-color="#4E85AD" offset="75%"/><stop stop-color="#99B8D0" offset="84%"/><stop stop-color="#D0DFE9" offset="92%"/><stop stop-color="#F2F6F9" offset="97%"/><stop stop-color="#FFF" offset="100%"/></linearGradient><linearGradient x1="4575.426%" y1="6680%" x2="4503.808%" y2="2111%" id="e"><stop stop-color="#155D93" offset="69%"/><stop stop-color="#4E85AD" offset="75%"/><stop stop-color="#99B8D0" offset="84%"/><stop stop-color="#D0DFE9" offset="92%"/><stop stop-color="#F2F6F9" offset="97%"/><stop stop-color="#FFF" offset="100%"/></linearGradient><linearGradient x1="647.734%" y1="6680%" x2="638.253%" y2="2111%" id="f"><stop stop-color="#155D93" offset="69%"/><stop stop-color="#4E85AD" offset="75%"/><stop stop-color="#99B8D0" offset="84%"/><stop stop-color="#D0DFE9" offset="92%"/><stop stop-color="#F2F6F9" offset="97%"/><stop stop-color="#FFF" offset="100%"/></linearGradient><linearGradient x1="7527%" y1="6695%" x2="7400%" y2="2126%" id="g"><stop stop-color="#155D93" offset="69%"/><stop stop-color="#4E85AD" offset="75%"/><stop stop-color="#99B8D0" offset="84%"/><stop stop-color="#D0DFE9" offset="92%"/><stop stop-color="#F2F6F9" offset="97%"/><stop stop-color="#FFF" offset="100%"/></linearGradient><linearGradient x1="1566.75%" y1="6641%" x2="1546.266%" y2="2072%" id="h"><stop stop-color="#155D93" offset="69%"/><stop stop-color="#4E85AD" offset="75%"/><stop stop-color="#99B8D0" offset="84%"/><stop stop-color="#D0DFE9" offset="92%"/><stop stop-color="#F2F6F9" offset="97%"/><stop stop-color="#FFF" offset="100%"/></linearGradient><linearGradient x1="9378%" y1="6644%" x2="9251%" y2="2074%" id="i"><stop stop-color="#155D93" offset="69%"/><stop stop-color="#4E85AD" offset="75%"/><stop stop-color="#99B8D0" offset="84%"/><stop stop-color="#D0DFE9" offset="92%"/><stop stop-color="#F2F6F9" offset="97%"/><stop stop-color="#FFF" offset="100%"/></linearGradient><linearGradient x1="104.55%" y1="6690%" x2="103.652%" y2="2121%" id="j"><stop stop-color="#155D93" offset="69%"/><stop stop-color="#4E85AD" offset="75%"/><stop stop-color="#99B8D0" offset="84%"/><stop stop-color="#D0DFE9" offset="92%"/><stop stop-color="#F2F6F9" offset="97%"/><stop stop-color="#FFF" offset="100%"/></linearGradient><linearGradient x1="2135.083%" y1="6521%" x2="2107.456%" y2="2119%" id="k"><stop stop-color="#155D93" offset="69%"/><stop stop-color="#4E85AD" offset="75%"/><stop stop-color="#99B8D0" offset="84%"/><stop stop-color="#D0DFE9" offset="92%"/><stop stop-color="#F2F6F9" offset="97%"/><stop stop-color="#FFF" offset="100%"/></linearGradient><linearGradient x1="1016.475%" y1="6488%" x2="1003.802%" y2="2146%" id="l"><stop stop-color="#155D93" offset="69%"/><stop stop-color="#4E85AD" offset="75%"/><stop stop-color="#99B8D0" offset="84%"/><stop stop-color="#D0DFE9" offset="92%"/><stop stop-color="#F2F6F9" offset="97%"/><stop stop-color="#FFF" offset="100%"/></linearGradient><linearGradient x1="4649.218%" y1="4219%" x2="4648.884%" y2="4186%" id="m"><stop stop-color="#155D93" offset="69%"/><stop stop-color="#4E85AD" offset="75%"/><stop stop-color="#99B8D0" offset="84%"/><stop stop-color="#D0DFE9" offset="92%"/><stop stop-color="#F2F6F9" offset="97%"/><stop stop-color="#FFF" offset="100%"/></linearGradient><linearGradient x1="207.365%" y1="5396%" x2="207.343%" y2="5332%" id="n"><stop stop-color="#155D93" offset="69%"/><stop stop-color="#4E85AD" offset="75%"/><stop stop-color="#99B8D0" offset="84%"/><stop stop-color="#D0DFE9" offset="92%"/><stop stop-color="#F2F6F9" offset="97%"/><stop stop-color="#FFF" offset="100%"/></linearGradient><linearGradient x1="4560.346%" y1="3268%" x2="4559.646%" y2="3203%" id="o"><stop stop-color="#155D93" offset="69%"/><stop stop-color="#4E85AD" offset="75%"/><stop stop-color="#99B8D0" offset="84%"/><stop stop-color="#D0DFE9" offset="92%"/><stop stop-color="#F2F6F9" offset="97%"/><stop stop-color="#FFF" offset="100%"/></linearGradient><linearGradient x1="98.893%" y1="5604%" x2="98.883%" y2="5496%" id="p"><stop stop-color="#155D93" offset="69%"/><stop stop-color="#4E85AD" offset="75%"/><stop stop-color="#99B8D0" offset="84%"/><stop stop-color="#D0DFE9" offset="92%"/><stop stop-color="#F2F6F9" offset="97%"/><stop stop-color="#FFF" offset="100%"/></linearGradient><linearGradient x1="1113.201%" y1="5190%" x2="1113.128%" y2="5149%" id="q"><stop stop-color="#155D93" offset="69%"/><stop stop-color="#4E85AD" offset="75%"/><stop stop-color="#99B8D0" offset="84%"/><stop stop-color="#D0DFE9" offset="92%"/><stop stop-color="#F2F6F9" offset="97%"/><stop stop-color="#FFF" offset="100%"/></linearGradient><linearGradient x1="4637.805%" y1="4992%" x2="4637.489%" y2="4962%" id="r"><stop stop-color="#155D93" offset="69%"/><stop stop-color="#4E85AD" offset="75%"/><stop stop-color="#99B8D0" offset="84%"/><stop stop-color="#D0DFE9" offset="92%"/><stop stop-color="#F2F6F9" offset="97%"/><stop stop-color="#FFF" offset="100%"/></linearGradient><linearGradient x1="630.569%" y1="3659%" x2="630.48%" y2="3582%" id="s"><stop stop-color="#155D93" offset="69%"/><stop stop-color="#4E85AD" offset="75%"/><stop stop-color="#99B8D0" offset="84%"/><stop stop-color="#D0DFE9" offset="92%"/><stop stop-color="#F2F6F9" offset="97%"/><stop stop-color="#FFF" offset="100%"/></linearGradient><linearGradient x1="4532.428%" y1="4025%" x2="4532.098%" y2="3992%" id="t"><stop stop-color="#155D93" offset="69%"/><stop stop-color="#4E85AD" offset="75%"/><stop stop-color="#99B8D0" offset="84%"/><stop stop-color="#D0DFE9" offset="92%"/><stop stop-color="#F2F6F9" offset="97%"/><stop stop-color="#FFF" offset="100%"/></linearGradient><linearGradient x1="89.721%" y1="5802%" x2="89.712%" y2="5684%" id="u"><stop stop-color="#155D93" offset="69%"/><stop stop-color="#4E85AD" offset="75%"/><stop stop-color="#99B8D0" offset="84%"/><stop stop-color="#D0DFE9" offset="92%"/><stop stop-color="#F2F6F9" offset="97%"/><stop stop-color="#FFF" offset="100%"/></linearGradient><linearGradient x1="2236.727%" y1="3833%" x2="2236.563%" y2="3796%" id="v"><stop stop-color="#155D93" offset="69%"/><stop stop-color="#4E85AD" offset="75%"/><stop stop-color="#99B8D0" offset="84%"/><stop stop-color="#D0DFE9" offset="92%"/><stop stop-color="#F2F6F9" offset="97%"/><stop stop-color="#FFF" offset="100%"/></linearGradient><linearGradient x1="1977.073%" y1="3461%" x2="1976.775%" y2="3395%" id="w"><stop stop-color="#155D93" offset="69%"/><stop stop-color="#4E85AD" offset="75%"/><stop stop-color="#99B8D0" offset="84%"/><stop stop-color="#D0DFE9" offset="92%"/><stop stop-color="#F2F6F9" offset="97%"/><stop stop-color="#FFF" offset="100%"/></linearGradient><linearGradient x1="56.028%" y1="27.836%" x2="40.565%" y2="94.363%" id="x"><stop stop-color="#044077" offset="5%"/><stop stop-color="#155D93" offset="76%"/></linearGradient><linearGradient x1="50%" y1="106.466%" x2="50%" y2="-10.05%" id="y"><stop stop-color="#43AADD" offset="73%"/><stop stop-color="#99D1EC" offset="85%"/><stop stop-color="#E2F2FA" offset="95%"/><stop stop-color="#FFF" offset="100%"/></linearGradient><linearGradient x1="11068%" y1="22054%" x2="11068%" y2="-1896%" id="z"><stop stop-color="#43AADD" offset="73%"/><stop stop-color="#99D1EC" offset="85%"/><stop stop-color="#E2F2FA" offset="95%"/><stop stop-color="#FFF" offset="100%"/></linearGradient><linearGradient x1="11068%" y1="22350%" x2="11068%" y2="-2227%" id="A"><stop stop-color="#43AADD" offset="73%"/><stop stop-color="#99D1EC" offset="85%"/><stop stop-color="#E2F2FA" offset="95%"/><stop stop-color="#FFF" offset="100%"/></linearGradient><linearGradient x1="50%" y1="247.566%" x2="50%" y2="11.269%" id="B"><stop stop-color="#155D93" offset="54%"/><stop stop-color="#246481" offset="68%"/><stop stop-color="#447258" offset="100%"/></linearGradient><linearGradient x1="10416%" y1="20283%" x2="10416%" y2="9283%" id="C"><stop stop-color="#155D93" offset="54%"/><stop stop-color="#246481" offset="68%"/><stop stop-color="#447258" offset="100%"/></linearGradient><linearGradient x1="5752%" y1="20283%" x2="5752%" y2="9283%" id="D"><stop stop-color="#155D93" offset="54%"/><stop stop-color="#246481" offset="68%"/><stop stop-color="#447258" offset="100%"/></linearGradient><linearGradient x1="6809%" y1="20283%" x2="6809%" y2="9283%" id="E"><stop stop-color="#155D93" offset="54%"/><stop stop-color="#246481" offset="68%"/><stop stop-color="#447258" offset="100%"/></linearGradient><linearGradient x1="8364%" y1="20283%" x2="8364%" y2="9283%" id="F"><stop stop-color="#155D93" offset="54%"/><stop stop-color="#246481" offset="68%"/><stop stop-color="#447258" offset="100%"/></linearGradient><linearGradient x1="5.732%" y1="11.753%" x2="94.614%" y2="81.828%" id="G"><stop stop-color="#155D93" offset="24%"/><stop stop-color="#FFF" offset="100%"/></linearGradient><linearGradient x1="1814.266%" y1="2427%" x2="1810.901%" y2="1684%" id="H"><stop stop-color="#155D93" offset="69%"/><stop stop-color="#4E85AD" offset="75%"/><stop stop-color="#99B8D0" offset="84%"/><stop stop-color="#D0DFE9" offset="92%"/><stop stop-color="#F2F6F9" offset="97%"/><stop stop-color="#FFF" offset="100%"/></linearGradient></defs><g fill="none" fill-rule="evenodd"><path d="M56.97 111.955a3.977 3.977 0 0 1-2.833-1.17L2.735 59.371a4.018 4.018 0 0 1 0-5.664L54.137 2.306a4.09 4.09 0 0 1 5.664 0l51.403 51.402a4.013 4.013 0 0 1 0 5.664l-51.392 51.402a3.993 3.993 0 0 1-2.843 1.181z" fill="url(#a)" fill-rule="nonzero"/><path d="M43.136 39.097c-2.945-.296-7.96-1.339-7.96-1.339a.562.562 0 0 0-.47.082l-.163.112c.398.547.843 1.145 1.308 1.754h7.106c.159 0 .378-.563.276-.573l-.097-.036zm7.28-.634c.148.047.168 0 .04-.06a39.281 39.281 0 0 1-4.13-2.807 35.013 35.013 0 0 1-3.308-3.39.26.26 0 0 0-.368 0l-1.717 1.437a.337.337 0 0 0-.297.05l-2.132 1.652a.435.435 0 0 0-.383.061l-2.193 1.871c-.113.093-.082.21.066.256 2.37.668 4.782 1.18 7.219 1.534 1.375.138 3.578.158 3.578.158a3.962 3.962 0 0 0 1.089-.235s-2.045-.388-3.374-.767a18.404 18.404 0 0 1-2.863-1.089c.644.266 1.3.498 1.968.696a48.04 48.04 0 0 0 5.143.96 8.18 8.18 0 0 0 1.534-.153 22.15 22.15 0 0 1-4.448-1.533 14.352 14.352 0 0 1-1.063-.609c.286.149.573.287.843.41 1.568.609 3.17 1.13 4.796 1.558z" fill="#4E6659" fill-rule="nonzero"/><path fill="#76705A" fill-rule="nonzero" d="M50.968 17.325l-.01.092zm12.269 0l.025.184-.025-.184zm-6.738-1.442h.005zm0 0h.005z"/><path d="M88.475 43.31a.736.736 0 0 0-.654-.113s-2.899.598-6.063 1.135c3.367.28 6.629.634 9.785 1.064l-3.068-2.086zm-1.702-.839l-3.067-2.607a.644.644 0 0 0-.542-.087l-2.955-2.305a.511.511 0 0 0-.42-.072l-2.387-2.004a.373.373 0 0 0-.51.036 49.628 49.628 0 0 1-4.602 4.744 48.422 48.422 0 0 1-4.974 3.44h1.064a47.67 47.67 0 0 0 4.856-1.743 24.49 24.49 0 0 0 1.237-.598c-.511.322-1.022.624-1.533.874a25.146 25.146 0 0 1-3.743 1.488c1.437.036 2.863.082 4.274.148a33.642 33.642 0 0 0 2.587-.598c.932-.27 1.849-.593 2.745-.966a25.745 25.745 0 0 1-3.992 1.534l-.328.086c2.14.103 4.249.236 6.324.4a109.838 109.838 0 0 0 5.905-1.422c.194-.056.22-.215.06-.348z" fill="#365B45" fill-rule="nonzero"/><path d="M74.637 25.392l-8.435-.148v.127h-.194l.035.276 8.594-.148v-.107zm-6.007-1.79l4.943-.091-.092-.092-4.861-.092.01.276zm-2.505 2.623l.026.179h3.578v.179l4.898-.077a.803.803 0 0 0 .03-.143l-8.532-.138zm3.604 1.38l2.873-.046c.325-.041.646-.115.956-.22l-3.829-.056v.322zm-1.932-2.965l6.748-.122-.087-.087-6.196-.113a2.04 2.04 0 0 1-.465.302v.02zm.94-5.05a4.151 4.151 0 0 0-.403-.138l-1.217-.026.2.204 1.42-.04zm-.736 1.022l1.718-.036a.87.87 0 0 0 0-.112l-1.835-.041.117.189zm.511 1.022l2.286-.046a.767.767 0 0 0-.103-.122l-2.193-.051.01.22zm.057 1.023l4.002-.082-.086-.087-3.932-.082.016.25z" fill="url(#b)" fill-rule="nonzero"/><path d="M66.186 24.635h1.626c.172-.088.332-.198.476-.327l-2.102-.036v.363zm2.444-1.334l-2.444-.046v.373l2.46-.046-.016-.281zm-2.403-5.015h-.04v.297h.27l-.23-.297zm2.347 4.028l-2.388-.05v.352l2.403-.051-.015-.25zm-1.447-2.985h-.94v.255l1.14-.025-.2-.23zm.757 1.022l-1.698-.04v.29l1.836-.04-.138-.21zm.618.977l-2.336-.051v.322l2.346-.051-.01-.22z" fill="url(#c)" fill-rule="nonzero"/><path d="M47.062 25.622h1.17l.057-.399h-.547c-.21.16-.438.294-.68.399zm-1.309-7.218l-.184.184 2.193.046c.17-.04.34-.07.512-.092v-.195l-2.52.057zm-3.941 9.089c.26 0 .52-.015.777-.046.059.04.12.076.184.107l1.973.03v-.326l-4.263.066c.434.11.88.167 1.329.169zm4.56-8.067l-1.662.04-.081.078 1.656.04a.813.813 0 0 1 .087-.158zm-8.665 7.044l7.04.113v-.179h3.383v-.179l-10.372.169-.051.076z" fill="url(#d)" fill-rule="nonzero"/><path d="M43.642 20.535l4.652.108v-.297l-4.6.108-.052.081zm2.73-1.109a.813.813 0 0 0-.087.158l2.01.052v-.261l-1.923.051zm-3.722 2.101l5.624.123v-.327l-5.542.148-.082.056zm-.255 4.034l4.667.076c.24-.095.469-.219.68-.368l-5.68.097c.107.072.218.137.333.195zm-1.723-2.045l7.622.143v-.368l-7.54.143-.082.082zm-4.933 4.933l9.007.138v-.327l-8.961.128-.046.06zm-.977.981l8.006.118c.654-.036 1.334-.056 1.994-.082v-.24l-9.943.148-.057.056zm4.934-4.933l8.613.154v-.394l-8.527.153-.086.087zm1.963-2.004l6.645.138v-.352l-6.548.132-.097.082z" fill="url(#e)" fill-rule="nonzero"/><path d="M42.062 25.35h-.879a4.62 4.62 0 0 1-.66.144l1.872.036a2.853 2.853 0 0 1-.333-.18z" fill="url(#f)" fill-rule="nonzero"/><path d="M38.704 25.469h.097a.634.634 0 0 1-.097 0z" fill="url(#g)" fill-rule="nonzero"/><path fill="url(#h)" fill-rule="nonzero" d="M48.81 11.543l-1.227.046 1.273.051z"/><path d="M48.294 18.67v-.108a5.22 5.22 0 0 0-.511.092l.511.015z" fill="url(#i)" fill-rule="nonzero"/><path d="M41.812 27.493a5.552 5.552 0 0 1-1.33-.169l-3.675.056-.082.082 6.058.092a1.585 1.585 0 0 1-.184-.107 6.288 6.288 0 0 1-.787.046z" fill="url(#j)" fill-rule="nonzero"/><path fill="url(#k)" fill-rule="nonzero" d="M47.256 16.497l-.04.046 1.078.128v-.266z"/><path fill="url(#l)" fill-rule="nonzero" d="M46.714 17.55l1.58.112v-.27l-1.534.112z"/><path d="M71.57 21.527l-.087-.087h-.798a.767.767 0 0 1 .102.123l.783-.036z" fill="url(#m)" fill-rule="nonzero"/><path d="M77.428 27.38l-3.87-.06c-.31.104-.63.177-.956.219l4.913-.077-.087-.082z" fill="url(#n)" fill-rule="nonzero"/><path fill="url(#o)" fill-rule="nonzero" d="M66.186 16.665l.864-.081-.598-.092-.266-.082z"/><path fill="url(#p)" fill-rule="nonzero" d="M69.73 28.572l8.756-.133-.056-.057-8.7-.132z"/><path d="M74.637 26.506l1.896-.036-.081-.081h-1.785a.803.803 0 0 1-.03.117z" fill="url(#q)" fill-rule="nonzero"/><path fill="url(#r)" fill-rule="nonzero" d="M75.531 25.479l-.081-.077-.829-.01.006.107z"/><path fill="url(#s)" fill-rule="nonzero" d="M68.466 18.419l-2.234-.051.225.291 2.199-.05z"/><path d="M70.588 20.54l-.087-.086h-.803a.87.87 0 0 1 0 .112l.89-.026z" fill="url(#t)" fill-rule="nonzero"/><path d="M79.417 29.37l-9.688-.139v.215c.757.036 1.534.056 2.28.092l7.469-.108-.061-.06z" fill="url(#u)" fill-rule="nonzero"/><path d="M68.334 19.426c.136.04.271.085.403.138h.86l-.088-.087-1.175-.051z" fill="url(#v)" fill-rule="nonzero"/><path fill="url(#w)" fill-rule="nonzero" d="M67.46 17.504l-1.274-.107v.265l1.324-.112z"/><path d="M64.832 81.16a.69.69 0 0 0-1.207-.511l-2.004 1.533c-.95 5.874-1.891 12.617-3.067 21.614l8.261-8.2-1.983-14.436zM97.16 52.839c.393-3.579-16.298-5.516-28.214-6.36l.087.593c9.713.946 21.757 2.464 20.832 4.412-1.023 2.106-9.34 2.045-18.726 4.6a9.327 9.327 0 0 0-.808.272l4.392 31.322L90.57 71.83c-3.067-2.525-12.611-6.467-9.979-10.935 1.866-3.17 16.165-4.38 16.569-8.056zM75.424 92.672l1.963-2.346-2.009 2.009.046.337z" fill="url(#x)" fill-rule="nonzero"/><path d="M107.094 54.464L59.208 6.58a3 3 0 0 0-4.232 0L7.09 54.464a3.123 3.123 0 0 0 0 4.325l47.886 47.885a3 3 0 0 0 4.232 0l47.886-47.885a3.123 3.123 0 0 0 0-4.325zm-.829 3.405L58.38 105.846a1.83 1.83 0 0 1-2.556 0L7.92 57.87a1.723 1.723 0 0 1 0-2.49L55.8 7.408a1.83 1.83 0 0 1 2.556 0L106.24 55.38a1.723 1.723 0 0 1 0 2.49h.025z" fill="url(#y)" fill-rule="nonzero"/><path d="M109.972 54.367L59.3 3.701a3.139 3.139 0 0 0-4.432 0L4.212 54.367a3.113 3.113 0 0 0-.915 2.214v.092c-.002.83.327 1.627.915 2.213l50.661 50.666a3.139 3.139 0 0 0 4.433 0l50.666-50.666a3.262 3.262 0 0 0 0-4.519zm-.829 3.604l-50.666 50.753a1.963 1.963 0 0 1-2.775 0L5.04 57.971a1.866 1.866 0 0 1 0-2.689L55.722 4.53a1.963 1.963 0 0 1 2.776 0l50.666 50.753a1.866 1.866 0 0 1 0 2.69h-.02z" fill="url(#z)" fill-rule="nonzero"/><path d="M113.673 56.58a3.262 3.262 0 0 0-.956-2.31L59.403.956a3.272 3.272 0 0 0-4.601 0L1.462 54.27a3.394 3.394 0 0 0 0 4.713l53.32 53.315a3.272 3.272 0 0 0 4.6 0l53.335-53.315a3.262 3.262 0 0 0 .956-2.31v-.092zm-1.78 1.483l-53.318 53.412a2.106 2.106 0 0 1-2.97 0L2.29 58.063a2.045 2.045 0 0 1-.608-1.436 2.086 2.086 0 0 1 .608-1.416L55.604 1.779a2.106 2.106 0 0 1 2.97 0l53.32 53.432a2.02 2.02 0 0 1 0 2.878v-.026z" fill="url(#A)" fill-rule="nonzero"/><path d="M97.217 47.865l-.179-.184-.143-.138-11.012.184 11.334.138zm-4.54-1.856h2.684l-.26-.26-.174-.175h-2.132l-.118.435zm5.501 2.837l-.24-.245-.056-.051-6.375.148 6.671.148zm.956.956l-.184-.184-3.819.092 4.003.092zm-3.19-3.195l-3.768.046.062.036h-.573l-.342-.03-12.382.132 17.381.194-.378-.378zm-14.733-.91l-15.48.113 18.062.133-2.582-.246zm22.928 9.11l-.123-.123-.174-.179-8.143.149 8.44.153zm-.972-.977l-.327-.322-5.843.159 6.17.163zm1.994 1.994l-.358-.358-10.26.18 10.618.178zm-4.09-4.09l-.112-.112-1.656.056 1.768.057zm1.048 1.023l-.097-.097-.133-.133-3.737.128 3.967.102zm-2.044-2.045l-.036-.036-.092-.092-2.101.062 2.229.066zm-5.578 16.87l.235-.235-7.775.117 7.54.118zm7.863-7.862l.342-.343-11.788.174 11.446.169zm-.992.991l.348-.347-13.256.179 12.908.168zm1.999-1.922l.353-.347-11.63.173 11.277.174zm.992-.992l.342-.342-10.158.174 9.816.168zm-8.66-1.16l9.646.179.026-.03a.547.547 0 0 0 .117-.19.511.511 0 0 0 .026-.133l-9.815.174zm4.698 5.112l.352-.353-14.722.18 14.37.173zm-2.976 2.975l.369-.363-13.481.184 13.112.18zm-.966.967l.317-.317-11.129.158 10.812.159zm-.976.976l.291-.291-10.086.148 9.795.143zm2.914-2.914l.404-.399-15.081.2 14.677.2zm.986-.981l.414-.415-14.922.21 14.508.205zm-5.827 5.802l.178-.174-5.46.087 5.282.087z" fill="url(#B)" fill-rule="nonzero"/><path d="M50.339 98.244l.215.215 7.908-.107-8.123-.108zm.94.93l.24.246 5.501-.122-5.74-.123zm-.638-2.785l-2.122.025.107.108 7.52-.092-5.505-.041zm-1.263.884l.22.22 7.709-.107-7.93-.113zm2.878 2.878l.204.205 5.716-.102-5.92-.103zm3.067 3.068l3.686-.077-3.854-.077.168.154zm-2.116-2.117l.245.246 4.315-.128-4.56-.118zm.976.977l.205.204 3.537-.097-3.742-.107zm2.096 2.096l1.733-.036.087-.082-1.978-.04.158.158z" fill="url(#C)" fill-rule="nonzero"/><path d="M23.516 71.263l.214.214 14.396-.107-14.61-.107zm.94.94l.24.246 13.292-.118-13.532-.128zm-.639-2.786l-2.121.026.107.107 14.012-.092-11.998-.04zm-1.262.885l.22.225 14.196-.113-14.416-.112zm2.878 2.878l.204.204 12.193-.097-12.397-.107zm3.067 3.067l3.686-.077h3.895l-7.745-.081.164.158zm-2.127-2.121l.246.245 10.822-.118-11.068-.127zm.977.976l.204.21 8.742-.113-8.946-.097zm2.096 2.096l5.623-.03.087-.088-5.869-.04.159.158z" fill="url(#D)" fill-rule="nonzero"/><path d="M31.792 79.616l.215.215 6.61-.103-6.825-.112zm.925.946l.246.24 4.197-.118-4.443-.122zm-.639-2.792l-2.121.026.107.107 6.232-.092-4.218-.04zm-1.262.885l.22.225 5.112-.113-5.332-.112zm2.878 2.878l.204.204 5.716-.097-5.92-.107zM36.76 84.6l3.686-.082-3.85-.081.164.163zm-2.116-2.116l.245.24 5.623-.117-5.868-.123zm.976.971l.205.21 4.84-.102-5.045-.108zm2.096 2.096l1.733-.03.087-.087-1.978-.062.158.18z" fill="url(#E)" fill-rule="nonzero"/><path d="M17.412 65.317l.301.302 13.052-.148-13.353-.154zm-1.053-1.058l.327.327 14.114-.173-14.441-.154zm-4.826-4.82l25.734-.24-26.21-.241.476.48zm3.762 3.757l.358.358L31.4 63.39l-16.104-.194zm-1.022-1.023l.348.348 18.24-.174-18.588-.174zm5.25 5.25l.297.297 13.848-.143-14.145-.153zm-5.935-5.93l21.982-.204-22.401-.21.419.415zm-3.124-3.123l30.366-.215-30.805-.225.44.44zm10.388 10.388l14.094-.154-14.4-.153.306.307zm-8.741-8.742l.45.45 22.825-.22-23.275-.23zm43.044-10.224h-3.206v.143h3.446l-.24-.143zm1.738.956H51.82l-.035.245 5.47-.066-.363-.18zm-3.436-1.886h-1.38 1.38zm5.332 2.898h-7.08v.179l7.33-.03-.25-.149zm-40.334 14.6l.301.302 13.599-.148-13.9-.154zm33.09-13.634v.174l9.253-.036-.184-.102-9.069-.036zM67.7 49.833h2.903H67.7zm-16.313 4.054l8.885-.036.122-.097-8.987-.036-.02.169zm-.164 1.18h7.5l.056-.045h-7.54l-.016.046zm16.896-2.233h5.552-5.557.005zm-.138-.987h6.267l-6.257-.051-.01.051zM51.11 56.08h3.369-3.369zm16.747-5.291v.087l8.69-.041-8.69-.046zm.424 3.031h4.305-4.31.005zm-22.584-1.89h.629l.03-.22h-.613a1.18 1.18 0 0 1-.046.22zm-1.441 3.16h1.63v-.134h-1.12a3.9 3.9 0 0 1-.51.133zm-4.954 1.052l6.446-.036v-.087l-5.95-.03c-.163.06-.328.111-.496.153zm4.969-6.196h2.32v-.189H43.98l.292.19zm-1.324-1.022h3.793v-.056h-3.91l.117.056zm2.556 2.09h.925l.041-.296h-1.273c.12.075.23.167.327.271l-.02.026zM31.434 57.21l14.171-.072v-.061l-13.961-.067a2.045 2.045 0 0 1-.21.2z" fill="url(#F)" fill-rule="nonzero"/><path d="M10.49 55.65c-.21.22-.337.45-.286.512.195.112.408.19.629.235 0 0 12.074-.143 17.008-.082 1.104 0 2.689-.046 2.689-.046.296 0 .72-1.35.51-1.37h-.178c-5.588-.716-15.096-3.205-15.096-3.205a.849.849 0 0 0-.885.194L10.49 55.65zm23.005-3c-6.053-2.153-11.283-6.83-11.283-6.83a.731.731 0 0 0-.854.128l-4.156 4.483a.348.348 0 0 0 .123.608s8.46 2.965 13.695 3.635c2.597.332 6.82.378 6.82.378.296 0 2.346-.51 2.045-.562-.01 0-3.83-.93-6.385-1.835l-.005-.005zm2.126-3.21c3.359 1.89 9.049 3.925 9.049 3.925.28.097.311.031.066-.148 0 0-5.04-3.778-7.827-6.727-2.786-2.95-6.267-8.15-6.267-8.15a.43.43 0 0 0-.695-.06l-3.492 3.69a.511.511 0 0 0 .036.767s5.255 4.514 9.135 6.702h-.005zm.414.475c-4.15-2.648-9.104-8.118-9.104-8.118a.598.598 0 0 0-.808.04l-4.166 4.09a.42.42 0 0 0 .092.68s5.878 3.722 9.748 5.112c3.701 1.309 9.754 2.306 9.754 2.306.297.046 3.195-.256 2.914-.368a36.066 36.066 0 0 1-8.425-3.742h-.005z" fill="#447258" fill-rule="nonzero"/><path d="M42.727 33.581a.291.291 0 0 1 .368 0c.858.768 1.81 1.424 2.832 1.953l-.455-.358a25.453 25.453 0 0 1-2.408-2.459.2.2 0 0 0-.27 0l-1.34 1.125a.133.133 0 0 0-.056.123l1.329-.384zm34.926 3.737a.394.394 0 0 0-.511.031 19.089 19.089 0 0 1-3.952 2.72c.225-.169.44-.338.629-.512a35.969 35.969 0 0 0 3.374-3.43.266.266 0 0 1 .373 0l1.876 1.57c.053.04.081.103.077.168l-1.866-.547zm-47.834 3.998a.47.47 0 0 1 .7.056 27.14 27.14 0 0 0 5.373 4.678 19.426 19.426 0 0 1-.859-.859 57.705 57.705 0 0 1-4.57-5.945.317.317 0 0 0-.511-.041l-2.556 2.694a.399.399 0 0 0-.108.291l2.53-.874z" fill="#FFF" fill-rule="nonzero"/><path d="M45.881 88.23l19.876-15.28-16.538-9.064zm15.071-54.234l-8.41 7.182 10.214 5.9zm-7.402-1.708l-.88 6.406 7.505-6.406zm-1.53 11.144l-2.228 16.272 13.307-9.871zM50.4 62.015l15.592 8.542-2.515-18.24z"/><rect fill="#3A4044" fill-rule="nonzero" x="50.886" y="16.819" width="12.704" height="5.956" rx="1.27"/><path d="M64.413 32.927a.552.552 0 0 1 .562-.639h1.493a.654.654 0 0 0 .649-.65V29.65a.65.65 0 0 0-.65-.649H64.51a.772.772 0 0 1-.736-.644l-.333-2.362a.767.767 0 0 0-.736-.644h-2.31a.552.552 0 0 0-.563.644l.327 2.362a.552.552 0 0 1-.562.644h-4.949a.557.557 0 0 1-.562-.644l.327-2.362a.552.552 0 0 0-.562-.644h-2.31a.767.767 0 0 0-.737.644l-.322 2.362a.772.772 0 0 1-.736.644h-1.754a.65.65 0 0 0-.649.65v1.988a.654.654 0 0 0 .65.65h1.303a.547.547 0 0 1 .557.638L42.088 89.57c-.031.402.104.8.373 1.1l2.255 2.254c.25.255.51.168.547-.184l.097-.736a1.84 1.84 0 0 1 .603-1.023L66.1 75.5a.348.348 0 0 1 .603.251l2.326 16.87c.05.353.296.435.552.184l2.387-2.392c.266-.302.4-.698.368-1.1l-7.923-56.386zm-10.966 0a.762.762 0 0 1 .741-.639h5.327c.358 0 .424.19.154.42l-6.503 5.561c-.271.235-.455.133-.409-.22l.69-5.122zm6.993 1.488c.271-.23.512-.133.583.22l1.626 11.798c.051.358-.164.511-.47.322L53.105 41.5a.43.43 0 0 1-.072-.746l7.407-6.34zm-8.506 9.656a.404.404 0 0 1 .65-.316l9.952 5.756a.394.394 0 0 1 .041.71l-12.264 9.08c-.286.214-.51.097-.434-.256l2.055-14.974zm-5.542 43.76c-.28.22-.475.107-.424-.245l3.16-23.056a.42.42 0 0 1 .659-.332l15.403 8.44a.389.389 0 0 1 .05.705L46.393 87.831zm4.601-25.504a.383.383 0 0 1-.05-.695l12.033-8.926a.353.353 0 0 1 .608.255l2.337 16.952c.05.353-.17.511-.48.332l-14.448-7.918z" fill="#3A4044" fill-rule="nonzero"/><path d="M70.67 58.595c3.783-1.022 9.846-2.945 12.78-3.425 4.984-.808 7.99-1.293 8.864-3.129.203-.42.231-.904.077-1.344 3.236.818 4.754 1.533 4.765 2.045.03 1.963-4.821 3.42-7.474 4.212-4.054 1.206-7.51 2.224-8.568 3.374-3.507 3.819 3.134 7.315 7.315 9.902.65.404 1.907 1.15 2.454 1.534L74.637 87.887 70.67 58.595z" fill="url(#G)" fill-rule="nonzero"/><path d="M64.356 14.595l.062.036h.45l-.512-.036zM60.001 9.76l-5.88.061-.152.154 6.298.05L60 9.76zm-10.7 4.887h.726-.726zm9.805-5.792l-4.09.046-.132.133H59.3l-.194-.179zm6.717 6.733h-.301.301zm-15.49-1.979h.62l-.072.072 10.572.082s0-.03.03-.046l1.606-.051-.072-.072H50.339l-.005.015zm10.65-2.873l-7.863.082-.118.118h8.18l-.2-.2zm.439 1.851h-.26l-9.903.107-.102.103 10.306.081s0-.035.03-.05l1.534-.047-.153-.153h-.71v-.03l-.742-.011zm.511-.91h-.771l-9.019.082-.102.107h10.06l-.168-.189zm3.231.123h.256-.266.01z" fill="url(#H)" fill-rule="nonzero"/></g></svg>