<svg width="64" height="64" viewBox="0 0 64 64" xmlns="http://www.w3.org/2000/svg"><title>02</title><g fill="none" fill-rule="evenodd"><path d="M44.8 48.333h2.133V46.2H44.8v2.133zm17.067 3.2c0 .59-.478 1.066-1.067 1.067H3.2a1.067 1.067 0 1 1 0-2.133h57.6c.589 0 1.066.477 1.067 1.066zm-3.383 5.334H41.782a3.206 3.206 0 0 1 3.018-2.134h10.667a3.206 3.206 0 0 1 3.017 2.134zM57.6 60.6a1.6 1.6 0 1 1-3.2 0 1.6 1.6 0 0 1 3.2 0zm-11.733 0a1.6 1.6 0 1 1-3.2 0 1.6 1.6 0 0 1 3.2 0zm-23.65-3.733h-16.7a3.207 3.207 0 0 1 3.017-2.134H19.2a3.207 3.207 0 0 1 3.018 2.134zm-.884 3.733a1.6 1.6 0 1 1-3.2 0 1.6 1.6 0 0 1 3.2 0zM9.6 60.6a1.6 1.6 0 1 1-3.2 0 1.6 1.6 0 0 1 3.2 0zM16 48.333h2.133V46.2H16v2.133zm14.933 0h2.134V46.2h-2.134v2.133zm-10.666 0H28.8V46.2h-8.533v2.133zm14.933 0h7.467V46.2H35.2v2.133zM2.133 31.267c.008-7.066 5.734-12.792 12.8-12.8h34.134c7.069 0 12.8 5.73 12.8 12.8 0 7.069-5.731 12.8-12.8 12.8H14.933c-7.066-.008-12.792-5.734-12.8-12.8zm34.134-14.934h6.4v-3.2h-6.4v3.2zM64 31.267c-.01-8.244-6.69-14.924-14.933-14.934H44.8v-3.2h1.067a1.067 1.067 0 0 0 0-2.133h-12.8a1.067 1.067 0 0 0 0 2.133h1.066v3.2h-19.2C6.895 16.33.297 22.692.01 30.725c-.288 8.033 5.839 14.85 13.857 15.421v2.187H3.2a3.2 3.2 0 1 0 0 6.4h1.094a5.282 5.282 0 0 0-1.094 3.2A1.067 1.067 0 0 0 4.267 59h.374a3.69 3.69 0 0 0-.374 1.6 3.733 3.733 0 1 0 7.466 0 3.69 3.69 0 0 0-.374-1.6h5.016A3.69 3.69 0 0 0 16 60.6a3.733 3.733 0 0 0 7.467 0 3.69 3.69 0 0 0-.375-1.6h.375a1.066 1.066 0 0 0 1.066-1.067 5.28 5.28 0 0 0-1.094-3.2h17.122a5.28 5.28 0 0 0-1.094 3.2A1.066 1.066 0 0 0 40.533 59h.375a3.69 3.69 0 0 0-.375 1.6 3.733 3.733 0 0 0 7.467 0 3.688 3.688 0 0 0-.374-1.6h5.015a3.69 3.69 0 0 0-.374 1.6 3.733 3.733 0 1 0 7.466 0 3.69 3.69 0 0 0-.374-1.6h.374a1.066 1.066 0 0 0 1.067-1.067 5.28 5.28 0 0 0-1.094-3.2H60.8a3.2 3.2 0 1 0 0-6.4H49.067V46.2C57.31 46.19 63.99 39.51 64 31.267z" fill="#31A3DC"/><path d="M32.467 24.703c2.332 2.844 5.333 7.166 5.333 9.155a5.335 5.335 0 0 1-10.667 0c0-1.986 3.001-6.31 5.334-9.155zm0 16.48A7.405 7.405 0 0 1 25 33.857c0-3.748 5.98-10.726 6.663-11.51a1.102 1.102 0 0 1 1.608 0c.682.784 6.662 7.762 6.662 11.51a7.405 7.405 0 0 1-7.466 7.324zm0-4.267a1.067 1.067 0 1 0 0-2.134c-.534.03-1-.36-1.066-.89a1.067 1.067 0 1 0-2.131.086 3.127 3.127 0 0 0 3.197 2.938z" fill="#00973A"/></g></svg>