<svg width="64" height="64" viewBox="0 0 64 64" xmlns="http://www.w3.org/2000/svg"><title>02</title><g fill="none"><path d="M43.974 28.282a96.673 96.673 0 0 0-2 2.297V9.66H46a1 1 0 0 0 1-1V7a1 1 0 0 0-1-1H3a1 1 0 0 0-1 1v1.66a1 1 0 0 0 1 1h8.82a4 4 0 0 1 4 4v1.106a4 4 0 0 1-4 4H7.027v14.043H3a1 1 0 0 0-1 1v1.66a1 1 0 0 0 1 1h8.821a4 4 0 0 1 4 4v1.105a4 4 0 0 1-4 4H7.026V58.34H3a1 1 0 0 0-1 1V61a1 1 0 0 0 1 1h33.205a15.29 15.29 0 0 0 2.191 2H3a3 3 0 0 1-3-3v-1.66a3 3 0 0 1 3-3h2.026V43.574h6.795a2 2 0 0 0 2-2v-1.106a2 2 0 0 0-2-2H3a3 3 0 0 1-3-3v-1.66a3 3 0 0 1 3-3h2.026V16.767h6.795a2 2 0 0 0 2-2V13.66a2 2 0 0 0-2-2H3a3 3 0 0 1-3-3V7a3 3 0 0 1 3-3h43a3 3 0 0 1 3 3v1.66a3 3 0 0 1-3 3h-2.026v16.622zM12 51h19v2H12v-2zm0-25h25v2H12v-2zm7-14h18v2H19v-2z" fill="#31A3DC"/><path d="M37.476 51.035c0 5.055 3.798 10.244 9.953 10.37 6.425.132 11.095-5.32 11.095-10.37 0-5.325-3.593-11.516-10.979-18.45-6.758 7.64-10.069 13.858-10.069 18.45zM47.381 29C56.461 37.03 61 44.375 61 51.035c0 4.963-4.496 13.149-13.619 12.962C38.258 63.81 35 55.407 35 51.035 35 45.244 39.127 37.9 47.381 29zM41.04 50c-.174 2.16.223 3.75 1.192 4.774 1.454 1.535 3.522 1.194 4.768 1.194.008 0-1.798-.61-3.576-2.387-.588-.588-1.383-1.782-2.384-3.581z" fill="#00973A"/></g></svg>