<svg width="64" height="64" viewBox="0 0 64 64" xmlns="http://www.w3.org/2000/svg" xmlns:xlink="http://www.w3.org/1999/xlink"><title>02</title><defs><path d="M34.722 25.333h.047a1.332 1.332 0 0 0 1.284-1.379c-.108-3.146.318-9.03 4.392-13.072 3.898-3.868 10.306-7.275 12-8.14.337.113.94.371 1.789.92l-11.09 11.105a1.333 1.333 0 0 0 .941 2.276c.34 0 .68-.131.94-.392L56.36 5.302a26.69 26.69 0 0 1 2.225 2.221L47.248 18.877a1.333 1.333 0 0 0 1.88 1.886l11.1-11.118c.56.866.81 1.465.914 1.792-.855 1.684-4.252 8.127-8.084 12.1-4.05 4.196-9.846 4.597-12.953 4.464a1.328 1.328 0 0 0-1.388 1.273 1.331 1.331 0 0 0 1.271 1.389c.337.015.702.024 1.09.024 3.704 0 9.572-.817 13.892-5.298 4.707-4.878 8.612-12.867 8.776-13.204.01-.024.008-.051.018-.074.035-.084.05-.172.067-.263.018-.087.036-.17.035-.257 0-.027.012-.05.01-.079-.03-.452-.388-2.911-4.454-6.98C55.286.387 52.7.028 52.42 0c-.032-.002-.062.011-.093.011a1.29 1.29 0 0 0-.293.033c-.062.014-.122.025-.18.047-.049.018-.099.015-.144.038-.339.163-8.324 4.082-13.138 8.86-4.793 4.756-5.3 11.475-5.178 15.058.026.72.615 1.286 1.33 1.286zm25.319 34.684c-.91.912-2.104 1.36-3.425 1.295-1.722-.083-3.443-1.023-4.772-2.635L26.288 31.09c-.033-.035-.077-.05-.112-.08a1.288 1.288 0 0 0-.469-.266c-.042-.012-.074-.04-.117-.051-.113-.024-11.41-2.497-16.542-7.637-2.632-2.637-4.774-7.099-5.732-11.94-.654-3.302-.593-5.995-.174-7.562l25.312 25.299c.023.023.055.03.079.052.023.02.033.048.058.065l30.17 22.89c1.55 1.279 2.49 3 2.572 4.724.065 1.335-.383 2.521-1.292 3.432zm-47.872-1.283c-1.286 1.566-3.015 2.51-4.747 2.593-1.356.063-2.535-.386-3.451-1.305-.919-.917-1.368-2.114-1.303-3.458.083-1.734 1.027-3.467 2.593-4.758l20.672-17.18 3.444 3.716-17.208 20.392zm48.24-8.966L30.267 26.902 3.754.399a1.333 1.333 0 0 0-1.88 0C-.214 2.487-.1 7.57.703 11.634c1.073 5.418 3.428 10.27 6.462 13.309 4.648 4.653 13.287 7.208 16.568 8.045L3.565 49.751C1.426 51.515.13 53.953.009 56.437c-.1 2.085.639 4.028 2.08 5.47C3.443 63.265 5.238 64 7.177 64c.125 0 .25-.003.374-.01 2.479-.118 4.911-1.418 6.662-3.547L31.2 40.312l18.64 20.116c1.754 2.135 4.177 3.426 6.647 3.547.124.006.247.008.37.008 1.932 0 3.717-.732 5.066-2.081 1.433-1.436 2.168-3.37 2.067-5.445-.118-2.472-1.41-4.898-3.582-6.689z" id="a"/></defs><g fill="none" fill-rule="evenodd"><mask id="b" fill="#fff"><use xlink:href="#a"/></mask><use fill="#31A3DC" xlink:href="#a"/><path d="M30.667 20L35 10l7-5 6-3.667C50.444.444 52.111 0 53 0c1.333 0 5.333 3.333 8 6s3 2.333 3 5-1.333 6-4 10-7.667 8-9 8c-1.333 0-6.333 2-9 2-1.778 0-3.333-.111-4.667-.333l-4-5.334L30.667 20zM0 52l9.333-10.667 13.334-8L26 34l6 7.333-2.667 9.334L24 56l-5.333 8H8c-1.333 0-5 0-7-2 0 0-1-2-1-3.333V52z" fill="#00973A" mask="url(#b)"/></g></svg>