<svg width="64" height="64" viewBox="0 0 64 64" xmlns="http://www.w3.org/2000/svg"><title>01</title><g fill="none" fill-rule="evenodd"><path d="M60.041 60.017c-.91.912-2.104 1.36-3.425 1.295-1.722-.083-3.443-1.023-4.772-2.635L26.288 31.09c-.033-.035-.077-.05-.112-.08a1.288 1.288 0 0 0-.469-.266c-.042-.012-.074-.04-.117-.051-.113-.024-11.41-2.497-16.542-7.637-2.632-2.637-4.774-7.099-5.732-11.94-.654-3.302-.593-5.995-.174-7.562l25.312 25.299c.023.023.055.03.079.052.023.02.033.048.058.065l30.17 22.89c1.55 1.279 2.49 3 2.572 4.724.065 1.335-.383 2.521-1.292 3.432zm-47.872-1.283c-1.286 1.566-3.015 2.51-4.747 2.593-1.356.063-2.535-.386-3.451-1.305-.919-.917-1.368-2.114-1.303-3.458.083-1.734 1.027-3.467 2.593-4.758l20.672-17.18 3.444 3.716-17.208 20.392zm48.24-8.966L30.267 26.902 3.754.399a1.333 1.333 0 0 0-1.88 0C-.214 2.487-.1 7.57.703 11.634c1.073 5.418 3.428 10.27 6.462 13.309 4.648 4.653 13.287 7.208 16.568 8.045L3.565 49.751C1.426 51.515.13 53.953.009 56.437c-.1 2.085.639 4.028 2.08 5.47C3.443 63.265 5.238 64 7.177 64c.125 0 .25-.003.374-.01 2.479-.118 4.911-1.418 6.662-3.547L31.2 40.312l18.64 20.116c1.754 2.135 4.177 3.426 6.647 3.547.124.006.247.008.37.008 1.932 0 3.717-.732 5.066-2.081 1.433-1.436 2.168-3.37 2.067-5.445-.118-2.472-1.41-4.898-3.582-6.689z" fill="#31A3DC"/><path d="M12.169 58.734c-1.286 1.566-3.015 2.51-4.747 2.593-1.356.063-2.535-.386-3.451-1.305-.919-.917-1.368-2.114-1.303-3.458.083-1.734 1.027-3.467 2.593-4.758L26 35l3.377 3.342-17.208 20.392zM24 33l7.2 7.312-16.987 20.131c-1.75 2.129-4.183 3.429-6.662 3.548a6.97 6.97 0 0 1-.374.009c-1.94 0-3.734-.735-5.088-2.093-1.441-1.442-2.18-3.385-2.08-5.47.12-2.484 1.417-4.922 3.556-6.686L24 33zm10.722-7.667a1.332 1.332 0 0 1-1.329-1.286c-.123-3.583.385-10.302 5.178-15.058C43.385 4.21 51.371.292 51.71.129c.045-.023.095-.02.143-.038.06-.022.12-.033.181-.047.1-.02.194-.036.293-.033.031 0 .06-.013.093-.01.281.027 2.867.386 7.003 4.531 4.066 4.069 4.424 6.528 4.455 6.98.001.028-.01.052-.01.079 0 .087-.018.17-.036.257-.017.09-.032.179-.067.263-.01.023-.008.05-.018.074-.164.337-4.07 8.326-8.776 13.204-4.32 4.481-10.188 5.298-13.891 5.298a26.1 26.1 0 0 1-1.09-.024 1.331 1.331 0 0 1-1.272-1.39 1.328 1.328 0 0 1 1.388-1.272c3.107.133 8.902-.268 12.953-4.464 3.832-3.973 7.23-10.416 8.084-12.1-.105-.327-.354-.926-.915-1.792l-11.1 11.118a1.326 1.326 0 0 1-1.88 0 1.333 1.333 0 0 1 0-1.886L58.584 7.523a26.69 26.69 0 0 0-2.225-2.221L45.026 16.651a1.324 1.324 0 0 1-1.882 0 1.333 1.333 0 0 1 0-1.884l11.09-11.105c-.848-.549-1.452-.807-1.79-.92-1.693.865-8.101 4.272-11.999 8.14-4.074 4.043-4.5 9.926-4.392 13.072a1.332 1.332 0 0 1-1.284 1.379h-.047z" fill="#00973A"/></g></svg>