<svg width="64" height="64" viewBox="0 0 64 64" xmlns="http://www.w3.org/2000/svg"><title>02</title><g fill="none"><path d="M51.703 53.684c-5.426 4.933-12.423 7.65-19.703 7.65a29.223 29.223 0 0 1-18.18-6.313l3.172-5.177a1.331 1.331 0 0 0-.788-1.983L5.161 44.87a1.335 1.335 0 0 0-1.531 1.904C9.176 57.4 20.047 64 32 64c7.945 0 15.58-2.962 21.497-8.343a1.335 1.335 0 0 0 .09-1.884 1.339 1.339 0 0 0-1.884-.09zm-39.922-.438a29.447 29.447 0 0 1-4.15-4.944l6.157 1.667-2.007 3.277zM2.667 32c0-12.345 7.665-22.934 18.487-27.255l2.897 5.336a1.334 1.334 0 0 0 2.11.31l8.111-8.043a1.332 1.332 0 0 0-.88-2.28L32.928.04C32.621.02 32.313 0 32 0 14.355 0 0 14.355 0 32c0 2.247.249 4.535.74 6.8a1.333 1.333 0 1 0 2.606-.564c-.45-2.08-.68-4.179-.68-6.236zM30.103 2.728l-4.557 4.518-1.839-3.385a29.057 29.057 0 0 1 6.396-1.133zM41.74 1.52a1.325 1.325 0 0 0-1.676.863 1.332 1.332 0 0 0 .863 1.676C53.133 7.958 61.333 19.186 61.333 32c0 1.423-.104 2.837-.308 4.233l-6.067-.159c-.446-.023-.82.177-1.08.507-.26.33-.35.761-.244 1.168l2.922 11.053a1.333 1.333 0 0 0 2.413.377A31.88 31.88 0 0 0 64 32c0-13.98-8.947-26.228-22.26-30.48zm16.557 43.432l-1.63-6.167 3.84.1a29.286 29.286 0 0 1-2.21 6.067z" fill="#31A3DC"/><path d="M30.932 13.868c-1.255 1.678-12.265 16.593-12.265 23.465 0 7.352 5.981 13.334 13.333 13.334s13.333-5.982 13.333-13.334c0-6.872-11.01-21.787-12.265-23.465-.503-.674-1.633-.674-2.136 0zM32 48c-5.881 0-10.667-4.785-10.667-10.667 0-4.584 6.928-15.192 10.667-20.407 3.74 5.213 10.667 15.82 10.667 20.407C42.667 43.215 37.882 48 32 48zm-5.333-10.667a1.333 1.333 0 1 0-2.667 0c0 4.412 3.588 8 8 8a1.333 1.333 0 1 0 0-2.666 5.339 5.339 0 0 1-5.333-5.334z" fill="#00973A"/></g></svg>