<svg width="72" height="64" viewBox="0 0 72 64" xmlns="http://www.w3.org/2000/svg"><title>02</title><g fill="none"><path d="M66.96 37.501l-1.865-7.533c.51-.109.892-.566.892-1.113V27.64c0-2.636-2.124-4.782-4.734-4.782H52.76v-2.505c0-1.297-1.045-2.353-2.33-2.353H7.14c-1.285 0-2.33 1.056-2.33 2.353V41c0 .629.505 1.139 1.127 1.139.623 0 1.128-.51 1.128-1.139V20.353c0-.042.033-.076.075-.076h43.29c.041 0 .075.034.075.076V41c0 .63.505 1.14 1.127 1.14.623 0 1.128-.51 1.128-1.14v-1.29h13.305c1.636.001 3.026 1.086 3.503 2.58h-3.506c-.622 0-1.127.51-1.127 1.14v2.428c0 1.968 1.585 3.568 3.532 3.568h1.278v5.01h-2.948c-.968-2.824-3.626-4.858-6.747-4.858s-5.78 2.034-6.748 4.858h-.542v-8.578c0-.629-.505-1.138-1.128-1.138-.622 0-1.127.51-1.127 1.138v8.578h-23.39c-.968-2.824-3.626-4.859-6.748-4.859-3.12 0-5.779 2.035-6.747 4.859H7.14a.075.075 0 0 1-.075-.076v-2.505h4.885c.622 0 1.127-.51 1.127-1.139s-.504-1.139-1.127-1.139H1.127c-.622 0-1.127.51-1.127 1.14 0 .628.505 1.138 1.127 1.138H4.81v2.505c0 1.297 1.045 2.353 2.33 2.353h6.09l-.002.076c0 3.976 3.203 7.211 7.14 7.211 3.936 0 7.14-3.235 7.14-7.211 0-.026-.002-.05-.003-.076h25.407l-.002.076c0 3.976 3.203 7.211 7.14 7.211s7.14-3.235 7.14-7.211l-.002-.076h3.684c.623 0 1.128-.51 1.128-1.139V43.43c0-2.998-2.19-5.49-5.04-5.928zm-14.2-12.366h8.493c1.367 0 2.48 1.124 2.48 2.505v.076H52.76v-2.58zm0 12.298v-7.44h10.017l1.842 7.44H52.76zm-32.393 24.29c-2.693 0-4.885-2.213-4.885-4.934 0-2.72 2.192-4.934 4.885-4.934 2.694 0 4.886 2.213 4.886 4.934 0 2.72-2.192 4.934-4.886 4.934zm39.683 0c-2.694 0-4.885-2.213-4.885-4.934 0-2.72 2.191-4.934 4.885-4.934s4.885 2.213 4.885 4.934c0 2.72-2.191 4.934-4.885 4.934zm9.695-14.574h-1.277a1.286 1.286 0 0 1-1.278-1.29v-1.291h2.555v2.58zm-49.378 7.287c1.285 0 2.33 1.055 2.33 2.353 0 1.298-1.045 2.353-2.33 2.353-1.284 0-2.33-1.055-2.33-2.353 0-1.298 1.046-2.353 2.33-2.353zm39.683 0c1.285 0 2.33 1.055 2.33 2.353 0 1.298-1.045 2.353-2.33 2.353-1.285 0-2.33-1.055-2.33-2.353 0-1.298 1.045-2.353 2.33-2.353zm-13.227-4.858c.622 0 1.127.51 1.127 1.139 0 .628-.505 1.138-1.128 1.138H29.987c-.622 0-1.127-.51-1.127-1.138 0-.63.505-1.14 1.127-1.14h16.835zm-28.86-4.858c.622 0 1.127.51 1.127 1.138 0 .63-.505 1.139-1.128 1.139H3.532c-.622 0-1.127-.51-1.127-1.139s.505-1.138 1.127-1.138h14.43z" fill="#31A3DC"/><path d="M38.76 29.33a1.127 1.127 0 0 0-1.595 0L27.14 39.356l-5.216-5.216a1.127 1.127 0 1 0-1.594 1.594l6.013 6.013a1.123 1.123 0 0 0 1.594 0l10.822-10.822c.44-.44.44-1.155 0-1.595z" fill="#00973A"/></g></svg>