<svg width="64" height="64" viewBox="0 0 64 64" xmlns="http://www.w3.org/2000/svg"><title>02</title><g fill="none" fill-rule="evenodd"><path d="M36.328 4.267h2.72v2.134h-2.483l.238 2.133h13.98c.59 0 1.067.478 1.067 1.067v16.256l7.85 3.018c.435.169.711.6.681 1.067a57.398 57.398 0 0 1-10.587 29.599l-1.343 1.886-1.738-1.238 1.346-1.888c.164-.23.327-.461.487-.693H32.648v3.2h-2.134v-3.2h-15.9c.161.232.324.462.488.692l1.345 1.89-1.737 1.237-1.344-1.888A57.41 57.41 0 0 1 2.78 29.94a1.066 1.066 0 0 1 .682-1.067l7.85-3.018V9.601c0-.589.477-1.067 1.066-1.067h13.98l.238-2.133h-2.483V4.267h2.72l.238-2.133h-2.958V0h14.935v2.134h-2.957l.237 2.133zm9.121 19.13l4.268 1.64V10.668H13.445v14.368l4.267-1.641v-2.059h2.134v1.238l6.755-2.597a13.672 13.672 0 0 1 3.913-.886V17.07h2.134v2.023a13.67 13.67 0 0 1 3.915.887l6.753 2.597v-1.24h2.133v2.06zm11.841 13.64l-23.725-9.493c-.3-.12-.607-.212-.917-.275v28.205H49.95a55.255 55.255 0 0 0 7.34-18.438zm.387-2.144c.229-1.426.402-2.864.519-4.31l-22.4-8.613a11.576 11.576 0 0 0-3.148-.737v3.87c.58.085 1.153.238 1.71.461l23.32 9.33zM30.514 27.27a5.36 5.36 0 0 0-.914.275L5.87 37.037a55.269 55.269 0 0 0 7.34 18.437h17.303V27.27zm0-2.166v-3.87c-1.076.096-2.13.342-3.145.735L4.966 30.582c.117 1.447.29 2.885.518 4.312l23.322-9.33a7.475 7.475 0 0 1 1.708-.46zm3.43-22.97h-4.726l-.712 6.401h6.149l-.711-6.4zm-3.43 12.802v-2.133h2.134v2.133h-2.134zm-4.267 0v-2.133h2.133v2.133h-2.133zm-4.267 0v-2.133h2.133v2.133H21.98zm-4.268 0v-2.133h2.134v2.133h-2.134zm17.07 0v-2.133h2.133v2.133H34.78zm4.266 0v-2.133h2.134v2.133h-2.134zm4.268 0v-2.133h2.133v2.133h-2.133zm-29.871 0v-2.133h2.134v2.133h-2.134zm34.138 0v-2.133h2.134v2.133h-2.134zm-21.336 4.268V17.07h2.133v2.134h-2.133zm-4.267 0V17.07h2.133v2.134H21.98zm-4.268 0V17.07h2.134v2.134h-2.134zm17.07 0V17.07h2.133v2.134H34.78zm4.266 0V17.07h2.134v2.134h-2.134zm4.268 0V17.07h2.133v2.134h-2.133zm-29.871 0V17.07h2.134v2.134h-2.134zm34.138 0V17.07h2.134v2.134h-2.134zM13.445 23.47v-2.134h2.134v2.134h-2.134zm34.138 0v-2.134h2.134v2.134h-2.134z" fill="#31A3DC"/><path d="M19.846 8.601V2.134h2.134V8.6h-2.134zm21.336 0V2.134h2.134V8.6h-2.134zm-25.603 0V2.134h2.133V8.6H15.58zm29.87 0V2.134h2.134V8.6h-2.134zM24.706 64a6.747 6.747 0 0 1-4.087-1.372 4.645 4.645 0 0 0-5.581.002 6.772 6.772 0 0 1-8.17-.002 4.647 4.647 0 0 0-5.581.002L0 60.928a6.793 6.793 0 0 1 8.157 0 4.634 4.634 0 0 0 5.592.002 6.788 6.788 0 0 1 8.159-.002 4.634 4.634 0 0 0 5.592.002 6.791 6.791 0 0 1 8.16-.002 4.634 4.634 0 0 0 5.592.002 6.787 6.787 0 0 1 8.158-.002 4.634 4.634 0 0 0 5.593.002 6.786 6.786 0 0 1 8.157-.002l-1.287 1.702a4.64 4.64 0 0 0-5.582 0 6.774 6.774 0 0 1-8.17-.002 4.646 4.646 0 0 0-5.58.002 6.774 6.774 0 0 1-8.17-.002 4.647 4.647 0 0 0-5.582.002A6.746 6.746 0 0 1 24.706 64z" fill="#00973A"/></g></svg>