<svg width="64" height="64" viewBox="0 0 64 64" xmlns="http://www.w3.org/2000/svg"><title>Artboard</title><g fill="none" fill-rule="evenodd"><path d="M42.968 44.88l-8.661-13.76L60.014 5.403 42.968 44.88zM58.527 4.06L32.88 29.719l-13.717-8.31L58.527 4.061zM64 1.036c0-.037-.003-.07-.005-.108a.98.98 0 0 0-.048-.245c-.011-.034-.02-.066-.034-.099a.999.999 0 0 0-.198-.296V.285c-.002 0-.002-.002-.003-.002a.997.997 0 0 0-.297-.197c-.033-.014-.065-.023-.099-.034a.953.953 0 0 0-.244-.047C63.035.002 63-.001 62.962 0a.976.976 0 0 0-.264.052c-.028.008-.055.01-.08.02-.005.003-.01.003-.015.005L16.597 20.352a.999.999 0 0 0-.115 1.772l15.775 9.556c.013.014.017.032.031.045.017.017.042.024.06.04l9.94 15.788a1.002 1.002 0 0 0 1.764-.137L63.926 1.39c0-.004 0-.009.003-.013.008-.018.009-.039.015-.058A.963.963 0 0 0 64 1.035z" fill="#31A3DC"/><path d="M4.957 60.216a1 1 0 1 1-1.414-1.414L24.8 37.545a1 1 0 0 1 1.414 1.415L4.957 60.216zm1.75-14.75a1 1 0 0 1-1.414-1.414l10.759-10.76a1 1 0 1 1 1.414 1.415L6.707 45.466zm-5 5a1 1 0 0 1-1.414-1.414l1.526-1.526a1 1 0 0 1 1.414 1.414l-1.526 1.526zm19 8a1 1 0 0 1-1.414-1.414l10.759-10.76a1 1 0 1 1 1.414 1.415L20.707 58.466zm-5 5a1 1 0 0 1-1.414-1.414l1.526-1.526a1 1 0 0 1 1.414 1.414l-1.526 1.526z" fill="#00973A" fill-rule="nonzero"/></g></svg>