<svg width="64" height="64" viewBox="0 0 64 64" xmlns="http://www.w3.org/2000/svg" xmlns:xlink="http://www.w3.org/1999/xlink"><title>02</title><defs><path d="M35.469 37.882l-3.676-2.72a1.326 1.326 0 0 0-1.498-.056 14.526 14.526 0 0 1-4.492 1.877 1.335 1.335 0 0 0-1.022 1.126l-.594 4.507-3.213.01-.69-4.532a1.334 1.334 0 0 0-1.02-1.1 14.443 14.443 0 0 1-4.464-1.846 1.327 1.327 0 0 0-1.507.07l-3.617 2.745-2.298-2.293 2.689-3.701c.32-.443.34-1.033.05-1.496a14.591 14.591 0 0 1-1.88-4.569 1.331 1.331 0 0 0-1.134-1.032l-4.425-.554-.012-3.228 4.496-.68a1.33 1.33 0 0 0 1.098-1.021 14.573 14.573 0 0 1 1.907-4.564 1.336 1.336 0 0 0-.072-1.538L7.317 9.712l2.25-2.28 3.632 2.78c.443.34 1.05.365 1.518.068a14.582 14.582 0 0 1 4.534-1.893c.544-.124.95-.576 1.022-1.13l.587-4.575 3.206-.01.665 4.6a1.33 1.33 0 0 0 1.022 1.11c1.57.358 3.068.975 4.453 1.837a1.33 1.33 0 0 0 1.51-.072l3.661-2.805 2.28 2.278-2.75 3.674a1.34 1.34 0 0 0-.059 1.519 14.555 14.555 0 0 1 1.908 4.553 1.33 1.33 0 0 0 1.123 1.02l4.492.592.01 3.24-4.511.698a1.33 1.33 0 0 0-1.095 1.024 14.57 14.57 0 0 1-1.851 4.502 1.338 1.338 0 0 0 .07 1.515l2.748 3.623-2.273 2.302zm5.091-2.995l-2.909-3.834a17.225 17.225 0 0 0 1.494-3.635l4.773-.738c.65-.1 1.13-.664 1.127-1.322l-.017-5.555a1.333 1.333 0 0 0-1.158-1.318l-4.757-.627a17.256 17.256 0 0 0-1.54-3.68l2.907-3.882a1.337 1.337 0 0 0-.125-1.747l-3.924-3.921a1.324 1.324 0 0 0-1.746-.115l-3.877 2.969a17.112 17.112 0 0 0-3.571-1.474l-.704-4.865C26.44.486 25.876.03 25.213 0l-5.528.016a1.332 1.332 0 0 0-1.317 1.165l-.62 4.84a17.188 17.188 0 0 0-3.65 1.522L10.252 4.6a1.332 1.332 0 0 0-1.753.12L4.601 8.669a1.338 1.338 0 0 0-.104 1.76l2.938 3.78a17.236 17.236 0 0 0-1.54 3.694l-4.762.722A1.333 1.333 0 0 0 0 19.948l.02 5.554a1.332 1.332 0 0 0 1.166 1.32l4.686.585a17.295 17.295 0 0 0 1.527 3.7l-2.843 3.916a1.335 1.335 0 0 0 .137 1.73l3.925 3.92a1.33 1.33 0 0 0 1.742.12l3.83-2.91a17.05 17.05 0 0 0 3.597 1.487l.729 4.797c.1.653.66 1.134 1.316 1.134h.004l5.522-.018a1.329 1.329 0 0 0 1.314-1.16l.63-4.773a17.207 17.207 0 0 0 3.62-1.513l3.893 2.878a1.328 1.328 0 0 0 1.736-.135l3.896-3.947a1.338 1.338 0 0 0 .113-1.746zm9.889 18.485a2.661 2.661 0 0 1 0-5.323 2.661 2.661 0 0 1 0 5.323zm0-7.994c-2.932 0-5.316 2.392-5.316 5.332s2.384 5.33 5.316 5.33c2.93 0 5.315-2.39 5.315-5.33s-2.384-5.332-5.315-5.332zM22.52 28.048c-2.922 0-5.298-2.394-5.298-5.335 0-2.94 2.376-5.331 5.298-5.331 2.921 0 5.298 2.39 5.298 5.331 0 2.941-2.377 5.334-5.298 5.334zm0-13.336c-4.389 0-7.96 3.59-7.96 8.001 0 4.412 3.571 8.003 7.96 8.003 4.39 0 7.96-3.591 7.96-8.003s-3.57-8.001-7.96-8.001zm38.062 38.941l-1.741-.07c-.944 0-1.978.51-2.548 1.25l-1.022 1.136c-.686.658-1.105 1.795-1.002 2.74l.213 1.918-2.084.637-.902-1.735c-.453-.857-1.47-1.583-2.301-1.7l-1.267-.308a3.03 3.03 0 0 0-.993-.156c-.737 0-1.456.222-1.963.6l-1.06.777-1.593-1.495.727-1.153c.542-.854.62-2.13.222-2.947-.016-.047-.066-.19-.182-.58a7.404 7.404 0 0 1-.164-.584c-.144-.999-.917-2.017-1.832-2.417l-1.265-.558.496-2.137 1.525.061c.96 0 2.028-.528 2.525-1.195l.617-.696c.697-.662 1.129-1.834 1.024-2.793l-.17-1.55 2.087-.639.598 1.153c.461.897 1.522 1.607 2.392 1.67l1.293.238c.886.232 2.108-.004 2.835-.545l1.245-.915 1.596 1.499-.658 1.043c-.552.867-.608 2.154-.133 3.057.002.005.175.343.357.948l.118.377c.201.9.954 1.809 1.824 2.188l1.68.742-.494 2.14zm1.666-4.537l-1.783-.786a.856.856 0 0 1-.293-.316 1.52 1.52 0 0 0-.043-.17l-.133-.423c-.25-.84-.516-1.351-.538-1.392a.689.689 0 0 1 .018-.396l.717-1.138c.638-1.014.464-2.393-.404-3.209l-1.756-1.648c-.829-.78-2.281-.88-3.226-.197l-1.339.986c-.054.039-.257.121-.582.11a1.228 1.228 0 0 0-.139-.031l-1.476-.266a.783.783 0 0 1-.381-.255l-.654-1.26c-.539-1.032-1.851-1.59-2.974-1.25l-2.307.704a2.568 2.568 0 0 0-1.77 2.701l.18 1.659c.014.139-.107.464-.28.64l-.763.859c-.08.096-.352.225-.47.227l-1.634-.067c-1.147 0-2.206.843-2.464 1.957l-.547 2.359c-.264 1.168.358 2.412 1.447 2.893l1.364.602c.094.05.248.256.27.346 0 0 .025.257.254.992.202.682.27.823.288.863a.788.788 0 0 1-.03.454l-.78 1.237c-.635.99-.46 2.402.4 3.22l1.758 1.65c.833.785 2.315.86 3.218.19l1.151-.844a.893.893 0 0 1 .388-.083l1.744.41c.13.026.4.22.461.328l.948 1.822c.427.827 1.32 1.36 2.273 1.36.245 0 .482-.034.7-.1l2.297-.704c1.127-.342 1.91-1.531 1.781-2.708l-.225-2.025c-.01-.13.103-.425.193-.516a1.21 1.21 0 0 0 .101-.101l1.101-1.225c.013-.013.079-.096.088-.11a.863.863 0 0 1 .442-.215l1.835.077c1.146 0 2.21-.84 2.475-1.961l.545-2.356c.265-1.168-.356-2.414-1.446-2.894z" id="a"/></defs><g fill="none" fill-rule="evenodd"><mask id="b" fill="#fff"><use xlink:href="#a"/></mask><use fill="#31A3DC" xlink:href="#a"/><path fill="#00973A" mask="url(#b)" d="M44.772 37h19v27h-27V44z"/></g></svg>