<svg width="64" height="64" viewBox="0 0 64 64" xmlns="http://www.w3.org/2000/svg" xmlns:xlink="http://www.w3.org/1999/xlink"><title>Artboard</title><defs><path d="M32 2.664c8.088 0 14.667 6.612 14.667 14.74 0 11.535-11.471 22.108-14.667 24.83-3.197-2.72-14.667-13.277-14.667-24.83 0-8.128 6.58-14.74 14.667-14.74m-.816 42.35c.24.185.53.28.816.28.288 0 .577-.095.817-.28.675-.523 16.516-12.963 16.516-27.61C49.333 7.808 41.557 0 32 0c-9.556 0-17.333 7.808-17.333 17.404 0 14.647 15.842 27.087 16.517 27.61m-4.517-27.697A5.336 5.336 0 0 1 32 11.991a5.335 5.335 0 0 1 5.333 5.326c0 2.939-2.39 5.33-5.333 5.33a5.337 5.337 0 0 1-5.333-5.33m13.333 0c0-4.406-3.588-7.992-8-7.992-4.41 0-8 3.586-8 7.992 0 4.407 3.59 7.992 8 7.992 4.412 0 8-3.585 8-7.992m23.264-9.183l-10.667-5.33a1.334 1.334 0 0 0-1.193 2.385l9.93 4.959v50.495L44 53.715V42.628a1.333 1.333 0 1 0-2.667 0v11.065l-18.666 6.994v-18.06c0-.735-.596-1.331-1.334-1.331-.736 0-1.333.596-1.333 1.332V60.64L2.667 53.715V3.038l9.01 2.25a1.332 1.332 0 1 0 .647-2.585L1.657.04A1.333 1.333 0 0 0 0 1.332v53.285c0 .546.333 1.035.839 1.238l20 7.993c.016.007.03.004.046.01.143.05.294.085.448.085a1.3 1.3 0 0 0 .43-.078c.013-.005.026-.002.04-.006l20.85-7.812 19.519 7.801a1.338 1.338 0 0 0 1.243-.135c.365-.248.585-.661.585-1.104V9.325a1.33 1.33 0 0 0-.736-1.19" id="a"/></defs><g fill="none" fill-rule="evenodd"><mask id="b" fill="#fff"><use xlink:href="#a"/></mask><use fill="#31A3DC" xlink:href="#a"/><path fill="#00973A" mask="url(#b)" d="M14 0h36l-1 34-17 12-18-9z"/></g></svg>