<svg width="64" height="64" viewBox="0 0 64 64" xmlns="http://www.w3.org/2000/svg"><title>01</title><g fill="none" fill-rule="evenodd"><path d="M31.928 50.932a1.33 1.33 0 0 0-1.33 1.332v7.99a1.33 1.33 0 1 0 2.66-.001v-7.989c0-.735-.596-1.332-1.33-1.332m0-15.977a1.33 1.33 0 0 0-1.33 1.332v7.988a1.33 1.33 0 1 0 2.66 0v-7.988a1.33 1.33 0 0 0-1.33-1.332m0-15.979a1.33 1.33 0 0 0-1.33 1.33v7.99a1.33 1.33 0 1 0 2.66 0v-7.99a1.33 1.33 0 0 0-1.33-1.33m0-15.979c-.736 0-1.33.598-1.33 1.332v7.99a1.33 1.33 0 1 0 2.66 0v-7.99c0-.734-.596-1.332-1.33-1.332M9.484.345a1.319 1.319 0 0 0-1.49 1.15L.012 62.745a1.328 1.328 0 0 0 1.32 1.503 1.33 1.33 0 0 0 1.317-1.159L10.63 1.84A1.33 1.33 0 0 0 9.484.345M59.732 34.96a1.334 1.334 0 0 0-1.192 1.459l2.661 26.63a1.332 1.332 0 0 0 1.456 1.192 1.333 1.333 0 0 0 1.192-1.457l-2.661-26.63a1.322 1.322 0 0 0-1.456-1.194" fill="#31A3DC"/><path d="M50.552.336c-7.335 0-13.303 5.837-13.303 13.015 0 10.794 11.943 20.872 12.452 21.296a1.326 1.326 0 0 0 1.701 0c.511-.424 12.454-10.502 12.454-21.296 0-7.178-5.97-13.015-13.304-13.015m0 31.504c-2.662-2.459-10.643-10.5-10.643-18.49 0-5.707 4.775-10.353 10.643-10.353s10.642 4.646 10.642 10.354c0 7.99-7.98 16.03-10.642 18.49m.001-24.849c-3.668 0-6.653 2.987-6.653 6.659 0 3.67 2.985 6.656 6.653 6.656 3.668 0 6.65-2.987 6.65-6.656 0-3.672-2.982-6.659-6.65-6.659m0 10.653a4 4 0 0 1-3.992-3.994 3.999 3.999 0 0 1 3.992-3.995c2.2 0 3.99 1.792 3.99 3.995a3.997 3.997 0 0 1-3.99 3.994" fill="#00973A"/></g></svg>