<svg width="64" height="64" viewBox="0 0 64 64" xmlns="http://www.w3.org/2000/svg"><title>01</title><g fill="none" fill-rule="evenodd"><path d="M57.216.247a1.068 1.068 0 0 0-1.57.228l-4.267 6.399c-.116.175-.18.382-.18.592v9.6H4.267A4.27 4.27 0 0 0 0 21.332 4.27 4.27 0 0 0 4.266 25.6H25.6v5.184l-8.271 28.95h-3.463c-.588 0-1.066.477-1.066 1.066v2.134a1.066 1.066 0 0 0 2.133 0v-1.067h34.133v1.067a1.067 1.067 0 0 0 2.134 0V60.8c0-.589-.478-1.066-1.067-1.066h-3.462l-8.27-28.95V25.6H52.05l9.065 3.844c-1.13 5.721-3.266 9.004-4.441 10.444l-3.341-5.01V28.8a1.067 1.067 0 0 0-2.133 0v6.4c0 .21.063.417.18.592L55 42h3c1.445-1.455 6-7.351 6-20.668C64 6.075 57.493.477 57.216.247zm-3.883 7.542l3.34-5.01c1.177 1.442 3.311 4.725 4.442 10.444l-7.782 3.3V7.788zM19.548 59.733l3.484-12.2 6.982 4.443-7.44 4.734a1.068 1.068 0 0 0 1.145 1.8L32 53.24l10.203 6.493H19.548zm24.521-1.343L23.645 45.394l2.428-8.503 3.99 2.636-3.985 2.631a1.067 1.067 0 0 0 1.176 1.78L32 40.805l7.639 5.045-5.034 3.204a1.067 1.067 0 0 0 1.146 1.8l5.216-3.32L44.07 58.39zm-4.287-15.003l-13.094-8.648 1.004-3.513c.028-.096.041-.194.041-.293v-5.334h8.533v5.334c0 .1.014.197.042.293l1.004 3.513-2.662 1.76a1.066 1.066 0 0 0 1.175 1.78l2.101-1.388 1.856 6.496zm13.55-19.561v-1.427a1.067 1.067 0 0 0-2.132 0v1.067H4.266a2.136 2.136 0 0 1-2.133-2.134c0-1.176.957-2.133 2.133-2.133h48c.148 0 .288-.03.416-.084l8.794-3.727c.242 1.78.39 3.75.39 5.944a44.01 44.01 0 0 1-.39 5.945l-8.143-3.451z" fill="#31A3DC"/><path d="M2 40h11v-5h-1a1 1 0 0 1 0-2h2a1 1 0 0 1 1 1v7a1 1 0 0 1-1 1H1a1 1 0 0 1-1-1v-8a1 1 0 0 1 1-1h5v-7h2v8a1 1 0 0 1-1 1H2v6zm53 2h3v14.5a1.5 1.5 0 0 1-3 0V42z" fill="#00973A"/></g></svg>