<svg width="64" height="64" viewBox="0 0 64 64" xmlns="http://www.w3.org/2000/svg"><title>02</title><g fill="none" fill-rule="evenodd"><path d="M11.693 48.876c-4.103 0-7.44 3.338-7.44 7.441 0 4.104 3.337 7.441 7.44 7.441a7.448 7.448 0 0 0 7.441-7.441c0-4.103-3.337-7.44-7.44-7.44zm0 12.756a5.321 5.321 0 0 1-5.315-5.315 5.321 5.321 0 0 1 5.315-5.315 5.321 5.321 0 0 1 5.316 5.315 5.321 5.321 0 0 1-5.316 5.315zm.032-6.378h-.01c-.587 0-1.058.476-1.058 1.063a1.067 1.067 0 0 0 2.131 0c0-.587-.476-1.063-1.063-1.063zM63.341 1.42c.909 1.575.417 3.464-1.14 4.395l-8.565 4.39a.978.978 0 0 1-.102.043 3.106 3.106 0 0 1-1.446.358H50.98l-2.082 47.882c.002 2.885-2.383 5.27-5.313 5.27H20.198a1.064 1.064 0 0 1 0-2.126h23.386a3.193 3.193 0 0 0 3.19-3.19L48.9 9.499c.004-.059.03-.107.042-.163.016-.08.025-.159.058-.23.016-.036.045-.064.065-.097.052-.087.106-.17.18-.239.01-.008.022-.013.03-.021a1.05 1.05 0 0 1 .316-.192c.024-.01.051-.007.077-.016.095-.027.19-.06.294-.06h2.127c.168 0 .337-.046.506-.137a.966.966 0 0 1 .147-.067l8.429-4.32c.63-.378.58-1.034.328-1.472-.121-.21-.372-.65-1.503-.096L51.98 6.25c-.142.068-.3.105-.46.105H3.19c-.587 0-1.064.477-1.064 1.062 0 .586.477 1.064 1.063 1.064H45.71a1.063 1.063 0 1 1 0 2.126H6.425l1.569 36.097a1.062 1.062 0 0 1-1.015 1.108H6.93a1.063 1.063 0 0 1-1.061-1.016l-1.573-36.19H3.189A3.193 3.193 0 0 1 0 7.418c0-1.758 1.43-3.19 3.19-3.19h48.087L59.069.476c2.141-1.048 3.61-.2 4.272.945z" fill="#31A3DC"/><path d="M12 41.169c-.524-.926-.373-2.16.421-3.473l3.926-6.856-1.809.52a1.063 1.063 0 1 1-.587-2.042l4.327-1.247h.008c.081-.024.167-.02.252-.022.054-.002.106-.018.158-.012.043.004.083.03.126.04.09.023.183.04.266.086.002.002.003.004.006.005l.007.002c.05.028.082.075.125.11.064.052.133.097.183.16.056.073.088.158.123.241.019.043.05.077.063.121l1.236 4.356a1.064 1.064 0 0 1-2.045.58l-.546-1.925-3.987 6.96c-.442.733-.48 1.214-.401 1.351.047.086.324.248 1.023.248h10.63a1.063 1.063 0 0 1 0 2.126h-10.63c-1.757 0-2.534-.723-2.876-1.33zm31.26.023c-.346.595-1.126 1.306-2.873 1.306h-8.063l1.374 1.374a1.063 1.063 0 1 1-1.503 1.504l-3.188-3.19a1.069 1.069 0 0 1-.23-1.157c.053-.13.131-.248.23-.346l3.188-3.189a1.062 1.062 0 1 1 1.503 1.503l-1.374 1.375h8.063c.704 0 .985-.163 1.035-.249.08-.136.051-.623-.364-1.352l-5.268-9.16a1.064 1.064 0 0 1 1.843-1.062l5.27 9.167c.76 1.334.885 2.568.356 3.476zm-7.171-21.171c.566.158.896.744.739 1.31l-1.209 4.336-.002.006-.001.005a1.042 1.042 0 0 1-.167.338c-.02.028-.047.047-.07.072a1.032 1.032 0 0 1-.218.19c-.015.012-.024.028-.04.036-.022.013-.05.013-.073.026a1.129 1.129 0 0 1-.248.082c-.046.009-.089.02-.136.022-.023.002-.047.012-.071.012a1.06 1.06 0 0 1-.277-.036l-4.313-1.158a1.064 1.064 0 0 1 .552-2.054l1.838.494-3.557-6.187c-.031-.05-.357-.53-1.205-.53-.864 0-1.16.455-1.191.506l-4.832 8.44a1.064 1.064 0 0 1-1.845-1.059l4.82-8.416c.278-.56 1.271-1.598 3.048-1.598 1.717 0 2.73 1.017 3.06 1.617l3.559 6.189.53-1.904a1.064 1.064 0 0 1 1.309-.74z" fill="#00973A"/></g></svg>