<svg width="64" height="64" viewBox="0 0 64 64" xmlns="http://www.w3.org/2000/svg"><title>02</title><g fill="none" fill-rule="evenodd"><path d="M63.264 8.135L52.597 2.804a1.334 1.334 0 0 0-1.193 2.385l9.93 4.959v50.495L44 53.715V42.628a1.333 1.333 0 1 0-2.667 0v11.065l-18.666 6.994V42.628a1.333 1.333 0 1 0-2.667 0v18.013L2.667 53.715V3.039l9.01 2.25a1.332 1.332 0 1 0 .647-2.585L1.657.04A1.333 1.333 0 0 0 0 1.332v53.285c0 .546.333 1.035.839 1.238l20 7.993c.016.007.03.004.046.01.143.05.294.085.448.085a1.3 1.3 0 0 0 .43-.078c.013-.005.026-.002.04-.006l20.85-7.812 19.519 7.801a1.338 1.338 0 0 0 1.243-.135c.365-.248.585-.661.585-1.104V9.325a1.33 1.33 0 0 0-.736-1.19" fill="#31A3DC"/><path d="M32 2.664c8.088 0 14.667 6.612 14.667 14.74 0 11.535-11.471 22.108-14.667 24.83-3.197-2.72-14.667-13.277-14.667-24.83 0-8.128 6.58-14.74 14.667-14.74m-.816 42.35c.24.185.53.28.816.28.288 0 .577-.095.817-.28.675-.523 16.516-12.963 16.516-27.61C49.333 7.808 41.557 0 32 0c-9.556 0-17.333 7.808-17.333 17.404 0 14.647 15.842 27.087 16.517 27.61M40 17.316c0 4.407-3.588 7.992-8 7.992-4.41 0-8-3.585-8-7.992 0-4.406 3.59-7.992 8-7.992 4.412 0 8 3.586 8 7.992zm-13.333 0A5.337 5.337 0 0 0 32 22.647a5.336 5.336 0 0 0 5.333-5.33A5.335 5.335 0 0 0 32 11.991a5.336 5.336 0 0 0-5.333 5.326z" fill="#00973A"/></g></svg>