<svg width="64" height="64" viewBox="0 0 64 64" xmlns="http://www.w3.org/2000/svg"><title>01</title><g fill="none" fill-rule="evenodd"><path d="M35.605 37.909l-3.69-2.721a1.335 1.335 0 0 0-1.504-.056 14.606 14.606 0 0 1-4.509 1.877 1.337 1.337 0 0 0-1.026 1.127l-.596 4.51-3.225.011-.693-4.536a1.336 1.336 0 0 0-1.025-1.1 14.524 14.524 0 0 1-4.48-1.848 1.335 1.335 0 0 0-1.513.07l-3.63 2.747-2.308-2.294 2.7-3.705a1.336 1.336 0 0 0 .05-1.496 14.577 14.577 0 0 1-1.887-4.572A1.335 1.335 0 0 0 7.13 24.89l-4.442-.555-.013-3.23 4.513-.681c.544-.081.98-.487 1.103-1.021a14.56 14.56 0 0 1 1.914-4.567 1.333 1.333 0 0 0-.073-1.54L7.345 9.72l2.259-2.281 3.646 2.781c.444.34 1.053.366 1.524.068a14.662 14.662 0 0 1 4.551-1.894 1.334 1.334 0 0 0 1.026-1.131l.589-4.578 3.218-.01.667 4.604c.08.546.487.988 1.026 1.11 1.577.358 3.08.975 4.47 1.838a1.337 1.337 0 0 0 1.516-.072l3.676-2.807 2.288 2.28-2.76 3.676a1.337 1.337 0 0 0-.06 1.52 14.541 14.541 0 0 1 1.916 4.557c.126.541.575.95 1.128 1.021l4.509.592.009 3.242-4.528.699c-.543.082-.978.49-1.1 1.025a14.555 14.555 0 0 1-1.857 4.504 1.336 1.336 0 0 0 .07 1.516l2.759 3.626-2.282 2.304zm5.11-2.997l-2.92-3.837a17.208 17.208 0 0 0 1.5-3.637l4.791-.739a1.334 1.334 0 0 0 1.132-1.323l-.017-5.559a1.335 1.335 0 0 0-1.163-1.319l-4.775-.628a17.24 17.24 0 0 0-1.546-3.681l2.919-3.886c.4-.532.346-1.278-.126-1.748l-3.94-3.924a1.332 1.332 0 0 0-1.752-.115l-3.892 2.971a17.208 17.208 0 0 0-3.585-1.475l-.706-4.868C26.542.487 25.975.03 25.31 0l-5.55.016a1.336 1.336 0 0 0-1.322 1.165l-.621 4.843a17.283 17.283 0 0 0-3.664 1.524L10.29 4.603a1.34 1.34 0 0 0-1.759.121L4.62 8.674a1.336 1.336 0 0 0-.105 1.761l2.95 3.783a17.219 17.219 0 0 0-1.547 3.696l-4.78.723A1.335 1.335 0 0 0 0 19.963l.02 5.557a1.334 1.334 0 0 0 1.17 1.32l4.705.587a17.277 17.277 0 0 0 1.533 3.702l-2.855 3.919a1.333 1.333 0 0 0 .138 1.732l3.94 3.923a1.34 1.34 0 0 0 1.749.118l3.845-2.91a17.145 17.145 0 0 0 3.61 1.487l.732 4.8c.1.654.662 1.136 1.321 1.136h.004l5.543-.02a1.333 1.333 0 0 0 1.32-1.16l.632-4.776a17.302 17.302 0 0 0 3.633-1.514l3.908 2.88a1.336 1.336 0 0 0 1.743-.135l3.911-3.95a1.336 1.336 0 0 0 .114-1.747zm-18.107-6.845c-2.934 0-5.318-2.395-5.318-5.338 0-2.942 2.384-5.335 5.318-5.335 2.932 0 5.318 2.393 5.318 5.335 0 2.943-2.386 5.338-5.318 5.338zm0-13.345c-4.406 0-7.991 3.592-7.991 8.007 0 4.415 3.585 8.009 7.99 8.009 4.407 0 7.99-3.594 7.99-8.009 0-4.415-3.583-8.007-7.99-8.007z" fill="#31A3DC"/><path d="M62.488 49.151l-1.79-.787a.858.858 0 0 1-.294-.316 1.517 1.517 0 0 0-.043-.17l-.134-.423c-.251-.841-.518-1.352-.54-1.393a.687.687 0 0 1 .018-.396l.72-1.14c.64-1.014.465-2.394-.405-3.21l-1.763-1.65c-.832-.78-2.29-.88-3.239-.197l-1.344.987c-.055.039-.258.121-.584.11a1.236 1.236 0 0 0-.14-.031l-1.481-.266a.787.787 0 0 1-.383-.256l-.657-1.261c-.54-1.032-1.858-1.591-2.985-1.251l-2.316.705c-1.146.352-1.91 1.515-1.777 2.703l.182 1.66c.013.139-.109.464-.282.642l-.766.858c-.08.096-.353.226-.472.227l-1.64-.067c-1.151 0-2.215.844-2.473 1.96l-.55 2.36c-.264 1.169.36 2.413 1.453 2.894l1.37.603a.8.8 0 0 1 .27.347s.025.257.255.992c.204.682.272.824.29.864a.786.786 0 0 1-.031.454l-.783 1.238c-.637.99-.461 2.404.403 3.221l1.764 1.652c.836.786 2.323.86 3.23.191l1.156-.845a.898.898 0 0 1 .39-.083l1.75.41c.13.026.401.22.463.329l.95 1.823c.43.828 1.326 1.361 2.283 1.361.246 0 .484-.035.703-.101l2.305-.704c1.131-.342 1.918-1.532 1.788-2.71l-.226-2.027c-.01-.13.103-.425.194-.516.036-.032.07-.065.102-.101l1.105-1.225c.013-.014.079-.096.088-.111a.867.867 0 0 1 .444-.215l1.842.078c1.15 0 2.218-.842 2.484-1.963l.547-2.358c.266-1.17-.357-2.416-1.451-2.896zm-1.672 4.54l-1.749-.07c-.947 0-1.985.51-2.557 1.25l-1.026 1.138c-.689.659-1.109 1.796-1.006 2.741l.214 1.92-2.092.638-.905-1.736c-.455-.858-1.477-1.584-2.31-1.702l-1.272-.308a3.05 3.05 0 0 0-.997-.156c-.74 0-1.462.222-1.97.6l-1.065.778-1.598-1.496.729-1.154c.544-.855.622-2.13.223-2.95-.016-.046-.067-.19-.183-.58a7.391 7.391 0 0 1-.165-.583c-.144-1-.92-2.02-1.839-2.42l-1.27-.558.498-2.139 1.532.062c.963 0 2.036-.528 2.535-1.196l.619-.697c.7-.662 1.133-1.836 1.027-2.794l-.171-1.552 2.096-.64.6 1.154c.463.898 1.528 1.608 2.401 1.672l1.298.238c.89.232 2.116-.004 2.846-.546l1.25-.916 1.602 1.5-.66 1.044c-.555.868-.61 2.157-.135 3.06.003.005.177.343.359.949l.119.377c.202.9.958 1.81 1.831 2.19l1.685.742-.494 2.14zm-10.174-8.28a5.341 5.341 0 0 0-5.336 5.335 5.34 5.34 0 0 0 5.336 5.334 5.34 5.34 0 0 0 5.336-5.334 5.341 5.341 0 0 0-5.336-5.335zm0 7.999a2.667 2.667 0 0 1-2.665-2.664 2.667 2.667 0 0 1 2.665-2.663 2.667 2.667 0 0 1 2.664 2.663 2.667 2.667 0 0 1-2.664 2.664z" fill="#00973A"/></g></svg>