<svg width="64" height="64" viewBox="0 0 64 64" xmlns="http://www.w3.org/2000/svg" xmlns:xlink="http://www.w3.org/1999/xlink"><title>01</title><defs><path d="M9.405 62v-9.643c4.17-.484 7.466-4.072 7.466-8.338 0-4.363-6.884-13.962-7.66-15.029a1.01 1.01 0 0 0-1.551 0C6.884 29.96 0 39.656 0 43.922c0 4.363 3.297 7.95 7.466 8.338V62h1.939zm-.97-18.272c-.581 0-.97.388-.97.97v5.72c-3.102-.485-5.526-3.2-5.526-6.496 0-2.812 4.17-9.405 6.496-12.798 2.327 3.393 6.497 10.083 6.497 12.798 0 3.297-2.424 5.914-5.527 6.4v-5.624c0-.582-.388-.97-.97-.97z" id="a"/></defs><g fill="none"><path d="M63.023 25.597H38.589V.97c0-.582-.387-.97-.97-.97H3.976c-.581 0-.97.388-.97.97v27.05c0 .583.389.97.97.97.582 0 .97-.387.97-.97V1.94H36.65v54.199H7.466v5.817l-6.496.097c-.582 0-.97.388-.97.97 0 .581.388.97.97.97h62.053c.582 0 .97-.389.97-.97V26.567c0-.582-.388-.97-.97-.97zM9.405 62.053v-3.975H36.65v3.975H9.405zm44.31 0h-6.787V47.22h6.787v14.834zm1.939 0V46.25c0-.582-.388-.97-.97-.97h-8.726c-.582 0-.97.388-.97.97v15.804H38.59V27.536h23.464v34.517h-6.399zm-45.57-47.315h7.465c.582 0 .97-.388.97-.97v-7.66c0-.581-.388-.97-.97-.97h-7.465c-.582 0-.97.389-.97.97v7.66c0 .582.485.97.97.97zm.97-7.66h5.526v5.72h-5.527v-5.72zm12.895 7.66h7.465c.582 0 .97-.388.97-.97v-7.66c0-.581-.388-.97-.97-.97H23.95c-.582 0-.97.389-.97.97v7.66c0 .582.485.97.97.97zm.97-7.66h5.526v5.72h-5.527v-5.72zM10.083 27.439h7.465c.582 0 .97-.388.97-.97v-7.66c0-.58-.388-.969-.97-.969h-7.465c-.582 0-.97.388-.97.97v7.66c0 .581.388.97.97.97zm.97-7.563h5.526v5.721h-5.527v-5.72zm11.925 6.594c0 .581.388.97.97.97h7.465c.582 0 .97-.389.97-.97v-7.66c0-.582-.388-.97-.97-.97H23.95c-.582 0-.97.388-.97.97v7.66zm1.94-6.594h5.526v5.721h-5.527v-5.72zm-1.94 19.101c0 .582.388.97.97.97h7.465c.582 0 .97-.388.97-.97v-7.66c0-.581-.388-.969-.97-.969H23.95c-.582 0-.97.388-.97.97v7.66zm1.94-6.69h5.526v5.72h-5.527v-5.72zm-1.94 19.198c0 .582.388.97.97.97h7.465c.582 0 .97-.388.97-.97v-7.66c0-.582-.388-.97-.97-.97H23.95c-.582 0-.97.389-.97.97v7.66zm1.94-6.69h5.526v5.72h-5.527v-5.72zm17.258-5.527h6.302c.582 0 .97-.388.97-.97v-6.302c0-.582-.388-.97-.97-.97h-6.302c-.582 0-.97.389-.97.97V38.3c0 .581.485.97.97.97zm.97-6.302h4.363v4.363h-4.364v-4.363zm9.21 6.302h6.303c.581 0 .97-.388.97-.97v-6.302c0-.582-.389-.97-.97-.97h-6.303c-.581 0-.97.389-.97.97V38.3c0 .581.389.97.97.97zm.97-6.302h4.363v4.363h-4.363v-4.363z" fill="#31A3DC"/><use fill="#00973A" xlink:href="#a"/></g></svg>