<?xml version="1.0" encoding="UTF-8"?>
<svg width="48px" height="64px" viewBox="0 0 48 64" version="1.1" xmlns="http://www.w3.org/2000/svg" xmlns:xlink="http://www.w3.org/1999/xlink">
    <!-- Generator: Sketch 49.3 (51167) - http://www.bohemiancoding.com/sketch -->
    <title>Artboard</title>
    <desc>Created with Sketch.</desc>
    <defs></defs>
    <g id="3-подход" stroke="none" stroke-width="1" fill="none" fill-rule="evenodd">
        <g id="Artboard" fill="#31A3DC">
            <path d="M30.6493333,17.3053333 L30.6493333,4.54533333 L43.424,17.3053333 L30.6493333,17.3053333 Z M30.26,0.390666667 C30.1426667,0.276 30.012,0.196 29.8746667,0.132 C29.6386667,0.048 29.5186667,0.024 29.3946667,0.0173333333 C29.3768889,0.0155555556 20.484,0.00977777778 2.716,0 C1.21733333,0 0,1.21733333 0,2.71333333 L0,61.188 C0,62.6826667 1.21733333,63.9 2.716,63.9 L45.2733333,63.9 C46.7626667,63.9 47.9746667,62.688 47.9746667,61.2013333 L47.9746667,34 L45.308,34 L45.2733333,61.2373333 L2.66533333,61.188 L2.66666667,2.58 L27.984,2.58 L27.984,18.6373333 C27.984,19.3733333 28.5973333,19.9133333 29.3333333,19.9133333 L45.308,19.9133333 L45.308,34 L47.9746667,34 L47.9746667,18.7693333 C48.0013333,18.1893333 47.7786667,17.792 47.4386667,17.5506667 L30.26,0.390666667 Z" id="Fill-1-Copy"></path>
        </g>
    </g>
</svg>