<?xml version="1.0" encoding="UTF-8"?>
<svg width="114px" height="114px" viewBox="0 0 114 114" version="1.1" xmlns="http://www.w3.org/2000/svg" xmlns:xlink="http://www.w3.org/1999/xlink">
    <!-- Generator: Sketch 49.3 (51167) - http://www.bohemiancoding.com/sketch -->
    <title>Artboard</title>
    <desc>Created with Sketch.</desc>
    <defs>
        <linearGradient x1="49.9990529%" y1="102.593201%" x2="49.9990529%" y2="1.80817664%" id="linearGradient-1">
            <stop stop-color="#F9F5EA" offset="39%"></stop>
            <stop stop-color="#FFFFFF" offset="100%"></stop>
        </linearGradient>
        <linearGradient x1="52.3049645%" y1="170.25%" x2="44.7990544%" y2="-115.375%" id="linearGradient-2">
            <stop stop-color="#155D93" offset="69%"></stop>
            <stop stop-color="#4E85AD" offset="75%"></stop>
            <stop stop-color="#99B8D0" offset="84%"></stop>
            <stop stop-color="#D0DFE9" offset="92%"></stop>
            <stop stop-color="#F2F6F9" offset="97%"></stop>
            <stop stop-color="#FFFFFF" offset="100%"></stop>
        </linearGradient>
        <linearGradient x1="13138%" y1="1039.50515%" x2="13011%" y2="342.780073%" id="linearGradient-3">
            <stop stop-color="#155D93" offset="69%"></stop>
            <stop stop-color="#4E85AD" offset="75%"></stop>
            <stop stop-color="#99B8D0" offset="84%"></stop>
            <stop stop-color="#D0DFE9" offset="92%"></stop>
            <stop stop-color="#F2F6F9" offset="97%"></stop>
            <stop stop-color="#FFFFFF" offset="100%"></stop>
        </linearGradient>
        <linearGradient x1="6393.95153%" y1="6671%" x2="6297.17293%" y2="2102%" id="linearGradient-4">
            <stop stop-color="#155D93" offset="69%"></stop>
            <stop stop-color="#4E85AD" offset="75%"></stop>
            <stop stop-color="#99B8D0" offset="84%"></stop>
            <stop stop-color="#D0DFE9" offset="92%"></stop>
            <stop stop-color="#F2F6F9" offset="97%"></stop>
            <stop stop-color="#FFFFFF" offset="100%"></stop>
        </linearGradient>
        <linearGradient x1="4575.42577%" y1="6680%" x2="4503.80844%" y2="2111%" id="linearGradient-5">
            <stop stop-color="#155D93" offset="69%"></stop>
            <stop stop-color="#4E85AD" offset="75%"></stop>
            <stop stop-color="#99B8D0" offset="84%"></stop>
            <stop stop-color="#D0DFE9" offset="92%"></stop>
            <stop stop-color="#F2F6F9" offset="97%"></stop>
            <stop stop-color="#FFFFFF" offset="100%"></stop>
        </linearGradient>
        <linearGradient x1="647.733584%" y1="6680%" x2="638.252859%" y2="2111%" id="linearGradient-6">
            <stop stop-color="#155D93" offset="69%"></stop>
            <stop stop-color="#4E85AD" offset="75%"></stop>
            <stop stop-color="#99B8D0" offset="84%"></stop>
            <stop stop-color="#D0DFE9" offset="92%"></stop>
            <stop stop-color="#F2F6F9" offset="97%"></stop>
            <stop stop-color="#FFFFFF" offset="100%"></stop>
        </linearGradient>
        <linearGradient x1="7527%" y1="6695%" x2="7400%" y2="2126%" id="linearGradient-7">
            <stop stop-color="#155D93" offset="69%"></stop>
            <stop stop-color="#4E85AD" offset="75%"></stop>
            <stop stop-color="#99B8D0" offset="84%"></stop>
            <stop stop-color="#D0DFE9" offset="92%"></stop>
            <stop stop-color="#F2F6F9" offset="97%"></stop>
            <stop stop-color="#FFFFFF" offset="100%"></stop>
        </linearGradient>
        <linearGradient x1="1566.74973%" y1="6641%" x2="1546.26619%" y2="2072%" id="linearGradient-8">
            <stop stop-color="#155D93" offset="69%"></stop>
            <stop stop-color="#4E85AD" offset="75%"></stop>
            <stop stop-color="#99B8D0" offset="84%"></stop>
            <stop stop-color="#D0DFE9" offset="92%"></stop>
            <stop stop-color="#F2F6F9" offset="97%"></stop>
            <stop stop-color="#FFFFFF" offset="100%"></stop>
        </linearGradient>
        <linearGradient x1="9378%" y1="6644%" x2="9251%" y2="2074%" id="linearGradient-9">
            <stop stop-color="#155D93" offset="69%"></stop>
            <stop stop-color="#4E85AD" offset="75%"></stop>
            <stop stop-color="#99B8D0" offset="84%"></stop>
            <stop stop-color="#D0DFE9" offset="92%"></stop>
            <stop stop-color="#F2F6F9" offset="97%"></stop>
            <stop stop-color="#FFFFFF" offset="100%"></stop>
        </linearGradient>
        <linearGradient x1="104.549663%" y1="6690%" x2="103.652371%" y2="2121%" id="linearGradient-10">
            <stop stop-color="#155D93" offset="69%"></stop>
            <stop stop-color="#4E85AD" offset="75%"></stop>
            <stop stop-color="#99B8D0" offset="84%"></stop>
            <stop stop-color="#D0DFE9" offset="92%"></stop>
            <stop stop-color="#F2F6F9" offset="97%"></stop>
            <stop stop-color="#FFFFFF" offset="100%"></stop>
        </linearGradient>
        <linearGradient x1="2135.08344%" y1="6521%" x2="2107.45603%" y2="2119%" id="linearGradient-11">
            <stop stop-color="#155D93" offset="69%"></stop>
            <stop stop-color="#4E85AD" offset="75%"></stop>
            <stop stop-color="#99B8D0" offset="84%"></stop>
            <stop stop-color="#D0DFE9" offset="92%"></stop>
            <stop stop-color="#F2F6F9" offset="97%"></stop>
            <stop stop-color="#FFFFFF" offset="100%"></stop>
        </linearGradient>
        <linearGradient x1="1016.47501%" y1="6488%" x2="1003.80233%" y2="2146%" id="linearGradient-12">
            <stop stop-color="#155D93" offset="69%"></stop>
            <stop stop-color="#4E85AD" offset="75%"></stop>
            <stop stop-color="#99B8D0" offset="84%"></stop>
            <stop stop-color="#D0DFE9" offset="92%"></stop>
            <stop stop-color="#F2F6F9" offset="97%"></stop>
            <stop stop-color="#FFFFFF" offset="100%"></stop>
        </linearGradient>
        <linearGradient x1="4649.21815%" y1="4219%" x2="4648.88403%" y2="4186%" id="linearGradient-13">
            <stop stop-color="#155D93" offset="69%"></stop>
            <stop stop-color="#4E85AD" offset="75%"></stop>
            <stop stop-color="#99B8D0" offset="84%"></stop>
            <stop stop-color="#D0DFE9" offset="92%"></stop>
            <stop stop-color="#F2F6F9" offset="97%"></stop>
            <stop stop-color="#FFFFFF" offset="100%"></stop>
        </linearGradient>
        <linearGradient x1="207.365128%" y1="5396%" x2="207.343471%" y2="5332%" id="linearGradient-14">
            <stop stop-color="#155D93" offset="69%"></stop>
            <stop stop-color="#4E85AD" offset="75%"></stop>
            <stop stop-color="#99B8D0" offset="84%"></stop>
            <stop stop-color="#D0DFE9" offset="92%"></stop>
            <stop stop-color="#F2F6F9" offset="97%"></stop>
            <stop stop-color="#FFFFFF" offset="100%"></stop>
        </linearGradient>
        <linearGradient x1="4560.34628%" y1="3268%" x2="4559.64602%" y2="3203%" id="linearGradient-15">
            <stop stop-color="#155D93" offset="69%"></stop>
            <stop stop-color="#4E85AD" offset="75%"></stop>
            <stop stop-color="#99B8D0" offset="84%"></stop>
            <stop stop-color="#D0DFE9" offset="92%"></stop>
            <stop stop-color="#F2F6F9" offset="97%"></stop>
            <stop stop-color="#FFFFFF" offset="100%"></stop>
        </linearGradient>
        <linearGradient x1="98.8929647%" y1="5604%" x2="98.8827411%" y2="5496%" id="linearGradient-16">
            <stop stop-color="#155D93" offset="69%"></stop>
            <stop stop-color="#4E85AD" offset="75%"></stop>
            <stop stop-color="#99B8D0" offset="84%"></stop>
            <stop stop-color="#D0DFE9" offset="92%"></stop>
            <stop stop-color="#F2F6F9" offset="97%"></stop>
            <stop stop-color="#FFFFFF" offset="100%"></stop>
        </linearGradient>
        <linearGradient x1="1113.20065%" y1="5190%" x2="1113.12799%" y2="5149%" id="linearGradient-17">
            <stop stop-color="#155D93" offset="69%"></stop>
            <stop stop-color="#4E85AD" offset="75%"></stop>
            <stop stop-color="#99B8D0" offset="84%"></stop>
            <stop stop-color="#D0DFE9" offset="92%"></stop>
            <stop stop-color="#F2F6F9" offset="97%"></stop>
            <stop stop-color="#FFFFFF" offset="100%"></stop>
        </linearGradient>
        <linearGradient x1="4637.80457%" y1="4992%" x2="4637.48895%" y2="4962%" id="linearGradient-18">
            <stop stop-color="#155D93" offset="69%"></stop>
            <stop stop-color="#4E85AD" offset="75%"></stop>
            <stop stop-color="#99B8D0" offset="84%"></stop>
            <stop stop-color="#D0DFE9" offset="92%"></stop>
            <stop stop-color="#F2F6F9" offset="97%"></stop>
            <stop stop-color="#FFFFFF" offset="100%"></stop>
        </linearGradient>
        <linearGradient x1="630.569353%" y1="3659%" x2="630.480336%" y2="3582%" id="linearGradient-19">
            <stop stop-color="#155D93" offset="69%"></stop>
            <stop stop-color="#4E85AD" offset="75%"></stop>
            <stop stop-color="#99B8D0" offset="84%"></stop>
            <stop stop-color="#D0DFE9" offset="92%"></stop>
            <stop stop-color="#F2F6F9" offset="97%"></stop>
            <stop stop-color="#FFFFFF" offset="100%"></stop>
        </linearGradient>
        <linearGradient x1="4532.42833%" y1="4025%" x2="4532.09803%" y2="3992%" id="linearGradient-20">
            <stop stop-color="#155D93" offset="69%"></stop>
            <stop stop-color="#4E85AD" offset="75%"></stop>
            <stop stop-color="#99B8D0" offset="84%"></stop>
            <stop stop-color="#D0DFE9" offset="92%"></stop>
            <stop stop-color="#F2F6F9" offset="97%"></stop>
            <stop stop-color="#FFFFFF" offset="100%"></stop>
        </linearGradient>
        <linearGradient x1="89.7206329%" y1="5802%" x2="89.7123836%" y2="5684%" id="linearGradient-21">
            <stop stop-color="#155D93" offset="69%"></stop>
            <stop stop-color="#4E85AD" offset="75%"></stop>
            <stop stop-color="#99B8D0" offset="84%"></stop>
            <stop stop-color="#D0DFE9" offset="92%"></stop>
            <stop stop-color="#F2F6F9" offset="97%"></stop>
            <stop stop-color="#FFFFFF" offset="100%"></stop>
        </linearGradient>
        <linearGradient x1="2236.72655%" y1="3833%" x2="2236.56264%" y2="3796%" id="linearGradient-22">
            <stop stop-color="#155D93" offset="69%"></stop>
            <stop stop-color="#4E85AD" offset="75%"></stop>
            <stop stop-color="#99B8D0" offset="84%"></stop>
            <stop stop-color="#D0DFE9" offset="92%"></stop>
            <stop stop-color="#F2F6F9" offset="97%"></stop>
            <stop stop-color="#FFFFFF" offset="100%"></stop>
        </linearGradient>
        <linearGradient x1="1977.07324%" y1="3461%" x2="1976.77509%" y2="3395%" id="linearGradient-23">
            <stop stop-color="#155D93" offset="69%"></stop>
            <stop stop-color="#4E85AD" offset="75%"></stop>
            <stop stop-color="#99B8D0" offset="84%"></stop>
            <stop stop-color="#D0DFE9" offset="92%"></stop>
            <stop stop-color="#F2F6F9" offset="97%"></stop>
            <stop stop-color="#FFFFFF" offset="100%"></stop>
        </linearGradient>
        <linearGradient x1="56.0282151%" y1="27.8362469%" x2="40.5648514%" y2="94.3631823%" id="linearGradient-24">
            <stop stop-color="#044077" offset="5%"></stop>
            <stop stop-color="#155D93" offset="76%"></stop>
        </linearGradient>
        <linearGradient x1="50%" y1="106.466011%" x2="50%" y2="-10.0500395%" id="linearGradient-25">
            <stop stop-color="#43AADD" offset="73%"></stop>
            <stop stop-color="#99D1EC" offset="85%"></stop>
            <stop stop-color="#E2F2FA" offset="95%"></stop>
            <stop stop-color="#FFFFFF" offset="100%"></stop>
        </linearGradient>
        <linearGradient x1="11068%" y1="22054%" x2="11068%" y2="-1896%" id="linearGradient-26">
            <stop stop-color="#43AADD" offset="73%"></stop>
            <stop stop-color="#99D1EC" offset="85%"></stop>
            <stop stop-color="#E2F2FA" offset="95%"></stop>
            <stop stop-color="#FFFFFF" offset="100%"></stop>
        </linearGradient>
        <linearGradient x1="11068%" y1="22350%" x2="11068%" y2="-2227%" id="linearGradient-27">
            <stop stop-color="#43AADD" offset="73%"></stop>
            <stop stop-color="#99D1EC" offset="85%"></stop>
            <stop stop-color="#E2F2FA" offset="95%"></stop>
            <stop stop-color="#FFFFFF" offset="100%"></stop>
        </linearGradient>
        <linearGradient x1="50%" y1="247.566126%" x2="50%" y2="11.2691709%" id="linearGradient-28">
            <stop stop-color="#155D93" offset="54%"></stop>
            <stop stop-color="#246481" offset="68%"></stop>
            <stop stop-color="#447258" offset="100%"></stop>
        </linearGradient>
        <linearGradient x1="10416%" y1="20283%" x2="10416%" y2="9283%" id="linearGradient-29">
            <stop stop-color="#155D93" offset="54%"></stop>
            <stop stop-color="#246481" offset="68%"></stop>
            <stop stop-color="#447258" offset="100%"></stop>
        </linearGradient>
        <linearGradient x1="5752%" y1="20283%" x2="5752%" y2="9283%" id="linearGradient-30">
            <stop stop-color="#155D93" offset="54%"></stop>
            <stop stop-color="#246481" offset="68%"></stop>
            <stop stop-color="#447258" offset="100%"></stop>
        </linearGradient>
        <linearGradient x1="6809%" y1="20283%" x2="6809%" y2="9283%" id="linearGradient-31">
            <stop stop-color="#155D93" offset="54%"></stop>
            <stop stop-color="#246481" offset="68%"></stop>
            <stop stop-color="#447258" offset="100%"></stop>
        </linearGradient>
        <linearGradient x1="8364%" y1="20283%" x2="8364%" y2="9283%" id="linearGradient-32">
            <stop stop-color="#155D93" offset="54%"></stop>
            <stop stop-color="#246481" offset="68%"></stop>
            <stop stop-color="#447258" offset="100%"></stop>
        </linearGradient>
        <linearGradient x1="5.73245275%" y1="11.7525773%" x2="94.6144221%" y2="81.8281787%" id="linearGradient-33">
            <stop stop-color="#155D93" offset="24%"></stop>
            <stop stop-color="#FFFFFF" offset="100%"></stop>
        </linearGradient>
        <linearGradient x1="1814.26606%" y1="2427%" x2="1810.90098%" y2="1684%" id="linearGradient-34">
            <stop stop-color="#155D93" offset="69%"></stop>
            <stop stop-color="#4E85AD" offset="75%"></stop>
            <stop stop-color="#99B8D0" offset="84%"></stop>
            <stop stop-color="#D0DFE9" offset="92%"></stop>
            <stop stop-color="#F2F6F9" offset="97%"></stop>
            <stop stop-color="#FFFFFF" offset="100%"></stop>
        </linearGradient>
    </defs>
    <g id="3-подход" stroke="none" stroke-width="1" fill="none" fill-rule="evenodd">
        <g id="Artboard">
            <g id="Logotype">
                <path d="M56.9693274,111.955157 C55.9068171,111.958898 54.886984,111.537343 54.1372197,110.784484 L2.73497758,59.3720179 C1.17793961,57.8049572 1.17793961,55.2748634 2.73497758,53.7078027 L54.1372197,2.30556054 C55.7197393,0.786475945 58.2189154,0.786475945 59.801435,2.30556054 L111.203677,53.7078027 C112.763514,55.2737084 112.763514,57.8061122 111.203677,59.3720179 L59.8116592,110.77426 C59.0601164,111.531944 58.0365189,111.957216 56.9693274,111.955157 Z" id="Shape" fill="url(#linearGradient-1)" fill-rule="nonzero"></path>
                <path d="M43.1359641,39.0973991 C40.1913901,38.8008969 35.1764126,37.7580269 35.1764126,37.7580269 C35.0152737,37.7140936 34.8429436,37.744064 34.7060987,37.8398206 L34.5425112,37.952287 C34.9412556,38.4992825 35.386009,39.0973991 35.8512108,39.7057399 C37.8193722,39.7057399 40.186278,39.7057399 41.5358744,39.7057399 C42.1186547,39.7057399 42.9570404,39.7057399 42.9570404,39.7057399 C43.1155157,39.7057399 43.3353363,39.1434081 43.2330942,39.1331839 L43.1359641,39.0973991 Z M50.4156054,38.4634978 C50.5638565,38.5095067 50.5843049,38.4634978 50.4565022,38.4021525 C49.0215088,37.5551922 47.6418605,36.6177827 46.3259193,35.5956054 C45.1481787,34.5417713 44.0431404,33.409406 43.0183857,32.206278 C42.9166426,32.1048864 42.752057,32.1048864 42.6503139,32.206278 L40.9326457,33.6427803 C40.8312643,33.6123701 40.721488,33.631297 40.6361435,33.6939013 L38.5043946,35.3451121 C38.3740548,35.3041474 38.232038,35.3268701 38.1209865,35.4064574 L35.9278924,37.2774888 C35.815426,37.3695067 35.8460987,37.4870852 35.9943498,37.5330942 C38.3644289,38.201172 40.7756768,38.7134768 43.2126457,39.0667265 C44.5878027,39.2047534 46.7911211,39.2252018 46.7911211,39.2252018 C47.1633443,39.1984896 47.5299268,39.1193215 47.88,38.9900448 C47.88,38.9900448 45.835157,38.6015247 44.506009,38.2232287 C43.5231508,37.9404452 42.5655753,37.5762246 41.6432287,37.1343498 C42.2867326,37.4002018 42.943681,37.6322667 43.6113901,37.8295964 C45.3068469,38.2434736 47.0236709,38.5643115 48.7541704,38.7906726 C49.2690688,38.7879379 49.7825587,38.7365889 50.2878027,38.6373094 C48.7550537,38.2854273 47.2641358,37.7713177 45.8402691,37.1036771 C45.4926457,36.9298655 45.1347982,36.715157 44.7769507,36.4953363 C45.0632287,36.6435874 45.3495067,36.7816143 45.6204484,36.9043049 C47.1882279,37.5138341 48.7891593,38.0343928 50.4156054,38.4634978 Z" id="Shape" fill="#4E6659" fill-rule="nonzero"></path>
                <polygon id="Shape" fill="#76705A" fill-rule="nonzero" points="50.967713 17.3249327 50.967713 17.3249327 50.9574888 17.4169507"></polygon>
                <polygon id="Shape" fill="#76705A" fill-rule="nonzero" points="63.2367713 17.3249327 63.2623318 17.5089686 63.2367713 17.3249327"></polygon>
                <polygon id="Shape" fill="#76705A" fill-rule="nonzero" points="56.4990135 15.8833184 56.5041256 15.8833184 56.5041256 15.8833184"></polygon>
                <polygon id="Shape" fill="#76705A" fill-rule="nonzero" points="56.4990135 15.8833184 56.5041256 15.8833184 56.5041256 15.8833184"></polygon>
                <path d="M88.4752466,43.3097758 C88.2873804,43.1704685 88.0444949,43.1287226 87.8208969,43.1973094 C87.8208969,43.1973094 84.9223318,43.795426 81.7579372,44.3321973 C85.1251121,44.6116592 88.3866368,44.9660987 91.5425112,45.3955157 L88.4752466,43.3097758 Z M86.7729148,42.4713901 L83.7056502,39.8642152 C83.5470164,39.7558972 83.3483172,39.7240303 83.1637668,39.7773094 L80.2089686,37.4717489 C80.0862617,37.3881479 79.9332698,37.3620273 79.7897758,37.4001794 L77.4024215,35.3962332 C77.2494672,35.2707828 77.0251961,35.2864817 76.8912108,35.4320179 C75.4646869,37.1138315 73.9276477,38.6986896 72.2903139,40.1760538 C70.7055965,41.4253962 69.0443301,42.574453 67.3162332,43.6165022 L68.3795516,43.6165022 C70.0286697,43.1235284 71.6498781,42.5416 73.2360538,41.8732735 C73.6347982,41.6943498 74.0488789,41.4949776 74.4731839,41.275157 C73.9619731,41.5972197 73.4507623,41.8988341 72.9395516,42.1493274 C71.7339711,42.7444398 70.4826055,43.2419089 69.1974888,43.6369507 C70.633991,43.6727354 72.0602691,43.7187444 73.4712108,43.7852018 C74.3760538,43.606278 75.286009,43.4069058 76.0579372,43.1870852 C76.9904044,42.9167739 77.9069207,42.5942011 78.803139,42.2208969 C77.5171282,42.8419621 76.1816689,43.3549426 74.810583,43.7545291 L74.4834081,43.841435 C76.6236771,43.9436771 78.7315695,44.0765919 80.8070852,44.2401794 C83.8487892,43.606278 86.7115695,42.8190135 86.7115695,42.8190135 C86.9058296,42.7627803 86.9313901,42.6043049 86.7729148,42.4713901 Z" id="Shape" fill="#365B45" fill-rule="nonzero"></path>
                <path d="M74.6367713,25.3918386 L66.2017937,25.2435874 L66.2017937,25.3713901 L66.0075336,25.3713901 L66.0433184,25.6474439 L74.6367713,25.4991928 L74.6367713,25.3918386 Z M68.6300448,23.6026009 L73.5734529,23.510583 L73.481435,23.418565 L68.6198206,23.3265471 L68.6300448,23.6026009 Z M66.1251121,26.2251121 L66.1506726,26.4040359 L69.729148,26.4040359 L69.729148,26.5829596 L74.6265471,26.506278 C74.6411103,26.459599 74.6513772,26.4116868 74.6572197,26.363139 L66.1251121,26.2251121 Z M69.729148,27.6053812 L72.6021525,27.5593722 C72.9272891,27.5178735 73.2475101,27.4442398 73.5581166,27.3395516 L69.729148,27.2833184 L69.729148,27.6053812 Z M67.7967713,24.6403587 L74.5447534,24.5176682 L74.4578475,24.4307623 L68.2619731,24.318296 C68.1213177,24.4394872 67.9648122,24.5409577 67.7967713,24.6199103 L67.7967713,24.6403587 Z M68.7373991,19.5895964 C68.6052361,19.5366928 68.4704392,19.490623 68.3335426,19.4515695 L67.116861,19.426009 L67.3162332,19.6304933 L68.7373991,19.5895964 Z M68.0012556,20.6120179 L69.7189238,20.5762332 C69.7213521,20.5387837 69.7213521,20.5012163 69.7189238,20.4637668 L67.8836771,20.42287 L68.0012556,20.6120179 Z M68.5124664,21.6344395 L70.7975785,21.5884305 C70.7678611,21.5440864 70.7335946,21.5029666 70.6953363,21.4657399 L68.5022422,21.4146188 L68.5124664,21.6344395 Z M68.5686996,22.656861 L72.5714798,22.5750673 L72.484574,22.4881614 L68.5533632,22.4063677 L68.5686996,22.656861 Z" id="Shape" fill="url(#linearGradient-2)" fill-rule="nonzero"></path>
                <path d="M66.1864574,24.6352466 L67.8121076,24.6352466 C67.9837732,24.5467192 68.1435223,24.4367844 68.2875336,24.3080717 L66.1864574,24.272287 L66.1864574,24.6352466 Z M68.6300448,23.3009865 L66.1864574,23.2549776 L66.1864574,23.6281614 L68.6453812,23.5821525 L68.6300448,23.3009865 Z M66.2273543,18.286009 L66.1864574,18.286009 L66.1864574,18.5825112 L66.4573991,18.5825112 L66.2273543,18.286009 Z M68.5738117,22.3143498 L66.1864574,22.2632287 L66.1864574,22.6159641 L68.589148,22.564843 L68.5738117,22.3143498 Z M67.1270852,19.3288789 L66.1864574,19.3288789 L66.1864574,19.5844843 L67.3264574,19.5589238 L67.1270852,19.3288789 Z M67.8836771,20.3513004 L66.1864574,20.3104036 L66.1864574,20.6017937 L68.021704,20.5608969 L67.8836771,20.3513004 Z M68.5022422,21.327713 L66.166009,21.2765919 L66.166009,21.5986547 L68.5124664,21.5475336 L68.5022422,21.327713 Z" id="Shape" fill="url(#linearGradient-3)" fill-rule="nonzero"></path>
                <path d="M47.0620628,25.6218834 L48.2327354,25.6218834 L48.2889686,25.223139 L47.7419731,25.223139 C47.5322614,25.3830095 47.3039632,25.5168988 47.0620628,25.6218834 Z M45.7533632,18.4035874 L45.5693274,18.5876233 L47.7624215,18.6336323 C47.9311923,18.5944943 48.1018071,18.5637837 48.2736323,18.5416143 L48.2736323,18.3473543 L45.7533632,18.4035874 Z M41.8119283,27.4929148 C42.0716433,27.4936407 42.3311539,27.4782749 42.5889686,27.4469058 C42.6478362,27.4867785 42.7093204,27.5226442 42.7730045,27.5542601 L44.746278,27.5849327 L44.746278,27.2577578 L40.4827803,27.3242152 C40.9173947,27.4338991 41.3636932,27.4905447 41.8119283,27.4929148 Z M46.3719283,19.426009 L44.7104933,19.4669058 L44.6286996,19.5435874 L46.2850224,19.5844843 C46.3080096,19.5285927 46.3371583,19.4754391 46.3719283,19.426009 Z M37.7069058,26.4704933 L44.746278,26.5829596 L44.746278,26.4040359 L48.1304933,26.4040359 L48.1304933,26.2251121 L37.7580269,26.3938117 L37.7069058,26.4704933 Z" id="Shape" fill="url(#linearGradient-4)" fill-rule="nonzero"></path>
                <path d="M43.6420628,20.5353363 L48.2940807,20.6426906 L48.2940807,20.3461883 L43.6931839,20.4535426 L43.6420628,20.5353363 Z M46.3719283,19.426009 C46.3371583,19.4754391 46.3080096,19.5285927 46.2850224,19.5844843 L48.2940807,19.6356054 L48.2940807,19.3748879 L46.3719283,19.426009 Z M42.6503139,21.5270852 L48.2736323,21.6497758 L48.2736323,21.3226009 L42.7321076,21.470852 L42.6503139,21.5270852 Z M42.3947085,25.5605381 L47.0620628,25.6372197 C47.3024708,25.5418764 47.5307058,25.4183207 47.7419731,25.269148 L42.0624215,25.366278 C42.1686839,25.4384388 42.2796988,25.5033399 42.3947085,25.5605381 Z M40.6719283,23.5156951 L48.2940807,23.6588341 L48.2940807,23.2907623 L40.753722,23.4339013 L40.6719283,23.5156951 Z M35.7387444,28.4488789 L44.746278,28.5869058 L44.746278,28.2597309 L35.7847534,28.3875336 L35.7387444,28.4488789 Z M34.7623318,29.4304036 L42.7678924,29.5479821 C43.4222422,29.5121973 44.1021525,29.4917489 44.7616143,29.4661883 L44.7616143,29.2259193 L34.818565,29.3741704 L34.7623318,29.4304036 Z M39.6955157,24.4972197 L48.309417,24.650583 L48.309417,24.2569507 L39.7824215,24.4103139 L39.6955157,24.4972197 Z M41.658565,22.4932735 L48.3043049,22.6313004 L48.3043049,22.278565 L41.7556951,22.4114798 L41.658565,22.4932735 Z" id="Shape" fill="url(#linearGradient-5)" fill-rule="nonzero"></path>
                <path d="M42.0624215,25.3509417 L41.183139,25.3509417 C40.9669277,25.4139843 40.7465685,25.4618143 40.5236771,25.4940807 L42.3947085,25.5298655 C42.280118,25.4776246 42.1691128,25.4178526 42.0624215,25.3509417 Z" id="Shape" fill="url(#linearGradient-6)" fill-rule="nonzero"></path>
                <path d="M38.7037668,25.4685202 L38.8008969,25.4685202 C38.7685678,25.4710043 38.7360958,25.4710043 38.7037668,25.4685202 Z" id="Shape" fill="url(#linearGradient-7)" fill-rule="nonzero"></path>
                <polygon id="Shape" fill="url(#linearGradient-8)" fill-rule="nonzero" points="48.8104036 11.543139 47.5834978 11.589148 48.8564126 11.6402691"></polygon>
                <path d="M48.2940807,18.669417 L48.2940807,18.5620628 C48.1222556,18.5842321 47.9516408,18.6149428 47.78287,18.6540807 L48.2940807,18.669417 Z" id="Shape" fill="url(#linearGradient-9)" fill-rule="nonzero"></path>
                <path d="M41.8119283,27.4929148 C41.3636932,27.4905447 40.9173947,27.4338991 40.4827803,27.3242152 L36.8071749,27.3804484 L36.7253812,27.4622422 L42.7832287,27.5542601 C42.7195446,27.5226442 42.6580604,27.4867785 42.5991928,27.4469058 C42.3379925,27.4786993 42.0750539,27.4940658 41.8119283,27.4929148 Z" id="Shape" fill="url(#linearGradient-10)" fill-rule="nonzero"></path>
                <polygon id="Shape" fill="url(#linearGradient-11)" fill-rule="nonzero" points="47.2563229 16.4967713 47.2563229 16.4967713 47.215426 16.5427803 48.2940807 16.670583 48.2940807 16.4047534"></polygon>
                <polygon id="Shape" fill="url(#linearGradient-12)" fill-rule="nonzero" points="46.7144395 17.5498655 48.2940807 17.6623318 48.2940807 17.3913901 46.7604484 17.5038565"></polygon>
                <path d="M71.5695067,21.5270852 L71.4826009,21.4401794 L70.6851121,21.4401794 C70.7233704,21.477406 70.7576369,21.5185258 70.7873543,21.56287 L71.5695067,21.5270852 Z" id="Shape" fill="url(#linearGradient-13)" fill-rule="nonzero"></path>
                <path d="M77.4279821,27.3804484 L73.5581166,27.3191031 C73.2475101,27.4237913 72.9272891,27.497425 72.6021525,27.5389238 L77.5148879,27.4622422 L77.4279821,27.3804484 Z" id="Shape" fill="url(#linearGradient-14)" fill-rule="nonzero"></path>
                <polygon id="Shape" fill="url(#linearGradient-15)" fill-rule="nonzero" points="66.1864574 16.6654709 67.0504036 16.5836771 66.452287 16.4916592 66.1864574 16.4098655"></polygon>
                <polygon id="Shape" fill="url(#linearGradient-16)" fill-rule="nonzero" points="69.729148 28.5715695 78.4861883 28.4386547 78.4299552 28.3824215 69.729148 28.2495067"></polygon>
                <path d="M74.6367713,26.506278 L76.5333632,26.4704933 L76.4515695,26.3886996 L74.6674439,26.3886996 C74.6602056,26.4286111 74.649952,26.4679166 74.6367713,26.506278 Z" id="Shape" fill="url(#linearGradient-17)" fill-rule="nonzero"></path>
                <polygon id="Shape" fill="url(#linearGradient-18)" fill-rule="nonzero" points="75.5313901 25.4787444 75.4495964 25.4020628 74.621435 25.3918386 74.6265471 25.4991928"></polygon>
                <polygon id="Shape" fill="url(#linearGradient-19)" fill-rule="nonzero" points="68.4664574 18.4189238 66.2324664 18.3678027 66.4573991 18.6591928 68.6556054 18.6080717"></polygon>
                <path d="M70.5879821,20.5404484 L70.5010762,20.4535426 L69.6984753,20.4535426 C69.7009036,20.4909921 69.7009036,20.5285595 69.6984753,20.566009 L70.5879821,20.5404484 Z" id="Shape" fill="url(#linearGradient-20)" fill-rule="nonzero"></path>
                <path d="M79.4165919,29.3690583 L69.729148,29.2310314 L69.729148,29.4457399 C70.4857399,29.4815247 71.2627803,29.5019731 72.009148,29.5377578 L79.4779372,29.4304036 L79.4165919,29.3690583 Z" id="Shape" fill="url(#linearGradient-21)" fill-rule="nonzero"></path>
                <path d="M68.3335426,19.426009 C68.4704392,19.4650624 68.6052361,19.5111323 68.7373991,19.5640359 L69.5962332,19.5640359 L69.5093274,19.47713 L68.3335426,19.426009 Z" id="Shape" fill="url(#linearGradient-22)" fill-rule="nonzero"></path>
                <polygon id="Shape" fill="url(#linearGradient-23)" fill-rule="nonzero" points="67.4593722 17.5038565 66.1864574 17.3965022 66.1864574 17.6623318 67.5104933 17.5498655"></polygon>
                <path d="M64.8317489,81.1598206 C64.8558288,80.8632408 64.6871082,80.5846196 64.4131332,80.4685285 C64.1391583,80.3524374 63.8216232,80.4250182 63.6252915,80.6486099 L61.6213453,82.1822422 C60.6704933,88.0560538 59.7298655,94.7989238 58.5540807,103.796233 L66.8152466,95.5964126 L64.8317489,81.1598206 Z M97.1607175,52.8387444 C97.5543498,49.2602691 80.8633184,47.3227803 68.9469955,46.4792825 L69.0339013,47.072287 C78.7469058,48.0180269 90.7910314,49.5363229 89.8657399,51.4840359 C88.8433184,53.5902242 80.5259193,53.5288789 71.1400897,56.0849327 C70.8538117,56.1616143 70.5930942,56.2587444 70.3323767,56.3558744 L74.7236771,87.6777578 L90.5712108,71.8302242 C87.5039462,69.304843 77.9596413,65.3634081 80.5923767,60.895426 C82.458296,57.7259193 96.756861,56.5143498 97.1607175,52.8387444 Z M75.4240359,92.672287 L77.3870852,90.3258296 L75.3780269,92.3348879 L75.4240359,92.672287 Z" id="Shape" fill="url(#linearGradient-24)" fill-rule="nonzero"></path>
                <path d="M107.093543,54.4643946 L59.2084305,6.57928251 C58.0378067,5.41468033 56.1462292,5.41468033 54.9756054,6.57928251 L7.09049327,54.4643946 C5.931061,55.6728878 5.931061,57.5807445 7.09049327,58.7892377 L54.9756054,106.67435 C56.1462292,107.838952 58.0378067,107.838952 59.2084305,106.67435 L107.093543,58.7892377 C108.252975,57.5807445 108.252975,55.6728878 107.093543,54.4643946 Z M106.265381,57.8690583 L58.3802691,105.846188 C57.6693874,106.539732 56.5350969,106.539732 55.8242152,105.846188 L7.91865471,57.8690583 C7.57897526,57.5440629 7.38686112,57.0943709 7.38686112,56.6242601 C7.38686112,56.1541493 7.57897526,55.7044573 7.91865471,55.3794619 L55.7986547,7.40744395 C56.5095364,6.71390051 57.6438268,6.71390051 58.3547085,7.40744395 L106.239821,55.3794619 C106.5795,55.7044573 106.771614,56.1541493 106.771614,56.6242601 C106.771614,57.0943709 106.5795,57.5440629 106.239821,57.8690583 L106.265381,57.8690583 Z" id="Shape" fill="url(#linearGradient-25)" fill-rule="nonzero"></path>
                <path d="M109.971659,54.3672646 L59.3004484,3.70116592 C58.0754375,2.47989101 56.093262,2.47989101 54.8682511,3.70116592 L4.21237668,54.3672646 C3.62436684,54.9535563 3.29493374,55.7504531 3.29730942,56.5808072 L3.29730942,56.6728251 C3.29493374,57.5031792 3.62436684,58.300076 4.21237668,58.8863677 L54.8733632,109.552466 C56.0983741,110.773741 58.0805496,110.773741 59.3055605,109.552466 L109.971659,58.8863677 C111.18434,57.6240631 111.18434,55.6295692 109.971659,54.3672646 Z M109.143498,57.9713004 L58.4773991,108.724305 C57.7108146,109.490726 56.4681092,109.490726 55.7015247,108.724305 L5.04053812,57.9713004 C4.67500771,57.6195395 4.46845682,57.1341112 4.46845682,56.6268161 C4.46845682,56.1195211 4.67500771,55.6340928 5.04053812,55.2823318 L55.7219731,4.52932735 C56.4885576,3.76290658 57.731263,3.76290658 58.4978475,4.52932735 L109.163946,55.2823318 C109.529477,55.6340928 109.736027,56.1195211 109.736027,56.6268161 C109.736027,57.1341112 109.529477,57.6195395 109.163946,57.9713004 L109.143498,57.9713004 Z" id="Shape" fill="url(#linearGradient-26)" fill-rule="nonzero"></path>
                <path d="M113.672825,56.5808072 C113.673819,55.7141649 113.329853,54.8827608 112.716861,54.2701345 L59.4026906,0.955964126 C58.1280302,-0.304460702 56.0764541,-0.304460702 54.8017937,0.955964126 L1.46206278,54.2701345 C0.193482843,55.5851813 0.193482843,57.668451 1.46206278,58.9834978 L54.7813453,112.297668 C56.0560057,113.558093 58.1075818,113.558093 59.3822422,112.297668 L112.716861,58.9834978 C113.329853,58.3708715 113.673819,57.5394674 113.672825,56.6728251 C113.672825,56.6728251 113.672825,56.6421525 113.672825,56.6268161 C113.672825,56.6114798 113.672825,56.5961435 113.672825,56.5808072 Z M111.893812,58.0633184 L58.5745291,111.474619 C57.7529891,112.291509 56.4259347,112.291509 55.6043946,111.474619 L2.29022422,58.0633184 C1.9055842,57.6836873 1.68686931,57.1672261 1.68188341,56.6268161 C1.69643926,56.0944422 1.91409313,55.5878025 2.29022422,55.2107623 L55.6043946,1.77901345 C56.4259347,0.962123473 57.7529891,0.962123473 58.5745291,1.77901345 L111.893812,55.2107623 C112.279406,55.5903252 112.496544,56.1087561 112.496544,56.6498206 C112.496544,57.1908851 112.279406,57.709316 111.893812,58.0888789 L111.893812,58.0633184 Z" id="Shape" fill="url(#linearGradient-27)" fill-rule="nonzero"></path>
                <path d="M97.2169507,47.8646637 L97.0380269,47.6806278 L96.8948879,47.5426009 L85.8834081,47.7266368 L97.2169507,47.8646637 Z M92.6773991,46.0089686 L95.3612556,46.0089686 L95.1005381,45.7482511 L94.9267265,45.5744395 L92.7949776,45.5744395 L92.6773991,46.0089686 Z M98.1780269,48.8461883 L97.9377578,48.6008072 L97.8815247,48.5496861 L91.5067265,48.6979372 L98.1780269,48.8461883 Z M99.133991,49.8021525 L98.9499552,49.6181166 L95.1312108,49.7101345 L99.133991,49.8021525 Z M95.9440359,46.6070852 L92.1764126,46.6530942 L92.2377578,46.6888789 L91.6652018,46.6888789 L91.3226906,46.6582063 L78.9411659,46.7911211 L96.3223318,46.9853812 L95.9440359,46.6070852 Z M81.2109417,45.69713 L65.7314798,45.8095964 L83.7925561,45.9425112 L81.2109417,45.69713 Z M104.138744,54.8069058 L104.016054,54.6842152 L103.842242,54.5052915 L95.6986547,54.6535426 L104.138744,54.8069058 Z M103.167444,53.8304933 L102.840269,53.5084305 L96.99713,53.6669058 L103.167444,53.8304933 Z M105.161166,55.8242152 L104.803318,55.4663677 L94.5433184,55.6452915 L105.161166,55.8242152 Z M101.07148,51.7345291 L100.959013,51.6220628 L99.3026906,51.678296 L101.07148,51.7345291 Z M102.119462,52.7569507 L102.022332,52.6598206 L101.889417,52.5269058 L98.1524664,52.6547085 L102.119462,52.7569507 Z M100.074619,50.7121076 L100.038834,50.6763229 L99.9468161,50.5843049 L97.8457399,50.6456502 L100.074619,50.7121076 Z M94.4973094,67.5820628 L94.7324664,67.3469058 L86.9569507,67.4644843 L94.4973094,67.5820628 Z M102.359731,59.7196413 L102.702242,59.37713 L90.913722,59.5509417 L102.359731,59.7196413 Z M101.367982,60.7113901 L101.715605,60.3637668 L88.4599103,60.5426906 L101.367982,60.7113901 Z M103.366816,58.7892377 L103.719552,58.4416143 L92.0895067,58.615426 L103.366816,58.7892377 Z M104.358565,57.7974888 L104.701076,57.4549776 L94.5433184,57.6287892 L104.358565,57.7974888 Z M95.6986547,56.6370404 L105.345202,56.8159641 L105.370762,56.7852915 C105.422512,56.7309726 105.462534,56.666589 105.488341,56.5961435 C105.502714,56.5531673 105.51131,56.5084707 105.513901,56.4632287 L95.6986547,56.6370404 Z M100.396682,61.749148 L100.749417,61.3964126 L86.0265471,61.5753363 L100.396682,61.749148 Z M97.421435,64.7243946 L97.7895067,64.361435 L84.3088789,64.5454709 L97.421435,64.7243946 Z M96.4552466,65.690583 L96.7721973,65.3736323 L85.643139,65.5321076 L96.4552466,65.690583 Z M95.4788341,66.6669955 L95.7702242,66.3756054 L85.6840359,66.5238565 L95.4788341,66.6669955 Z M98.3927354,63.7530942 L98.7965919,63.3543498 L83.7158744,63.553722 L98.3927354,63.7530942 Z M99.3793722,62.7715695 L99.7934529,62.3574888 L84.8712108,62.5670852 L99.3793722,62.7715695 Z M93.5515695,68.5738117 L93.7304933,68.4 L88.2707623,68.4869058 L93.5515695,68.5738117 Z" id="Shape" fill="url(#linearGradient-28)" fill-rule="nonzero"></path>
                <path d="M50.3389238,98.2444843 L50.5536323,98.4591928 L58.4620628,98.3518386 L50.3389238,98.2444843 Z M51.2795516,99.1748879 L51.5198206,99.4202691 L57.0204484,99.2975785 L51.2795516,99.1748879 Z M50.6405381,96.3887892 L48.5190135,96.4143498 L48.6263677,96.521704 L56.146278,96.4296861 L50.6405381,96.3887892 Z M49.3778475,97.2731839 L49.5976682,97.4930045 L57.3067265,97.3856502 L49.3778475,97.2731839 Z M52.2559641,100.1513 L52.4604484,100.355785 L58.1757848,100.253543 L52.2559641,100.1513 Z M55.3232287,103.218565 L59.0090583,103.141883 L55.1545291,103.065202 L55.3232287,103.218565 Z M53.2068161,101.102152 L53.4521973,101.347534 L57.7668161,101.219731 L53.2068161,101.102152 Z M54.1832287,102.078565 L54.387713,102.283049 L57.9252915,102.185919 L54.1832287,102.078565 Z M56.2791928,104.174529 L58.0121973,104.138744 L58.0991031,104.056951 L56.1207175,104.016054 L56.2791928,104.174529 Z" id="Shape" fill="url(#linearGradient-29)" fill-rule="nonzero"></path>
                <path d="M23.5156951,71.2627803 L23.7304036,71.4774888 L38.1260987,71.3701345 L23.5156951,71.2627803 Z M24.4563229,72.2034081 L24.6965919,72.4487892 L37.9880717,72.3312108 L24.4563229,72.2034081 Z M23.8173094,69.4173094 L21.6957848,69.44287 L21.803139,69.5502242 L35.815426,69.4582063 L23.8173094,69.4173094 Z M22.5546188,70.301704 L22.7744395,70.5266368 L36.9707623,70.4141704 L22.5546188,70.301704 Z M25.4327354,73.1798206 L25.6372197,73.3843049 L37.8295964,73.2871749 L25.4327354,73.1798206 Z M28.5,76.2470852 L32.1858296,76.1704036 L36.0812556,76.1704036 L28.3364126,76.0886099 L28.5,76.2470852 Z M26.3733632,74.1255605 L26.6187444,74.3709417 L37.4410762,74.2533632 L26.3733632,74.1255605 Z M27.3497758,75.1019731 L27.5542601,75.3115695 L36.2959641,75.1991031 L27.3497758,75.1019731 Z M29.4457399,77.1979372 L35.0690583,77.1672646 L35.1559641,77.0803587 L29.2872646,77.0394619 L29.4457399,77.1979372 Z" id="Shape" fill="url(#linearGradient-30)" fill-rule="nonzero"></path>
                <path d="M31.7921973,79.6159641 L32.0069058,79.8306726 L38.616861,79.7284305 L31.7921973,79.6159641 Z M32.7174888,80.561704 L32.96287,80.8019731 L37.1599103,80.6843946 L32.7174888,80.561704 Z M32.0784753,77.7704933 L29.9569507,77.7960538 L30.0643049,77.9034081 L36.2959641,77.8113901 L32.0784753,77.7704933 Z M30.8157848,78.6548879 L31.0356054,78.8798206 L36.147713,78.7673543 L30.8157848,78.6548879 Z M33.6939013,81.5330045 L33.8983857,81.7374888 L39.613722,81.6403587 L33.6939013,81.5330045 Z M36.7611659,84.6002691 L40.4469955,84.5184753 L36.5975785,84.4366816 L36.7611659,84.6002691 Z M34.6447534,82.4838565 L34.8901345,82.7241256 L40.5134529,82.6065471 L34.6447534,82.4838565 Z M35.6211659,83.455157 L35.8256502,83.6647534 L40.6668161,83.5625112 L35.6211659,83.455157 Z M37.71713,85.5511211 L39.4501345,85.5204484 L39.5370404,85.4335426 L37.5586547,85.3721973 L37.71713,85.5511211 Z" id="Shape" fill="url(#linearGradient-31)" fill-rule="nonzero"></path>
                <path d="M17.4118386,65.3173991 L17.7134529,65.6190135 L30.7646637,65.4707623 L17.4118386,65.3173991 Z M16.3587444,64.2591928 L16.6859193,64.5863677 L30.8004484,64.4125561 L16.3587444,64.2591928 Z M11.5329148,59.4384753 L37.2672646,59.1982063 L11.0574888,58.9579372 L11.5329148,59.4384753 Z M15.295426,63.1958744 L15.6532735,63.553722 L31.398565,63.3901345 L15.295426,63.1958744 Z M14.2730045,62.1734529 L14.6206278,62.5210762 L32.8606278,62.3472646 L14.2730045,62.1734529 Z M19.523139,67.4235874 L19.8196413,67.7200897 L33.6683408,67.5769507 L19.523139,67.4235874 Z M13.5879821,61.4935426 L35.5700448,61.2890583 L13.1687892,61.0794619 L13.5879821,61.4935426 Z M10.4644843,58.3700448 L40.8304036,58.1553363 L10.024843,57.9304036 L10.4644843,58.3700448 Z M20.852287,68.7578475 L34.9463677,68.6044843 L20.5455605,68.4511211 L20.852287,68.7578475 Z M12.110583,60.0161435 L12.5604484,60.466009 L35.386009,60.2461883 L12.110583,60.0161435 Z M55.1545291,49.7919283 L51.9492377,49.7919283 L51.9492377,49.9350673 L55.3947982,49.9350673 L55.1545291,49.7919283 Z M56.8926457,50.7478924 L51.821435,50.7478924 L51.7856502,50.9932735 L57.2556054,50.9268161 L56.8926457,50.7478924 Z M53.4573094,48.8615247 L52.0770404,48.8615247 L53.4573094,48.8615247 Z M58.7892377,51.7600897 L51.7089686,51.7600897 L51.7089686,51.9390135 L59.0397309,51.9083408 L58.7892377,51.7600897 Z M18.4547085,66.3602691 L18.7563229,66.6618834 L32.3545291,66.5136323 L18.4547085,66.3602691 Z M51.5453812,52.726278 L51.5453812,52.9000897 L60.798296,52.8643049 L60.6142601,52.7620628 L51.5453812,52.726278 Z M67.6996413,49.8328251 L70.6033184,49.8328251 L67.6996413,49.8328251 Z M51.3869058,53.8867265 L60.2717489,53.8509417 L60.3944395,53.7538117 L51.4073543,53.7180269 L51.3869058,53.8867265 Z M51.2233184,55.0676233 L58.7227803,55.0676233 L58.7790135,55.0216143 L51.2386547,55.0216143 L51.2233184,55.0676233 Z M68.1188341,52.8336323 L73.670583,52.8336323 L68.113722,52.8336323 L68.1188341,52.8336323 Z M67.9808072,51.8469955 L74.2482511,51.8469955 L67.9910314,51.7958744 L67.9808072,51.8469955 Z M51.110852,56.0798206 L54.4797309,56.0798206 L51.1159641,56.0798206 L51.110852,56.0798206 Z M67.8581166,50.7887892 L67.8581166,50.8756951 L76.5486996,50.8347982 L67.8581166,50.7887892 Z M68.2824215,53.8202691 L72.5868161,53.8202691 L68.2773094,53.8202691 L68.2824215,53.8202691 Z M45.69713,51.9287892 L46.3259193,51.9287892 L46.3565919,51.7089686 L45.743139,51.7089686 C45.7348209,51.7835374 45.719415,51.8571437 45.69713,51.9287892 Z M44.2555157,55.0880717 L45.886278,55.0880717 L45.886278,54.955157 L44.7667265,54.955157 C44.5994225,55.0106264 44.4286501,55.0550272 44.2555157,55.0880717 Z M39.3018834,56.1411659 L45.7482511,56.1053812 L45.7482511,56.0184753 L39.7977578,55.9878027 C39.6353758,56.047896 39.4698388,56.099093 39.3018834,56.1411659 Z M44.270852,49.9452915 L46.5917489,49.9452915 L46.5917489,49.7561435 L43.9794619,49.7561435 L44.270852,49.9452915 Z M42.9468161,48.92287 L46.74,48.92287 L46.74,48.8666368 L42.8292377,48.8666368 L42.9468161,48.92287 Z M45.50287,51.013722 L46.4281614,51.013722 L46.4690583,50.7172197 L45.1961435,50.7172197 C45.3168306,50.7924917 45.4268709,50.8836189 45.5233184,50.9881614 L45.50287,51.013722 Z M31.4343498,57.2095964 L45.6051121,57.1380269 L45.6051121,57.0766816 L31.6439462,57.0102242 C31.5788749,57.0815463 31.5088343,57.1481703 31.4343498,57.2095964 Z" id="Shape" fill="url(#linearGradient-32)" fill-rule="nonzero"></path>
                <path d="M10.4900448,55.6504036 C10.2804484,55.8702242 10.1526457,56.1002691 10.2037668,56.1616143 C10.3992523,56.2735197 10.6116123,56.3529389 10.8325561,56.3967713 C10.8325561,56.3967713 22.9073543,56.2536323 27.8405381,56.3149776 C28.9447534,56.3149776 30.5295067,56.2689686 30.5295067,56.2689686 C30.826009,56.2689686 31.2503139,54.9193722 31.0407175,54.8989238 L30.8617937,54.8989238 C25.2742601,54.1832287 15.7657399,51.6936323 15.7657399,51.6936323 C15.4581377,51.5825596 15.1140825,51.6581324 14.8813453,51.8878924 L10.4900448,55.6504036 Z M33.4945291,52.6495964 C27.4417937,50.4973991 22.2121076,45.8198206 22.2121076,45.8198206 C21.9300741,45.6719191 21.5847441,45.7236152 21.3583857,45.9476233 L17.2022422,50.4309417 C17.0991625,50.5120527 17.0505142,50.6442783 17.0764456,50.772855 C17.102377,50.9014317 17.1984726,51.0044652 17.3249327,51.0392825 C17.3249327,51.0392825 25.7854709,54.0043049 31.0202691,54.673991 C33.6172197,55.006278 37.8398206,55.052287 37.8398206,55.052287 C38.1363229,55.052287 40.186278,54.5410762 39.8846637,54.4899552 C39.8744395,54.4899552 36.0556951,53.5595516 33.4996413,52.6547085 L33.4945291,52.6495964 Z M35.6211659,49.4391928 C38.9798206,51.3306726 44.6695964,53.3652915 44.6695964,53.3652915 C44.9507623,53.4624215 44.981435,53.3959641 44.7360538,53.2170404 C44.7360538,53.2170404 39.6955157,49.4391928 36.909417,46.4895067 C34.1233184,43.5398206 30.6419731,38.3408072 30.6419731,38.3408072 C30.5715199,38.2216774 30.4479669,38.1438081 30.310099,38.1316433 C30.1722311,38.1194785 30.0369516,38.1745097 29.9467265,38.2794619 L26.455157,41.9704036 C26.3494777,42.0724951 26.292838,42.2151236 26.2996877,42.3619019 C26.3065373,42.5086801 26.3762139,42.6454139 26.4909417,42.7372197 C26.4909417,42.7372197 31.7461883,47.2512108 35.626278,49.4391928 L35.6211659,49.4391928 Z M36.0352466,49.9146188 C31.8842152,47.2665471 26.930583,41.7965919 26.930583,41.7965919 C26.6915281,41.5985516 26.3406988,41.6163151 26.12287,41.8374888 L21.9565022,45.9271749 C21.8562766,46.0199382 21.8075207,46.1557089 21.8258363,46.2910409 C21.8441519,46.426373 21.9272428,46.5442997 22.0485202,46.6070852 C22.0485202,46.6070852 27.9274439,50.3286996 31.7973094,51.7191928 C35.4984753,53.0278924 41.5512108,54.0247534 41.5512108,54.0247534 C41.847713,54.0707623 44.746278,53.769148 44.4651121,53.6566816 C41.5083544,52.774834 38.6769807,51.5172093 36.0403587,49.9146188 L36.0352466,49.9146188 Z" id="Shape" fill="#447258" fill-rule="nonzero"></path>
                <path d="M42.7269955,33.581435 C42.834158,33.494139 42.9879047,33.494139 43.0950673,33.581435 C43.9529328,34.349256 44.9045304,35.0054117 45.9271749,35.5342601 L45.4721973,35.1764126 C44.6150409,34.4120313 43.8106017,33.5905127 43.0643946,32.7174888 C42.9879539,32.646695 42.8698937,32.646695 42.7934529,32.7174888 L41.4540807,33.8421525 C41.4144225,33.8697827 41.3928895,33.9167638 41.3978475,33.964843 L42.7269955,33.581435 Z" id="Shape" fill="#FFFFFF" fill-rule="nonzero"></path>
                <path d="M77.6529148,37.3183857 C77.498244,37.2012091 77.2812545,37.2142285 77.141704,37.3490583 C75.9440888,38.4181699 74.6163875,39.3319307 73.1900448,40.0686996 C73.4149776,39.9 73.6296861,39.7313004 73.8188341,39.5574888 C75.0187985,38.4906686 76.1459834,37.3446973 77.1928251,36.1272646 C77.296315,36.0252756 77.4625191,36.0252756 77.566009,36.1272646 L79.4421525,37.6966816 C79.4946153,37.7363142 79.5234701,37.7997946 79.5188341,37.8653812 L77.6529148,37.3183857 Z" id="Shape" fill="#FFFFFF" fill-rule="nonzero"></path>
                <path d="M29.8189238,41.3160538 C29.9159065,41.2232542 30.0479196,41.1763156 30.181718,41.1870585 C30.3155163,41.1978014 30.4383489,41.2652022 30.5192825,41.372287 C32.09693,43.1607696 33.9034292,44.7335069 35.8921076,46.0498655 C35.5853812,45.7584753 35.293991,45.4721973 35.0332735,45.1910314 C33.3825711,43.3104238 31.8559404,41.3244378 30.4630493,39.2456502 C30.4101501,39.1590724 30.3189997,39.1030522 30.2178632,39.0949613 C30.1167267,39.0868704 30.0178293,39.1276867 29.9518386,39.2047534 L27.3957848,41.8988341 C27.3220945,41.9774666 27.2833693,42.082578 27.2884305,42.1902242 L29.8189238,41.3160538 Z" id="Shape" fill="#FFFFFF" fill-rule="nonzero"></path>
                <polygon id="Shape" points="45.8811659 88.2298655 65.7570404 72.9497758 49.2193722 63.886009"></polygon>
                <polygon id="Shape" points="60.9516592 33.9955157 52.5422422 41.1780269 62.7562332 47.0773991"></polygon>
                <polygon id="Shape" points="53.5493274 32.2880717 52.6700448 38.6935426 60.1746188 32.2880717"></polygon>
                <polygon id="Shape" points="52.0208072 43.4324664 49.7919283 59.7043049 63.0987444 49.8328251"></polygon>
                <polygon id="Shape" points="50.4002691 62.0149776 65.9921973 70.5573094 63.4770404 52.3173094"></polygon>
                <rect id="Rectangle-path" fill="#3A4044" fill-rule="nonzero" x="50.8859193" y="16.8188341" width="12.7035874" height="5.95560538" rx="1.27"></rect>
                <path d="M64.4125561,32.9270852 C64.3865585,32.7644943 64.4344873,32.5987849 64.5432638,32.4751753 C64.6520403,32.3515656 64.8103111,32.2829572 64.9748879,32.2880717 L66.4676233,32.2880717 C66.8250289,32.2852903 67.1140795,31.9962397 67.116861,31.6388341 L67.116861,29.6502242 C67.116861,29.4780357 67.0484594,29.3128995 66.9267037,29.1911439 C66.804948,29.0693882 66.6398119,29.0009865 66.4676233,29.0009865 L64.5096861,29.0009865 C64.1422217,28.9889838 63.8342176,28.7194802 63.7735426,28.356861 L63.4412556,25.9950673 C63.3824504,25.6314083 63.0733589,25.3609532 62.7051121,25.3509417 L60.3944395,25.3509417 C60.2288112,25.3455402 60.069516,25.4148213 59.9605314,25.5396582 C59.8515468,25.664495 59.8044002,25.8316837 59.8321076,25.9950673 L60.1592825,28.356861 C60.1869899,28.5202445 60.1398433,28.6874332 60.0308588,28.8122701 C59.9218742,28.937107 59.7625789,29.0063881 59.5969507,29.0009865 L54.6484305,29.0009865 C54.4833927,29.0045271 54.3252796,28.9347092 54.2167163,28.8103548 C54.1081529,28.6860004 54.0603149,28.5199107 54.0860987,28.356861 L54.4132735,25.9950673 C54.440981,25.8316837 54.3938344,25.664495 54.2848498,25.5396582 C54.1758652,25.4148213 54.0165699,25.3455402 53.8509417,25.3509417 L51.5402691,25.3509417 C51.1720223,25.3609532 50.8629308,25.6314083 50.8041256,25.9950673 L50.4820628,28.356861 C50.4213878,28.7194802 50.1133837,28.9889838 49.7459193,29.0009865 L47.9924664,29.0009865 C47.6339023,29.0009865 47.3432287,29.2916602 47.3432287,29.6502242 L47.3432287,31.6388341 C47.3460102,31.9962397 47.6350608,32.2852903 47.9924664,32.2880717 L49.2960538,32.2880717 C49.460341,32.2826414 49.6183606,32.3513804 49.7263929,32.4752706 C49.8344251,32.5991609 49.8810155,32.7650662 49.8532735,32.9270852 L42.0879821,89.5692377 C42.0566147,89.9712512 42.1915068,90.3685362 42.4611659,90.6683408 L44.7156054,92.9227803 C44.9660987,93.1783857 45.2268161,93.0914798 45.2626009,92.7387444 L45.3597309,92.0026009 C45.442352,91.604518 45.6544683,91.2449988 45.9629596,90.9801794 L66.0995516,75.5007175 C66.1983914,75.3931788 66.3539134,75.3588958 66.4888067,75.4149108 C66.6237,75.4709259 66.7091904,75.6052902 66.7027803,75.7512108 L69.0287892,92.6211659 C69.0799103,92.9739013 69.3252915,93.0556951 69.5808969,92.8052018 L71.9682511,90.4127354 C72.2344954,90.1111995 72.3672781,89.7146955 72.3363229,89.3136323 L64.4125561,32.9270852 Z M53.4470852,32.9270852 C53.5065468,32.5625265 53.8189999,32.2931704 54.1883408,32.2880717 L59.515157,32.2880717 C59.8730045,32.2880717 59.9394619,32.4772197 59.6685202,32.7072646 L53.1659193,38.2692377 C52.8949776,38.5043946 52.7109417,38.4021525 52.7569507,38.049417 L53.4470852,32.9270852 Z M60.4404484,34.4147085 C60.7113901,34.1846637 60.9516592,34.2817937 61.0232287,34.6345291 L62.6488789,46.4332735 C62.7,46.7911211 62.4852915,46.9444843 62.178565,46.7553363 L53.104574,41.5000897 C52.9621116,41.4375249 52.864638,41.302791 52.8497861,41.1479061 C52.8349341,40.9930213 52.9050275,40.8422193 53.0330045,40.753722 L60.4404484,34.4147085 Z M51.9339013,44.0714798 C51.9353399,43.9185039 52.023092,43.7794727 52.1605672,43.7123588 C52.2980423,43.6452449 52.4616382,43.6615709 52.583139,43.7545291 L62.5364126,49.5107623 C62.677558,49.5678028 62.7731588,49.7011176 62.7819061,49.8531016 C62.7906534,50.0050856 62.7109788,50.1484881 62.5773094,50.2213453 L50.3133632,59.3004484 C50.0270852,59.515157 49.8021525,59.3975785 49.8788341,59.044843 L51.9339013,44.0714798 Z M46.3923767,87.8311211 C46.1112108,88.0509417 45.9169507,87.9384753 45.9680717,87.5857399 L49.1273543,64.5301345 C49.1314448,64.3758717 49.2199601,64.2363306 49.3577712,64.1668909 C49.4955822,64.0974512 49.6604011,64.1093433 49.7868161,64.1978475 L65.1895964,72.6379372 C65.332449,72.6908139 65.4312239,72.8222916 65.442233,72.9742179 C65.4532422,73.1261442 65.3744544,73.2704887 65.2407175,73.3434081 L46.3923767,87.8311211 Z M50.9932735,62.3268161 C50.8527551,62.274526 50.7556093,62.1451257 50.7446146,61.9955971 C50.7336198,61.8460685 50.8107937,61.7038506 50.9421525,61.6315695 L62.9760538,52.7058296 C63.0770309,52.5994471 63.2333036,52.5666539 63.3685274,52.6234706 C63.5037512,52.6802874 63.5897039,52.8148559 63.5843946,52.961435 L65.9206278,69.9131839 C65.9717489,70.2659193 65.7519283,70.4243946 65.4400897,70.2454709 L50.9932735,62.3268161 Z" id="Shape" fill="#3A4044" fill-rule="nonzero"></path>
                <path d="M70.6697758,58.5949776 C74.4527354,57.5725561 80.5156951,55.6504036 83.4500448,55.1698655 C88.4343498,54.3621525 91.4402691,53.8765022 92.3144395,52.0412556 C92.5173807,51.6210213 92.5449663,51.1373546 92.3911211,50.6967713 C95.6270852,51.5147085 97.1453812,52.2304036 97.1556054,52.7416143 C97.186278,54.7046637 92.3348879,56.1616143 89.681704,56.953991 C85.6278027,58.1604484 82.1720179,59.1777578 81.1138117,60.3279821 C77.6069058,64.1467265 84.2475336,67.6434081 88.4292377,70.2301345 C89.0784753,70.633991 90.3360538,71.3803587 90.8830493,71.7637668 L74.6367713,87.8873543 L70.6697758,58.5949776 Z" id="Shape" fill="url(#linearGradient-33)" fill-rule="nonzero"></path>
                <path d="M64.3563229,14.5950673 L64.4176682,14.630852 L64.8675336,14.630852 L64.3563229,14.5950673 Z M60.0008072,9.75901345 L54.1218834,9.82035874 L53.9685202,9.97372197 L60.2666368,10.024843 L60.0008072,9.75901345 Z M49.3011659,14.6461883 L50.0270852,14.6461883 L49.306278,14.6461883 L49.3011659,14.6461883 Z M59.1061883,8.8541704 L55.0165022,8.90017937 L54.8835874,9.03309417 L59.3004484,9.03309417 L59.1061883,8.8541704 Z M65.8234978,15.5868161 L65.5218834,15.5868161 L65.8183857,15.5868161 L65.8234978,15.5868161 Z M50.3338117,13.6084305 L50.9523767,13.6084305 L50.8808072,13.68 L61.4526457,13.7617937 C61.4526457,13.7617937 61.4526457,13.7311211 61.4833184,13.7157848 L63.0885202,13.6646637 L63.0169507,13.5930942 L50.3389238,13.5930942 L50.3338117,13.6084305 Z M60.9823318,10.735426 L53.1199103,10.8172197 L53.0023318,10.9347982 L61.181704,10.9347982 L60.9823318,10.735426 Z M61.4219731,12.586009 L61.1612556,12.586009 L51.2591031,12.6933632 L51.156861,12.7956054 L61.46287,12.8773991 C61.46287,12.8773991 61.46287,12.8416143 61.4935426,12.826278 L63.0271749,12.7802691 L62.8738117,12.6269058 L62.1632287,12.6269058 C62.1632287,12.6269058 62.1632287,12.6269058 62.1632287,12.5962332 L61.4219731,12.586009 Z M61.9331839,11.6760538 L61.4219731,11.6760538 L61.1612556,11.6760538 L52.1434978,11.7578475 L52.0412556,11.8652018 L62.1018834,11.8652018 L61.9331839,11.6760538 Z M65.1640359,11.7987444 L65.4196413,11.7987444 L65.1538117,11.7987444 L65.1640359,11.7987444 Z" id="Shape" fill="url(#linearGradient-34)" fill-rule="nonzero"></path>
            </g>
        </g>
    </g>
</svg>