<?xml version="1.0" encoding="UTF-8"?>
<svg width="64px" height="64px" viewBox="0 0 64 64" version="1.1" xmlns="http://www.w3.org/2000/svg" xmlns:xlink="http://www.w3.org/1999/xlink">
    <!-- Generator: Sketch 49.3 (51167) - http://www.bohemiancoding.com/sketch -->
    <title>01</title>
    <desc>Created with Sketch.</desc>
    <defs></defs>
    <g id="3-подход" stroke="none" stroke-width="1" fill="none" fill-rule="evenodd">
        <g id="01">
            <path d="M31.927818,50.9321333 C31.191818,50.9321333 30.5971513,51.5294667 30.5971513,52.2641333 L30.5971513,60.2534667 C30.5971513,60.9881333 31.191818,61.5854667 31.927818,61.5854667 C32.6624847,61.5854667 33.2571513,60.9881333 33.2571513,60.2534667 L33.2571513,52.2641333 C33.2571513,51.5294667 32.6624847,50.9321333 31.927818,50.9321333 M31.927818,34.9548 C31.191818,34.9548 30.5971513,35.5508 30.5971513,36.2868 L30.5971513,44.2748 C30.5971513,45.0108 31.191818,45.6054667 31.927818,45.6054667 C32.6624847,45.6054667 33.2571513,45.0108 33.2571513,44.2748 L33.2571513,36.2868 C33.2571513,35.5508 32.6624847,34.9548 31.927818,34.9548 M31.927818,18.9761333 C31.191818,18.9761333 30.5971513,19.5721333 30.5971513,20.3068 L30.5971513,28.2961333 C30.5971513,29.0321333 31.191818,29.6281333 31.927818,29.6281333 C32.6624847,29.6281333 33.2571513,29.0321333 33.2571513,28.2961333 L33.2571513,20.3068 C33.2571513,19.5721333 32.6624847,18.9761333 31.927818,18.9761333 M31.927818,2.99746667 C31.191818,2.99746667 30.5971513,3.5948 30.5971513,4.32946667 L30.5971513,12.3188 C30.5971513,13.0548 31.191818,13.6508 31.927818,13.6508 C32.6624847,13.6508 33.2571513,13.0548 33.2571513,12.3188 L33.2571513,4.32946667 C33.2571513,3.5948 32.6624847,2.99746667 31.927818,2.99746667 M9.48381798,0.345466667 C8.74648465,0.244133333 8.08781798,0.764133333 7.99448465,1.4948 L0.0118179834,62.7441333 C-0.0855153499,63.4734667 0.429151317,64.1414667 1.15848465,64.2361333 C1.21715132,64.2454667 1.27448465,64.2481333 1.33181798,64.2481333 C1.99048465,64.2481333 2.56248465,63.7601333 2.64915132,63.0894667 L10.6304847,1.84013333 C10.7264847,1.10946667 10.2131513,0.440133333 9.48381798,0.345466667 M59.731818,34.9601333 C58.999818,35.0348 58.467818,35.6868 58.539818,36.4188 L61.2011513,63.0494667 C61.2704847,63.7348 61.847818,64.2481333 62.523818,64.2481333 C62.567818,64.2481333 62.611818,64.2454667 62.6571513,64.2414667 C63.387818,64.1681333 63.9211513,63.5148 63.8491513,62.7841333 L61.187818,36.1534667 C61.1144847,35.4228 60.4784847,34.8854667 59.731818,34.9601333" id="Fill-1" fill="#31A3DC"></path>
            <path d="M50.551818,0.336133333 C43.2171513,0.336133333 37.2491513,6.17346667 37.2491513,13.3508 C37.2491513,24.1454667 49.191818,34.2228 49.7011513,34.6468 C49.947818,34.8521333 50.2491513,34.9548 50.551818,34.9548 C50.8544847,34.9548 51.155818,34.8521333 51.4024847,34.6468 C51.9131513,34.2228 63.855818,24.1454667 63.855818,13.3508 C63.855818,6.17346667 57.8864847,0.336133333 50.551818,0.336133333 M50.551818,31.8401333 C47.8904847,29.3814667 39.9091513,21.3401333 39.9091513,13.3508 C39.9091513,7.6428 44.683818,2.99746667 50.551818,2.99746667 C56.419818,2.99746667 61.1944847,7.6428 61.1944847,13.3508 C61.1944847,21.3401333 53.2144847,29.3814667 50.551818,31.8401333 M50.5531513,6.99213333 C46.8851513,6.99213333 43.899818,9.9788 43.899818,13.6508 C43.899818,17.3201333 46.8851513,20.3068 50.5531513,20.3068 C54.2211513,20.3068 57.203818,17.3201333 57.203818,13.6508 C57.203818,9.9788 54.2211513,6.99213333 50.5531513,6.99213333 M50.5531513,17.6454667 C48.3531513,17.6454667 46.5611513,15.8521333 46.5611513,13.6508 C46.5611513,11.4481333 48.3531513,9.65613333 50.5531513,9.65613333 C52.7531513,9.65613333 54.5424847,11.4481333 54.5424847,13.6508 C54.5424847,15.8521333 52.7531513,17.6454667 50.5531513,17.6454667" id="Path" fill="#00973A"></path>
        </g>
    </g>
</svg>