<?xml version="1.0" encoding="UTF-8"?>
<svg width="64px" height="64px" viewBox="0 0 64 64" version="1.1" xmlns="http://www.w3.org/2000/svg" xmlns:xlink="http://www.w3.org/1999/xlink">
    <!-- Generator: Sketch 49.3 (51167) - http://www.bohemiancoding.com/sketch -->
    <title>02</title>
    <desc>Created with Sketch.</desc>
    <defs></defs>
    <g id="3-подход" stroke="none" stroke-width="1" fill="none" fill-rule="evenodd">
        <g id="02" fill-rule="nonzero">
            <path d="M43.974359,28.2821904 C43.2776916,29.0580946 42.6109867,29.8237941 41.974359,30.5794462 L41.974359,9.65957447 L46,9.65957447 C46.5522847,9.65957447 47,9.21185922 47,8.65957447 L47,7 C47,6.44771525 46.5522847,6 46,6 L3,6 C2.44771525,6 2,6.44771525 2,7 L2,8.65957447 C2,9.21185922 2.44771525,9.65957447 3,9.65957447 L11.8205128,9.65957447 C14.0296518,9.65957447 15.8205128,11.4504355 15.8205128,13.6595745 L15.8205128,14.7659574 C15.8205128,16.9750964 14.0296518,18.7659574 11.8205128,18.7659574 L7.02564103,18.7659574 L7.02564103,32.8085106 L3,32.8085106 C2.44771525,32.8085106 2,33.2562259 2,33.8085106 L2,35.4680851 C2,36.0203699 2.44771525,36.4680851 3,36.4680851 L5.02564103,36.4680851 L11.8205128,36.4680851 C14.0296518,36.4680851 15.8205128,38.2589461 15.8205128,40.4680851 L15.8205128,41.5744681 C15.8205128,43.7836071 14.0296518,45.5744681 11.8205128,45.5744681 L7.02564103,45.5744681 L7.02564103,58.3404255 L3,58.3404255 C2.44771525,58.3404255 2,58.7881408 2,59.3404255 L2,61 C2,61.5522847 2.44771525,62 3,62 L5.02564103,62 L36.2049325,62 C36.8645666,62.7304321 37.5962717,63.4020161 38.3960718,64 L3,64 C1.34314575,64 6.46995335e-16,62.6568542 4.4408921e-16,61 L4.4408921e-16,59.3404255 C2.41183085e-16,57.6835713 1.34314575,56.3404255 3,56.3404255 L5.02564103,56.3404255 L5.02564103,43.5744681 L11.8205128,43.5744681 C12.9250823,43.5744681 13.8205128,42.6790376 13.8205128,41.5744681 L13.8205128,40.4680851 C13.8205128,39.3635156 12.9250823,38.4680851 11.8205128,38.4680851 L3,38.4680851 C1.34314575,38.4680851 2.02906125e-16,37.1249394 0,35.4680851 L0,33.8085106 C-2.02906125e-16,32.1516564 1.34314575,30.8085106 3,30.8085106 L5.02564103,30.8085106 L5.02564103,16.7659574 L11.8205128,16.7659574 C12.9250823,16.7659574 13.8205128,15.8705269 13.8205128,14.7659574 L13.8205128,13.6595745 C13.8205128,12.555005 12.9250823,11.6595745 11.8205128,11.6595745 L3,11.6595745 C1.34314575,11.6595745 2.02906125e-16,10.3164287 0,8.65957447 L0,7 C-2.02906125e-16,5.34314575 1.34314575,4 3,4 L46,4 C47.6568542,4 49,5.34314575 49,7 L49,8.65957447 C49,10.3164287 47.6568542,11.6595745 46,11.6595745 L43.974359,11.6595745 L43.974359,28.2821904 Z M12,51 L31,51 L31,53 L12,53 L12,51 Z M12,26 L37,26 L37,28 L12,28 L12,26 Z M19,12 L37,12 L37,14 L19,14 L19,12 Z" id="Rectangle-3" fill="#31A3DC"></path>
            <path d="M37.4761905,51.0350571 C37.4761905,56.0899642 41.2742497,61.2789146 47.4293906,61.4049917 C53.8537638,61.5365836 58.5238095,56.0847051 58.5238095,51.0350571 C58.5238095,45.710245 54.9312363,39.5191593 47.5450322,32.5849052 C40.7866454,40.2245453 37.4761905,46.4428118 37.4761905,51.0350571 Z M47.3809524,29 C56.4603175,37.0303069 61,44.375326 61,51.0350571 C61,55.9981501 56.5043317,64.1837316 47.3809524,63.9968553 C38.2575731,63.8099791 35,55.4062519 35,51.0350571 C35,45.2435597 39.1269841,37.8985407 47.3809524,29 Z M41.0398968,50 C40.8655013,52.1595249 41.2628397,53.7509 42.231912,54.7741253 C43.6855204,56.3089632 45.7542685,55.9676566 46.9999728,55.9676566 C47.0080788,55.9676566 45.2022717,55.3584653 43.4239272,53.5805939 C42.835992,52.9928152 42.0413152,51.7992839 41.0398968,50 Z" id="Path-6" fill="#00973A"></path>
        </g>
    </g>
</svg>