<?xml version="1.0" encoding="UTF-8"?>
<svg width="64px" height="64px" viewBox="0 0 64 64" version="1.1" xmlns="http://www.w3.org/2000/svg" xmlns:xlink="http://www.w3.org/1999/xlink">
    <!-- Generator: Sketch 49.3 (51167) - http://www.bohemiancoding.com/sketch -->
    <title>02</title>
    <desc>Created with Sketch.</desc>
    <defs></defs>
    <g id="3-подход" stroke="none" stroke-width="1" fill="none" fill-rule="evenodd">
        <g id="02" fill-rule="nonzero">
            <path d="M51.703125,53.683625 C46.277375,58.61725 39.28,61.333375 32,61.333375 C25.264375,61.333375 18.903625,59.046875 13.82025,55.020875 L16.992125,49.84375 C17.212125,49.485625 17.25,49.045625 17.095,48.655 C16.93875,48.264375 16.609375,47.970125 16.204375,47.86075 L5.161375,44.871125 C4.649625,44.73175 4.104125,44.907625 3.773375,45.321625 C3.441375,45.734375 3.385375,46.30475 3.630125,46.77475 C9.17575,57.39975 20.046875,64 32,64 C39.945375,64 47.579375,61.03775 53.497375,55.6575 C54.041625,55.161375 54.082,54.319 53.58725,53.773375 C53.095,53.229125 52.24875,53.19275 51.703125,53.683625 Z M11.78125,53.246125 C10.235625,51.7695 8.841125,50.115875 7.63025,48.302125 L13.78775,49.96875 L11.78125,53.246125 Z M2.666625,32 C2.666625,19.655 10.332,9.066375 21.153625,4.74475 L24.05075,10.08075 C24.25125,10.44925 24.61325,10.701875 25.028625,10.763 C25.4375,10.819 25.86325,10.6875 26.1615,10.390625 L34.272125,2.347625 C34.648375,1.97525 34.76825,1.414 34.576875,0.9205 C34.38675,0.427 33.920625,0.092375 33.392,0.068875 L32.9285,0.04025 C32.621125,0.0195 32.3125,0 32,0 C14.3555,0 4.4408921e-16,14.3555 4.4408921e-16,32 C4.4408921e-16,34.247375 0.24875,36.535125 0.739625,38.80075 C0.875,39.42575 1.427125,39.8515 2.04175,39.8515 C2.1355,39.8515 2.2305,39.842375 2.325625,39.8215 C3.045625,39.66525 3.50275,38.955625 3.3465,38.2355 C2.895875,36.15625 2.666625,34.05725 2.666625,32 Z M30.102875,2.727875 L25.545625,7.246125 L23.707125,3.86075 C25.75525,3.25525 27.895875,2.8685 30.102875,2.727875 Z M41.739625,1.520875 C41.033875,1.289125 40.2865,1.683625 40.063875,2.384125 C39.838625,3.086 40.226625,3.836 40.927125,4.059875 C53.132875,7.958375 61.333375,19.18625 61.333375,32 C61.333375,33.423125 61.22925,34.83725 61.02475,36.233125 L54.958375,36.07425 C54.51175,36.05075 54.138,36.251375 53.877625,36.58075 C53.61725,36.910125 53.527375,37.3425 53.634125,37.74875 L56.556,48.802125 C56.691375,49.313875 57.115875,49.696625 57.639375,49.77875 C57.708375,49.789125 57.777375,49.794375 57.845125,49.794375 C58.295625,49.794375 58.721375,49.56525 58.968875,49.1785 C62.260375,44.022125 64,38.082 64,32 C64,18.020875 55.053375,5.772125 41.739625,1.520875 Z M58.296875,44.953125 L56.666625,38.7865 L60.50775,38.88675 C59.99875,40.977875 59.257875,43.01175 58.296875,44.953125 Z" id="Shape" fill="#31A3DC"></path>
            <path d="M30.93225,13.8685 C29.677,15.545625 18.666625,30.461 18.666625,37.333375 C18.666625,44.685 24.648375,50.66675 32,50.66675 C39.351625,50.66675 45.333375,44.685 45.333375,37.333375 C45.333375,30.461 34.323,15.545625 33.06775,13.8685 C32.565125,13.194 31.434875,13.194 30.93225,13.8685 Z M32,48 C26.1185,48 21.333375,43.214875 21.333375,37.333375 C21.333375,32.74875 28.2605,22.140625 32,16.925875 C35.739625,22.139375 42.666625,32.74625 42.666625,37.333375 C42.666625,43.214875 37.8815,48 32,48 Z M26.666625,37.333375 C26.666625,36.596375 26.07025,36 25.33325,36 C24.59625,36 23.999875,36.596375 23.999875,37.333375 C23.999875,41.744875 27.588375,45.333375 31.999875,45.333375 C32.736875,45.333375 33.33325,44.737 33.33325,44 C33.33325,43.263 32.736875,42.666625 31.999875,42.666625 C29.058625,42.666625 26.666625,40.27475 26.666625,37.333375 Z" id="Shape" fill="#00973A"></path>
        </g>
    </g>
</svg>