<?xml version="1.0" encoding="UTF-8"?>
<svg width="64px" height="64px" viewBox="0 0 64 64" version="1.1" xmlns="http://www.w3.org/2000/svg" xmlns:xlink="http://www.w3.org/1999/xlink">
    <!-- Generator: Sketch 49.3 (51167) - http://www.bohemiancoding.com/sketch -->
    <title>Artboard</title>
    <desc>Created with Sketch.</desc>
    <defs>
        <path d="M32,2.664 C40.088,2.664 46.6666667,9.276 46.6666667,17.404 C46.6666667,28.9386667 35.196,39.512 32,42.2333333 C28.8026667,39.5146667 17.3333333,28.9573333 17.3333333,17.404 C17.3333333,9.276 23.9133333,2.664 32,2.664 M31.184,45.0133333 C31.424,45.1986667 31.7133333,45.2933333 32,45.2933333 C32.288,45.2933333 32.5773333,45.1986667 32.8173333,45.0133333 C33.492,44.4906667 49.3333333,32.0506667 49.3333333,17.404 C49.3333333,7.808 41.5573333,0 32,0 C22.444,0 14.6666667,7.808 14.6666667,17.404 C14.6666667,32.0506667 30.5093333,44.4906667 31.184,45.0133333 M26.6666667,17.3173333 C26.6666667,14.38 29.0586667,11.9906667 32,11.9906667 C34.9426667,11.9906667 37.3333333,14.38 37.3333333,17.3173333 C37.3333333,20.256 34.9426667,22.6466667 32,22.6466667 C29.0586667,22.6466667 26.6666667,20.256 26.6666667,17.3173333 M40,17.3173333 C40,12.9106667 36.412,9.32533333 32,9.32533333 C27.5893333,9.32533333 24,12.9106667 24,17.3173333 C24,21.724 27.5893333,25.3093333 32,25.3093333 C36.412,25.3093333 40,21.724 40,17.3173333 M63.264,8.13424536 L52.5973333,2.80353845 C51.9373333,2.47553598 51.1386667,2.74220466 50.808,3.39954295 C50.4786667,4.05821459 50.7453333,4.85822063 51.404,5.18888979 L61.3333333,10.1475939 L61.3333333,60.6426418 L44,53.7145895 L44,42.6278391 C44,41.8918335 43.404,41.295829 42.6666667,41.295829 C41.9306667,41.295829 41.3333333,41.8918335 41.3333333,42.6278391 L41.3333333,53.693256 L22.6666667,60.6866421 L22.6666667,42.6278391 C22.6666667,41.8918335 22.0706667,41.295829 21.3333333,41.295829 C20.5973333,41.295829 20,41.8918335 20,42.6278391 L20,60.6413084 L2.66666667,53.7145895 L2.66666667,3.03820689 L11.6773333,5.28889055 C12.3906667,5.46755856 13.1146667,5.03155527 13.2933333,4.32088324 C13.4733333,3.60621118 13.0386667,2.88220571 12.324,2.7035377 L1.65733333,0.0395175879 C1.25866667,-0.0591498236 0.836,0.0288508407 0.513333333,0.282186087 C0.189333333,0.534187989 0,0.920857575 0,1.33152734 L0,54.6172629 C0,55.1626004 0.333333333,55.6519374 0.838666667,55.8546056 L20.8386667,63.8479993 C20.8546667,63.854666 20.8693333,63.8519993 20.8853333,63.8573327 C21.028,63.9079997 21.1786667,63.9426667 21.3333333,63.9426667 C21.4813333,63.9426667 21.6253333,63.9133331 21.7626667,63.8653327 C21.776,63.8599994 21.7893333,63.8626661 21.8026667,63.858666 L42.6533333,56.0466071 L62.172,63.8479993 C62.332,63.9119998 62.4986667,63.9413333 62.6666667,63.9413333 C62.9306667,63.9413333 63.1906667,63.8639994 63.4146667,63.7133316 C63.78,63.4653297 64,63.0519933 64,62.6093233 L64,9.32492102 C64,8.82091721 63.7146667,8.35824705 63.264,8.13424536" id="path-1"></path>
    </defs>
    <g id="3-подход" stroke="none" stroke-width="1" fill="none" fill-rule="evenodd">
        <g id="Artboard">
            <mask id="mask-2" fill="white">
                <use xlink:href="#path-1"></use>
            </mask>
            <use id="Fill-1" fill="#31A3DC" xlink:href="#path-1"></use>
            <polygon id="Rectangle" fill="#00973A" mask="url(#mask-2)" points="14 0 50 0 49 34 32 46 14 37"></polygon>
        </g>
    </g>
</svg>