<?xml version="1.0" encoding="UTF-8"?>
<svg width="64px" height="64px" viewBox="0 0 64 64" version="1.1" xmlns="http://www.w3.org/2000/svg" xmlns:xlink="http://www.w3.org/1999/xlink">
    <!-- Generator: Sketch 49.3 (51167) - http://www.bohemiancoding.com/sketch -->
    <title>02</title>
    <desc>Created with Sketch.</desc>
    <defs></defs>
    <g id="3-подход" stroke="none" stroke-width="1" fill="none" fill-rule="evenodd">
        <g id="02">
            <path d="M11.6934696,48.8760681 C7.58999513,48.8760681 4.25249635,52.2137226 4.25249635,56.3170413 C4.25249635,60.4205158 7.58999513,63.7580146 11.6934696,63.7580146 C15.7967883,63.7580146 19.1344428,60.4205158 19.1344428,56.3170413 C19.1344428,52.2137226 15.7967883,48.8760681 11.6934696,48.8760681 Z M11.6934696,61.6321557 C8.7627056,61.6321557 6.37835523,59.2478053 6.37835523,56.3170413 C6.37835523,53.3864331 8.7627056,51.001927 11.6934696,51.001927 C14.6240779,51.001927 17.0085839,53.3864331 17.0085839,56.3170413 C17.0085839,59.2478053 14.6240779,61.6321557 11.6934696,61.6321557 Z M11.7250803,55.2538005 L11.7146472,55.2538005 C11.127747,55.2538005 10.6570122,55.7301411 10.6570122,56.3170413 C10.6570122,56.9040973 11.1374015,57.3796593 11.7250803,57.3796593 C12.3119805,57.3796593 12.7883212,56.9040973 12.7883212,56.3170413 C12.7883212,55.7301411 12.3119805,55.2538005 11.7250803,55.2538005 Z M63.340691,1.42108026 C64.249927,2.99647685 63.7584818,4.88517758 62.2006813,5.81590264 L53.6362044,10.2051192 C53.6052165,10.2210024 53.5704915,10.2356399 53.5340535,10.2494987 C53.0815377,10.4855669 52.5924282,10.6065596 52.0882141,10.6065596 L50.9799708,10.6065596 L48.8984915,58.4891484 C48.8995815,61.3742871 46.5152311,63.7586374 43.5846229,63.7586374 L20.1976837,63.7586374 C19.6107835,63.7586374 19.1344428,63.2824525 19.1344428,62.6953966 C19.1344428,62.1084963 19.6107835,61.6327786 20.1976837,61.6327786 L43.584,61.6327786 C45.3425207,61.6327786 46.7730998,60.2015766 46.7730998,58.4436788 L48.9002044,9.49831627 C48.9039416,9.43929923 48.9294793,9.39071529 48.9416253,9.33527977 C48.9579757,9.25570799 48.967163,9.1759805 49.0000195,9.10481748 C49.0163698,9.06884668 49.0450219,9.0409732 49.0651095,9.00811675 C49.1174307,8.92107052 49.1714647,8.83713865 49.2457421,8.76908999 C49.2543066,8.76052551 49.2670754,8.75632113 49.2754842,8.74775666 C49.3692263,8.66678342 49.4732457,8.5999805 49.5906569,8.55560094 C49.6149489,8.54641359 49.6423552,8.54890507 49.6678929,8.5403406 C49.7627251,8.51293427 49.85709,8.48070069 49.9623552,8.48070069 L52.088837,8.48070069 C52.2567007,8.48070069 52.4264331,8.43382965 52.5949197,8.34257904 C52.6380535,8.31828707 52.689129,8.29461797 52.742073,8.27577612 L61.1709197,3.95632113 C61.8017324,3.57808269 61.751747,2.9223552 61.4993285,2.48432113 C61.3777129,2.27394644 61.1265401,1.83357661 59.9963406,2.38824327 L51.9799903,6.24957661 C51.8376642,6.31824814 51.679455,6.35484181 51.52,6.35484181 L3.18909976,6.35484181 C2.60344526,6.35484181 2.12585888,6.8316496 2.12585888,7.41745982 C2.12585888,8.00327004 2.60344526,8.48070069 3.18909976,8.48070069 L45.7104818,8.48070069 C46.2986277,8.48070069 46.7737226,8.95704133 46.7737226,9.5433187 C46.7737226,10.1303747 46.2986277,10.6065596 45.7104818,10.6065596 L6.42522628,10.6065596 L7.99392701,46.703961 C8.01946472,47.2897713 7.56570316,47.7860438 6.9786472,47.8115815 C6.96291971,47.8128272 6.94828224,47.8128272 6.93068613,47.8128272 C6.36558637,47.8128272 5.89531873,47.3676301 5.86978102,46.7964574 L4.29687591,10.6065596 L3.18909976,10.6065596 C1.43073479,10.6065596 0,9.1759805 0,7.41745982 C0,5.65956201 1.43073479,4.22820434 3.18909976,4.22820434 L51.2767689,4.22820434 L59.0687299,0.475873444 C61.210472,-0.572262809 62.6795134,0.276866144 63.340691,1.42108026 Z" id="Fill-2" fill="#31A3DC"></path>
            <path d="M11.999455,41.1686618 C11.4762433,40.2429197 11.6265109,39.0099464 12.420983,37.696 L16.3467835,30.8395912 L14.5382774,31.3603114 C13.9781606,31.5250608 13.3862774,31.1978978 13.222618,30.6334209 C13.0608273,30.0701897 13.3862774,29.4801751 13.9507543,29.3182287 L18.2779951,28.0713966 C18.2804866,28.0701508 18.2834453,28.0713966 18.2859367,28.0701508 C18.3673771,28.0469489 18.4525547,28.0519318 18.5377324,28.0488175 C18.5919221,28.0469489 18.6436204,28.0305985 18.6957859,28.0372944 C18.7390754,28.0414987 18.7786277,28.0670365 18.8223844,28.0774696 C18.9123893,28.0998929 19.0048856,28.1170219 19.0881946,28.1626472 C19.0900633,28.1649829 19.091309,28.1668515 19.0942676,28.1680973 C19.0967591,28.169343 19.098472,28.169343 19.1009635,28.1698102 C19.1507932,28.1984623 19.1825596,28.2447104 19.2263163,28.2794355 C19.2901606,28.3317567 19.3588321,28.3767591 19.4088175,28.4399805 C19.4653431,28.5134793 19.4969538,28.5975669 19.5323017,28.6814987 C19.5505207,28.7240097 19.5821314,28.7581119 19.5949002,28.8024914 L20.831455,33.1577615 C20.9915328,33.7234841 20.6629684,34.3103844 20.0984915,34.4709294 C20.0011679,34.4983357 19.9044672,34.5123503 19.8077664,34.5123503 C19.3443504,34.5123503 18.9190852,34.2063649 18.7859465,33.7385888 L18.2396886,31.8134501 L14.2530024,38.7738783 C13.810764,39.5055961 13.7737032,39.986764 13.851562,40.1242627 C13.899056,40.2100632 14.1757664,40.371854 14.8752506,40.371854 L25.5054793,40.371854 C26.0919124,40.371854 26.5680973,40.8480389 26.5680973,41.434472 C26.5680973,42.0215279 26.0919124,42.4977129 25.5054793,42.4977129 L14.8752506,42.4977129 C13.1179757,42.4977129 12.3406326,41.7745596 11.999455,41.1686618 Z M43.2591727,41.1923309 C42.913635,41.7873284 42.1344234,42.4977129 40.3874258,42.4977129 L32.3235815,42.4977129 L33.6982579,43.8717664 C34.1137129,44.2878442 34.1137129,44.959455 33.6982579,45.3755328 C33.4908418,45.582326 33.2189586,45.6869683 32.9464526,45.6869683 C32.6745693,45.6869683 32.4020633,45.582326 32.1952701,45.3755328 L29.0066375,42.1862773 C28.9082238,42.0883309 28.830365,41.9702968 28.7761752,41.8407396 C28.6690414,41.5810024 28.6690414,41.2879416 28.7761752,41.0288272 C28.830365,40.8986472 28.9082238,40.781236 29.0066375,40.6832895 L32.1952701,37.494034 C32.6107251,37.0779562 33.2834258,37.0779562 33.6982579,37.494034 C34.1137129,37.909489 34.1137129,38.5817226 33.6982579,38.9971776 L32.3235815,40.371854 L40.3874258,40.371854 C41.0912701,40.371854 41.3723406,40.2088175 41.4221703,40.123017 C41.5018978,39.986764 41.4732457,39.5001459 41.0584136,38.7709197 L35.7901703,29.6101995 C35.4981995,29.1005352 35.673382,28.4508807 36.1824234,28.1582871 C36.689129,27.8650705 37.3400292,28.040253 37.6332457,28.5494501 L42.9038248,37.7160876 C43.6629489,39.0501216 43.7883017,40.2841849 43.2591727,41.1923309 Z M36.088837,20.0207883 C36.6545596,20.1789975 36.984837,20.7648078 36.8278735,21.3305304 L35.6191922,25.6674258 C35.6191922,25.6686715 35.6179465,25.6705401 35.6168564,25.6728759 L35.6156107,25.678326 C35.5808856,25.8049245 35.5212457,25.9162627 35.448837,26.0159221 C35.4289051,26.0439513 35.4021217,26.0627932 35.3789197,26.0883309 C35.3138297,26.1619854 35.2426667,26.2264525 35.1606034,26.2787737 C35.1459659,26.2896739 35.1374015,26.3055571 35.121674,26.3139659 C35.0990949,26.3273576 35.0718443,26.3273576 35.0480195,26.3396593 C34.9695377,26.3767202 34.8862287,26.4041265 34.8004282,26.4223455 C34.7537129,26.4307542 34.7110462,26.4418102 34.6641752,26.4436788 C34.641129,26.4460146 34.6174599,26.4564477 34.5930122,26.4564477 C34.5017616,26.4564477 34.4081752,26.4447688 34.3156788,26.4204768 L30.0030754,25.261781 C29.4354842,25.1096447 29.1003796,24.5257031 29.2523601,23.9582676 C29.4051192,23.3919221 29.9903066,23.0568175 30.5547835,23.2075523 L32.3934988,23.7021119 L28.8358151,17.5154452 C28.8046715,17.4654598 28.4787543,16.9849148 27.6313382,16.9849148 C26.7671046,16.9849148 26.4701509,17.4399221 26.4397859,17.4909975 L21.6083309,25.9302773 C21.4118151,26.2727007 21.0535085,26.4648564 20.6843017,26.4648564 C20.5061606,26.4648564 20.3242822,26.4192311 20.1568856,26.3237761 C19.6478443,26.0324282 19.4714161,25.3827737 19.762764,24.8724866 L24.5826959,16.4564087 C24.8612749,15.8961362 25.8539757,14.8584331 27.6313382,14.8584331 C29.3479708,14.8584331 30.361382,15.8748029 30.6910365,16.4746277 L34.2499659,22.6637859 L34.7803406,20.7599805 C34.9373041,20.1955036 35.5243601,19.8633576 36.088837,20.0207883 Z" id="Fill-8" fill="#00973A"></path>
        </g>
    </g>
</svg>