<?xml version="1.0" encoding="UTF-8"?>
<svg width="64px" height="64px" viewBox="0 0 64 64" version="1.1" xmlns="http://www.w3.org/2000/svg" xmlns:xlink="http://www.w3.org/1999/xlink">
    <!-- Generator: Sketch 49.3 (51167) - http://www.bohemiancoding.com/sketch -->
    <title>02</title>
    <desc>Created with Sketch.</desc>
    <defs></defs>
    <g id="3-подход" stroke="none" stroke-width="1" fill="none" fill-rule="evenodd">
        <g id="02">
            <path d="M36.3279944,4.26725 L39.048375,4.26725 L39.048375,6.400875 L36.5653729,6.400875 L36.8027514,8.5345 L50.78325,8.5345 C51.37325,8.5345 51.850125,9.012375 51.850125,9.60125 L51.850125,25.8572117 L59.69975,28.875375 C60.135,29.043875 60.41125,29.475875 60.381375,29.942125 C59.673,40.608125 56.01175,50.844125 49.794375,59.54075 L48.45125,61.426875 L46.713375,60.189375 L48.058625,58.301125 C48.2230821,58.0710669 48.3856809,57.8398929 48.5464137,57.607625 L32.6475,57.607625 L32.6475,60.808125 L30.513875,60.808125 L30.513875,57.607625 L14.6148477,57.607625 C14.7752931,57.8395155 14.9375965,58.0703145 15.10175,58.3 L16.447,60.189375 L14.71025,61.426875 L13.366,59.538625 C7.14975,50.843 3.4895,40.607 2.780125,29.941 C2.749125,29.47375 3.024375,29.04275 3.46175,28.87425 L11.311375,25.8560246 L11.311375,9.60125 C11.311375,9.012375 11.78925,8.5345 12.378125,8.5345 L26.3587347,8.5345 L26.5960819,6.400875 L24.113125,6.400875 L24.113125,4.26725 L26.8334292,4.26725 L27.0707764,2.133625 L24.113125,2.133625 L24.113125,0 L39.048375,0 L39.048375,2.133625 L36.090616,2.133625 L36.3279944,4.26725 Z M45.44925,23.3960895 L49.7165,25.0368376 L49.7165,10.668125 L13.445,10.668125 L13.445,25.0356337 L17.71225,23.3948518 L17.71225,21.336125 L19.845875,21.336125 L19.845875,22.5744609 L26.600875,19.977125 C27.8609971,19.4894512 29.1737227,19.192603 30.513875,19.0913521 L30.513875,17.069 L32.6475,17.069 L32.6475,19.0924028 C33.9877821,19.1936079 35.3005943,19.4906479 36.56275,19.97925 L43.315625,22.5757154 L43.315625,21.336125 L45.44925,21.336125 L45.44925,23.3960895 Z M57.2903352,37.0362096 L33.565,27.544 C33.2651436,27.4242098 32.958198,27.3324394 32.6475,27.2687322 L32.6475,55.474125 L49.951274,55.474125 C53.4974813,49.8085687 55.9788393,43.5642077 57.2903359,37.0362062 Z M57.6771486,34.8931535 C57.9056768,33.4669785 58.078816,32.0290117 58.1955,30.58225 L35.79575,21.969875 C34.7786953,21.5764939 33.7237247,21.3299026 32.6475003,21.2333576 L32.6475,25.1032375 C33.2276927,25.1877048 33.8013577,25.3413223 34.357625,25.564 L57.6771486,34.8931535 Z M30.513875,27.2689672 C30.2042275,27.3326323 29.898375,27.4242955 29.599625,27.544 L5.87137278,37.0369858 C7.18310928,43.5649663 9.66483726,49.8091814 13.2101955,55.474125 L30.513875,55.474125 L30.513875,27.2689672 Z M30.513875,25.1031229 L30.513875,21.2322909 C29.4378516,21.3288424 28.3841908,21.5752247 27.369,21.96775 L4.966,30.58225 C5.08267779,32.0291596 5.25584857,33.4672724 5.48443215,34.8935872 L28.806,25.564 C29.3613247,25.3411251 29.9342342,25.1875293 30.513875,25.1031229 Z M33.94375,2.133625 L29.21775,2.133625 L28.5056157,8.5345 L34.6549349,8.5345 L33.94375,2.133625 Z M30.513875,14.935375 L30.513875,12.80175 L32.6475,12.80175 L32.6475,14.935375 L30.513875,14.935375 Z M26.24675,14.935375 L26.24675,12.80175 L28.380375,12.80175 L28.380375,14.935375 L26.24675,14.935375 Z M21.9795,14.935375 L21.9795,12.80175 L24.113125,12.80175 L24.113125,14.935375 L21.9795,14.935375 Z M17.71225,14.935375 L17.71225,12.80175 L19.845875,12.80175 L19.845875,14.935375 L17.71225,14.935375 Z M34.781125,14.935375 L34.781125,12.80175 L36.91475,12.80175 L36.91475,14.935375 L34.781125,14.935375 Z M39.048375,14.935375 L39.048375,12.80175 L41.182,12.80175 L41.182,14.935375 L39.048375,14.935375 Z M43.315625,14.935375 L43.315625,12.80175 L45.44925,12.80175 L45.44925,14.935375 L43.315625,14.935375 Z M13.445,14.935375 L13.445,12.80175 L15.578625,12.80175 L15.578625,14.935375 L13.445,14.935375 Z M47.582875,14.935375 L47.582875,12.80175 L49.7165,12.80175 L49.7165,14.935375 L47.582875,14.935375 Z M26.24675,19.2025 L26.24675,17.069 L28.380375,17.069 L28.380375,19.2025 L26.24675,19.2025 Z M21.9795,19.2025 L21.9795,17.069 L24.113125,17.069 L24.113125,19.2025 L21.9795,19.2025 Z M17.71225,19.2025 L17.71225,17.069 L19.845875,17.069 L19.845875,19.2025 L17.71225,19.2025 Z M34.781125,19.2025 L34.781125,17.069 L36.91475,17.069 L36.91475,19.2025 L34.781125,19.2025 Z M39.048375,19.2025 L39.048375,17.069 L41.182,17.069 L41.182,19.2025 L39.048375,19.2025 Z M43.315625,19.2025 L43.315625,17.069 L45.44925,17.069 L45.44925,19.2025 L43.315625,19.2025 Z M13.445,19.2025 L13.445,17.069 L15.578625,17.069 L15.578625,19.2025 L13.445,19.2025 Z M47.582875,19.2025 L47.582875,17.069 L49.7165,17.069 L49.7165,19.2025 L47.582875,19.2025 Z M13.445,23.46975 L13.445,21.336125 L15.578625,21.336125 L15.578625,23.46975 L13.445,23.46975 Z M47.582875,23.46975 L47.582875,21.336125 L49.7165,21.336125 L49.7165,23.46975 L47.582875,23.46975 Z" id="Fill-1" fill="#31A3DC"></path>
            <path d="M19.845875,8.60125 L19.845875,2.133625 L21.9795,2.133625 L21.9795,8.60125 L19.845875,8.60125 Z M41.182,8.60125 L41.182,2.133625 L43.315625,2.133625 L43.315625,8.60125 L41.182,8.60125 Z M15.578625,8.60125 L15.578625,2.133625 L17.71225,2.133625 L17.71225,8.60125 L15.578625,8.60125 Z M45.44925,8.60125 L45.44925,2.133625 L47.582875,2.133625 L47.582875,8.60125 L45.44925,8.60125 Z M24.70625,64 C23.263875,64 21.822625,63.542375 20.61925,62.628125 C18.976375,61.387375 16.680625,61.386375 15.03775,62.63025 C12.63425,64.456625 9.27375,64.456625 6.868125,62.628125 C5.227375,61.387375 2.9305,61.387375 1.286625,62.63025 L0,60.927625 C2.401375,59.114 5.755375,59.113 8.156875,60.927625 C9.804,62.179 12.104,62.181125 13.749,60.92975 C16.1525,59.110875 19.506625,59.113 21.908,60.927625 C23.555125,62.179 25.854125,62.181125 27.50025,60.92975 C29.90375,59.111875 33.25775,59.113 35.66025,60.927625 C37.3085,62.18 39.606375,62.18 41.252375,60.92975 C43.654875,59.110875 47.008875,59.113 49.410375,60.927625 C51.0585,62.18 53.3565,62.18 55.0025,60.92975 C57.403875,59.111875 60.759,59.111875 63.160375,60.927625 L61.87275,62.63025 C60.232,61.387375 57.93625,61.38525 56.29125,62.63025 C53.885625,64.4555 50.525125,64.456625 48.121625,62.628125 C46.47975,61.3885 44.185125,61.386375 42.541125,62.63025 C40.134375,64.4555 36.774,64.456625 34.3715,62.628125 C32.728625,61.387375 30.432875,61.386375 28.788875,62.63025 C27.587625,63.542375 26.146375,64 24.70625,64 Z" id="Path" fill="#00973A"></path>
        </g>
    </g>
</svg>