<?xml version="1.0" encoding="UTF-8"?>
<svg width="64px" height="64px" viewBox="0 0 64 64" version="1.1" xmlns="http://www.w3.org/2000/svg" xmlns:xlink="http://www.w3.org/1999/xlink">
    <!-- Generator: Sketch 49.3 (51167) - http://www.bohemiancoding.com/sketch -->
    <title>01</title>
    <desc>Created with Sketch.</desc>
    <defs>
        <path d="M9.40490946,62 L9.40490946,56.1388169 L9.40490946,52.3574085 C13.5740523,51.8725795 16.8706318,48.2851026 16.8706318,44.018994 C16.8706318,39.6559195 9.98657545,30.0569497 9.21097787,28.9904547 C8.82311469,28.5056258 8.0475171,28.5056258 7.65965392,28.9904547 C6.88405634,29.9601127 0,39.6559195 0,43.9220282 C0,48.2851026 3.29657948,51.8725795 7.46572233,52.2604427 C7.46572233,57.6901408 7.46572233,58.0247887 7.46572233,62 L9.40490946,62 Z M8.43538028,43.7280966 C7.85358551,43.7280966 7.46585111,44.1159598 7.46585111,44.6976258 L7.46585111,50.4182213 C4.36320322,49.9333924 1.93918712,47.2186076 1.93918712,43.9220282 C1.93918712,41.1102777 6.10832998,34.5171187 8.43538028,31.1235734 C10.7624306,34.5171187 14.9315734,41.2072435 14.9315734,43.9220282 C14.9315734,47.2186076 12.5075573,49.8364266 9.40490946,50.3212555 L9.40490946,44.6976258 C9.40490946,44.1159598 9.01717505,43.7280966 8.43538028,43.7280966 Z" id="path-1"></path>
    </defs>
    <g id="3-подход" stroke="none" stroke-width="1" fill="none" fill-rule="evenodd">
        <g id="01">
            <path d="M63.0228732,25.5969095 L38.5894245,25.5969095 L38.5894245,0.969529175 C38.5894245,0.387734406 38.2015614,0 37.6198954,0 L3.97534004,0 C3.39354527,0 3.00581087,0.387863179 3.00581087,0.969529175 L3.00581087,28.0209256 C3.00581087,28.6027203 3.39367404,28.9904547 3.97534004,28.9904547 C4.55713481,28.9904547 4.94486922,28.6025915 4.94486922,28.0209256 L4.94486922,1.93918712 L36.6502374,1.93918712 L36.6502374,56.1388169 L10,56.1388169 L7.46572233,56.1388169 C7.46572233,57.3669645 7.46572233,59.3061087 7.46572233,61.9562495 L0.969529175,62.0532153 C0.387734406,62.0532153 0,62.4410785 0,63.0227445 C0,63.6044105 0.387863179,63.9922736 0.969529175,63.9922736 C0.969529175,63.9922736 62.7318471,63.9922736 63.0227445,63.9922736 C63.6045392,63.9922736 63.9922736,63.6044105 63.9922736,63.0227445 L63.9922736,26.5665674 C63.9924024,25.9847726 63.6045392,25.5969095 63.0228732,25.5969095 Z M9.40490946,62.0532153 L9.40490946,58.0778753 L36.6502374,58.0778753 L36.6502374,62.0532153 L9.40490946,62.0532153 Z M53.7148008,62.0532153 L46.9277103,62.0532153 L46.9277103,61.9562495 L46.9277103,47.2186076 L53.7148008,47.2186076 L53.7148008,62.0532153 Z M55.6539879,62.0532153 L55.6539879,46.2490785 C55.6539879,45.6672837 55.2661247,45.2795493 54.6844588,45.2795493 L45.9581811,45.2795493 C45.3763863,45.2795493 44.9886519,45.6674125 44.9886519,46.2490785 L44.9886519,62.0532153 L38.5894245,62.0532153 L38.5894245,27.5360966 L62.0533441,27.5360966 L62.0533441,62.0532153 L55.6539879,62.0532153 Z M10.08367,14.7376419 L17.5493924,14.7376419 C18.1311871,14.7376419 18.5189215,14.3497787 18.5189215,13.7681127 L18.5189215,6.10832998 C18.5189215,5.52653521 18.1310584,5.1388008 17.5493924,5.1388008 L10.08367,5.1388008 C9.50187525,5.1388008 9.11414085,5.52666398 9.11414085,6.10832998 L9.11414085,13.7679839 C9.11401207,14.3497787 9.59884105,14.7376419 10.08367,14.7376419 Z M11.0531992,7.07798793 L16.5798632,7.07798793 L16.5798632,12.7985835 L11.0531992,12.7985835 L11.0531992,7.07798793 Z M23.9486197,14.7376419 L31.4144708,14.7376419 C31.9962656,14.7376419 32.384,14.3497787 32.384,13.7681127 L32.384,6.10832998 C32.384,5.52653521 31.9961368,5.1388008 31.4144708,5.1388008 L23.9486197,5.1388008 C23.3668249,5.1388008 22.9790905,5.52666398 22.9790905,6.10832998 L22.9790905,13.7679839 C22.9790905,14.3497787 23.4639195,14.7376419 23.9486197,14.7376419 Z M24.9182777,7.07798793 L30.4449416,7.07798793 L30.4449416,12.7985835 L24.9182777,12.7985835 L24.9182777,7.07798793 Z M10.08367,27.4391308 L17.5493924,27.4391308 C18.1311871,27.4391308 18.5189215,27.0512676 18.5189215,26.4696016 L18.5189215,18.8099477 C18.5189215,18.2281529 18.1310584,17.8404185 17.5493924,17.8404185 L10.08367,17.8404185 C9.50187525,17.8404185 9.11414085,18.2282817 9.11414085,18.8099477 C9.11414085,18.8099477 9.11414085,26.4696016 9.11414085,26.4696016 C9.11401207,27.0513964 9.50187525,27.4391308 10.08367,27.4391308 Z M11.0531992,19.8764427 L16.5798632,19.8764427 L16.5798632,25.5970382 L11.0531992,25.5970382 L11.0531992,19.8764427 Z M22.9790905,26.4696016 C22.9790905,27.0513964 23.3669537,27.4391308 23.9486197,27.4391308 L31.4144708,27.4391308 C31.9962656,27.4391308 32.384,27.0512676 32.384,26.4696016 L32.384,18.8099477 C32.384,18.2281529 31.9961368,17.8404185 31.4144708,17.8404185 L23.9486197,17.8404185 C23.3668249,17.8404185 22.9790905,18.2282817 22.9790905,18.8099477 L22.9790905,26.4696016 Z M24.9182777,19.8764427 L30.4449416,19.8764427 L30.4449416,25.5970382 L24.9182777,25.5970382 L24.9182777,19.8764427 Z M22.9790905,38.977159 C22.9790905,39.5589537 23.3669537,39.9466881 23.9486197,39.9466881 L31.4144708,39.9466881 C31.9962656,39.9466881 32.384,39.5588249 32.384,38.977159 L32.384,31.317505 C32.384,30.7357103 31.9961368,30.3479759 31.4144708,30.3479759 L23.9486197,30.3479759 C23.3668249,30.3479759 22.9790905,30.735839 22.9790905,31.317505 L22.9790905,38.977159 Z M24.9182777,32.2870342 L30.4449416,32.2870342 L30.4449416,38.0076298 L24.9182777,38.0076298 L24.9182777,32.2870342 Z M22.9790905,51.4848451 C22.9790905,52.0666398 23.3669537,52.4543742 23.9486197,52.4543742 L31.4144708,52.4543742 C31.9962656,52.4543742 32.384,52.0665111 32.384,51.4848451 L32.384,43.8251911 C32.384,43.2433964 31.9961368,42.855662 31.4144708,42.855662 L23.9486197,42.855662 C23.3668249,42.855662 22.9790905,43.2435252 22.9790905,43.8251911 L22.9790905,51.4848451 Z M24.9182777,44.7947203 L30.4449416,44.7947203 L30.4449416,50.5153159 L24.9182777,50.5153159 L24.9182777,44.7947203 Z M42.1767726,39.2680563 L48.4790342,39.2680563 C49.060829,39.2680563 49.4485634,38.8801932 49.4485634,38.2985272 L49.4485634,31.9962656 C49.4485634,31.4144708 49.0607002,31.0267364 48.4790342,31.0267364 L42.1767726,31.0267364 C41.5949779,31.0267364 41.2072435,31.4145996 41.2072435,31.9962656 L41.2072435,38.2985272 C41.2072435,38.8801932 41.6920724,39.2680563 42.1767726,39.2680563 Z M43.1464306,32.9657948 L47.509505,32.9657948 L47.509505,37.3288692 L43.1464306,37.3288692 L43.1464306,32.9657948 Z M52.3574085,39.2680563 L58.65967,39.2680563 C59.2414648,39.2680563 59.6291992,38.8801932 59.6291992,38.2985272 L59.6291992,31.9962656 C59.6291992,31.4144708 59.241336,31.0267364 58.65967,31.0267364 L52.3574085,31.0267364 C51.7756137,31.0267364 51.3878793,31.4145996 51.3878793,31.9962656 L51.3878793,38.2985272 C51.3878793,38.8801932 51.7757425,39.2680563 52.3574085,39.2680563 Z M53.3270664,32.9657948 L57.6901408,32.9657948 L57.6901408,37.3288692 L53.3270664,37.3288692 L53.3270664,32.9657948 Z" id="Shape" fill="#31A3DC" fill-rule="nonzero"></path>
            <mask id="mask-2" fill="white">
                <use xlink:href="#path-1"></use>
            </mask>
            <use id="Shape-Copy" fill="#00973A" fill-rule="nonzero" xlink:href="#path-1"></use>
        </g>
    </g>
</svg>