<?xml version="1.0" encoding="UTF-8"?>
<svg width="64px" height="64px" viewBox="0 0 64 64" version="1.1" xmlns="http://www.w3.org/2000/svg" xmlns:xlink="http://www.w3.org/1999/xlink">
    <!-- Generator: Sketch 49.3 (51167) - http://www.bohemiancoding.com/sketch -->
    <title>01</title>
    <desc>Created with Sketch.</desc>
    <defs></defs>
    <g id="3-подход" stroke="none" stroke-width="1" fill="none" fill-rule="evenodd">
        <g id="01">
            <path d="M35.6049238,37.909036 L31.9145539,35.1875326 C31.470479,34.8608455 30.8739205,34.8395108 30.4111195,35.1315291 C29.0133535,36.0102506 27.4965433,36.6422901 25.9021537,37.0089797 C25.3577606,37.1343209 24.9498002,37.5836823 24.8762335,38.1357168 L24.279675,42.6466654 L21.0547814,42.6573327 L20.3619174,38.1210492 C20.2789878,37.5796821 19.8723649,37.1423214 19.3373349,37.0209805 C17.7576586,36.6622914 16.2502114,36.0422526 14.8564581,35.172865 C14.639771,35.0395233 14.3949947,34.9715191 14.1502185,34.9715191 C13.865315,34.9715191 13.581749,35.0621914 13.3436607,35.2422026 L9.71348172,37.9903744 L7.4061646,35.6955643 L10.1053912,31.9913328 C10.4264093,31.5486385 10.4464729,30.9579349 10.1562191,30.4952393 C9.26405647,29.0738171 8.63004585,27.5350543 8.26890057,25.9229535 C8.14584365,25.3735858 7.68973053,24.9575598 7.13062412,24.8895556 L2.68853707,24.3348543 L2.67649889,21.1053191 L7.18947743,20.4239432 C7.73253293,20.3426047 8.16858243,19.9372461 8.29163934,19.402546 C8.66482281,17.7811113 9.30819645,16.2450153 10.2057094,14.8355939 C10.5106765,14.3595641 10.4812499,13.7435256 10.1334803,13.2968311 L7.34463614,9.71927412 L9.60380056,7.4377982 L13.2500304,10.2193054 C13.6941053,10.5593266 14.302702,10.5846615 14.7735285,10.2873096 C16.17932,9.40058754 17.7108435,8.76321437 19.3252967,8.39252453 C19.8710274,8.26851678 20.2789878,7.81648853 20.3512168,7.2617872 L20.9397499,2.68416776 L24.1579557,2.67483384 L24.8254057,7.2777882 C24.9043226,7.82448903 25.312283,8.26584995 25.8513258,8.38719087 C27.4283269,8.74587995 28.9317614,9.36325187 30.321502,10.2259725 C30.7923284,10.5179907 31.3955748,10.4913224 31.8369746,10.153968 L35.5126311,7.34712586 L37.8012222,9.62726837 L35.0404671,13.3034981 C34.7060733,13.7488593 34.6833345,14.3542305 34.9816138,14.8235931 C35.8777891,16.2276809 36.5225003,17.7611101 36.8970214,19.3798779 C37.0227534,19.9212451 37.4721787,20.3292706 38.0245972,20.4012751 L42.533563,20.9933121 L42.542926,24.234848 L38.0152342,24.9335583 C37.4721787,25.0162302 37.0374667,25.4242557 36.9157474,25.9589558 C36.5559397,27.5483884 35.9312921,29.0644832 35.0578555,30.4632373 C34.763589,30.9339334 34.7916781,31.5379711 35.1274094,31.979332 L37.886827,35.604892 L35.6049238,37.909036 Z M40.7157984,34.9115153 L37.7958719,31.0752755 C38.4352328,29.9192033 38.9368235,28.7017939 39.2952936,27.4377149 L44.0864878,26.699002 C44.7392244,26.5989958 45.2207515,26.0349605 45.2180763,25.3762527 L45.2006878,19.8172386 C45.1980127,19.1491968 44.7017723,18.5851616 44.038335,18.4984895 L39.2631918,17.8704502 C38.8926835,16.5877034 38.3737043,15.354293 37.7169549,14.1888868 L40.6355439,10.3033106 C41.0354789,9.77127737 40.9819758,9.02456404 40.5098118,8.55520137 L36.570653,4.6309561 C36.098489,4.1589266 35.3481093,4.10959018 34.8184296,4.51628227 L30.9260859,7.48713461 C29.7851343,6.86042878 28.5853294,6.36573119 27.3413845,6.01237577 L26.6351449,1.1440715 C26.5415146,0.486697085 25.9757203,0.0293351668 25.3096079,0 L19.7600086,0.0160010001 C19.0885459,0.0173344167 18.5240892,0.517365669 18.4384844,1.18140717 L17.8165119,6.02437652 C16.5404653,6.38973269 15.3152464,6.90043128 14.1528936,7.54847178 L10.2899766,4.60295435 C9.75628413,4.19759568 9.0045669,4.24959893 8.53106529,4.72429527 L4.618658,8.67387545 C4.14649397,9.15123862 4.10101642,9.90461904 4.51432714,10.4353189 L7.46368033,14.218222 C6.80425578,15.3889618 6.28795178,16.6263725 5.91744346,17.914453 L1.1369499,18.6371648 C0.481538082,18.7358377 -0.00266411976,19.2998729 1.1030525e-05,19.962581 L0.0200746577,25.5202617 C0.022749808,26.1923037 0.523002912,26.7576724 1.19045291,26.8403442 L5.89470469,27.4270475 C6.25852513,28.7124612 6.77215398,29.9512053 7.4275658,31.1286122 L4.57318045,35.0475238 C4.18528365,35.5808905 4.24279939,36.3156031 4.71095069,36.7796321 L8.65144706,40.7025439 C9.12361108,41.1719066 9.86730286,41.221243 10.3996578,40.821218 L14.2451863,37.9103694 C15.3941634,38.5450757 16.6019937,39.0424402 17.8553016,39.3984624 L18.5869552,44.1987624 C18.6872734,44.8521366 19.2490549,45.3335 19.9084795,45.3335 L19.9124922,45.3335 L25.4554036,45.3148322 C26.1241912,45.3134988 26.6873103,44.8174678 26.7742527,44.1547597 L27.4069257,39.3784612 C28.6695967,39.0144384 29.88679,38.5064067 31.0397798,37.8636998 L34.9481744,40.7438798 C35.484542,41.1385712 36.2255586,41.0799008 36.6910348,40.6092047 L40.6021045,36.6596246 C41.0702558,36.1862616 41.1184085,35.4408817 40.7157984,34.9115153 Z M22.6077061,28.0670875 C19.6744038,28.0670875 17.2895073,25.6722712 17.2895073,22.7294206 C17.2895073,19.78657 19.6744038,17.3944205 22.6077061,17.3944205 C25.5396708,17.3944205 27.9259049,19.78657 27.9259049,22.7294206 C27.9259049,25.6722712 25.5396708,28.0670875 22.6077061,28.0670875 Z M22.6077061,14.7222535 C18.2017336,14.7222535 14.6170322,18.314478 14.6170322,22.7294206 C14.6170322,27.1443632 18.2017336,30.7379211 22.6077061,30.7379211 C27.0136786,30.7379211 30.5970424,27.1443632 30.5970424,22.7294206 C30.5970424,18.314478 27.0136786,14.7222535 22.6077061,14.7222535 Z" id="Fill-1" fill="#31A3DC"></path>
            <path d="M62.487509,49.1510719 L60.6978335,48.3643561 C60.601528,48.3203534 60.431656,48.1270079 60.4035669,48.0483364 C60.3928663,47.9909994 60.378153,47.9336625 60.3607645,47.877659 L60.227007,47.4549659 C59.9755429,46.61358 59.7093654,46.1028814 59.6866266,46.0615455 C59.6518497,45.9708732 59.6625503,45.7481926 59.7053527,45.6655208 L60.4249681,44.5267829 C61.0656666,43.5120528 60.8904443,42.1319666 60.0196829,41.3159156 L58.2567588,39.6664792 C57.4247871,38.8864304 55.9668302,38.7864242 55.0184894,39.4691335 L53.6742264,40.4558618 C53.6193858,40.4945309 53.4160744,40.5772027 53.089706,40.5665354 C53.0442285,40.5532012 52.9974134,40.5425339 52.9505982,40.5345334 L51.468565,40.2691835 C51.361559,40.2531825 51.1435342,40.1065067 51.0860185,40.0131675 L50.4292691,38.7517553 C49.8888887,37.7196908 48.5713772,37.1609892 47.4438014,37.5010105 L45.1284588,38.2063879 C43.9821569,38.5584099 43.2184015,39.7211492 43.3508214,40.9092235 L43.5327316,42.5693272 C43.5461074,42.7080026 43.4243881,43.0333563 43.2505033,43.2107007 L42.4854103,44.069421 C42.4051558,44.165427 42.1322905,44.2947684 42.0132463,44.2961018 L40.3733792,44.229431 C39.221727,44.229431 38.1583547,45.0734838 37.9002027,46.1882201 L37.3504593,48.5483676 C37.0856195,49.717774 37.710267,50.9618518 38.8030659,51.4432152 L40.1727429,52.0459195 C40.2663731,52.0965894 40.4215319,52.3019355 40.4429331,52.3926079 C40.4429331,52.3926079 40.468347,52.6499573 40.6984099,53.3846699 C40.9017213,54.0673792 40.9699377,54.2087214 40.9873261,54.2487239 C41.0261158,54.3500635 41.0073898,54.6100798 40.9565619,54.703419 L40.1740805,55.9408296 C39.5373947,56.9315582 39.712617,58.3449799 40.5766906,59.1623643 L42.3409522,60.8144676 C43.1769367,61.59985 44.6643202,61.6745213 45.5711962,61.0051462 L46.7268611,60.15976 C46.7723386,60.1317582 46.9328477,60.0770882 47.1160955,60.0770882 L48.8669813,60.4864471 C48.9967261,60.5131154 49.2682539,60.7064608 49.3297823,60.815801 L50.2807982,62.6385816 C50.7101599,63.4666333 51.6063352,64 52.5627014,64 C52.8088153,64 53.0469036,63.9653312 53.266266,63.8986603 L55.5709079,63.1946163 C56.7024965,62.8532617 57.4889907,61.6625206 57.3592459,60.4851137 L57.1331957,58.4583203 C57.1238327,58.3276455 57.236189,58.0329604 57.3271441,57.9422881 C57.3632586,57.9102861 57.396698,57.8769506 57.4287998,57.8409484 L58.5336369,56.6155385 C58.5470126,56.6022043 58.6125538,56.5195325 58.6219168,56.5048649 C58.696821,56.415526 58.9509603,56.2928516 59.0659918,56.2901848 L60.9078328,56.367523 C62.0581474,56.367523 63.1255323,55.5261371 63.3917098,54.4047336 L63.938778,52.047253 C64.2049555,50.8778465 63.5816455,49.6311019 62.487509,49.1510719 Z M60.8155401,53.6913557 L59.0673294,53.6206846 C58.1203262,53.6206846 57.0823678,54.1313832 56.5098857,54.8714295 L55.4839655,56.0088339 C54.7951144,56.6675417 54.3751158,57.8049461 54.478109,58.7503386 L54.6921211,60.6704586 L52.6001535,61.3078317 L51.6946152,59.5717232 C51.2398396,58.7143363 50.2179322,57.9876242 49.3846229,57.8702836 L48.1125889,57.5622643 C47.8116345,57.4582578 47.4759032,57.4062546 47.1160955,57.4062546 C46.3764164,57.4062546 45.6541258,57.6276017 45.1458473,58.0062921 L44.0811375,58.783674 L42.4827352,57.2875805 L43.2117136,56.1341751 C43.7561067,55.279455 43.8336861,54.0033752 43.4350887,53.1846574 C43.4190378,53.1379878 43.3682099,52.9939788 43.2518409,52.6046211 C43.1354718,52.2312645 43.094007,52.05392 43.0873191,52.0205846 C42.942861,51.0205221 42.1670674,50.0017918 41.2481533,49.6017668 L39.9787945,49.0430652 L40.4763724,46.9042648 L42.007896,46.965602 C42.9709501,46.965602 44.0436853,46.437569 44.5426009,45.7695273 L45.1618982,45.0734838 C45.86145,44.4107757 46.2948243,43.237369 46.1891559,42.2786424 L46.0179463,40.7265454 L48.1139265,40.0878388 L48.7144977,41.2412442 C49.1772987,42.1386337 50.2420086,42.8493448 51.1154451,42.9133488 L52.412893,43.1506969 C53.3023805,43.3827114 54.5289369,43.1466967 55.2592529,42.6053295 L56.5085481,41.6892722 L58.1109631,43.189366 L57.450201,44.2334313 C56.8964449,45.1014855 56.8402667,46.389566 57.3164435,47.2922891 C57.3191186,47.2976228 57.4930034,47.6363106 57.6749136,48.2416818 L57.7939578,48.6190387 C57.9959317,49.5190949 58.7516616,50.4284851 59.6250982,50.8085089 L61.3104429,51.551222 L60.8155401,53.6913557 Z M50.6419435,45.4108382 C47.6992782,45.4108382 45.3063563,47.8043211 45.3063563,50.7458383 C45.3063563,53.6873555 47.6992782,56.079505 50.6419435,56.079505 C53.5846088,56.079505 55.9775308,53.6873555 55.9775308,50.7458383 C55.9775308,47.8043211 53.5846088,45.4108382 50.6419435,45.4108382 Z M50.6419435,53.4100048 C49.173286,53.4100048 47.9774938,52.2152635 47.9774938,50.7458383 C47.9774938,49.2777465 49.173286,48.0830052 50.6419435,48.0830052 C52.110601,48.0830052 53.3063932,49.2777465 53.3063932,50.7458383 C53.3063932,52.2152635 52.110601,53.4100048 50.6419435,53.4100048 Z" id="Path" fill="#00973A"></path>
        </g>
    </g>
</svg>