<?xml version="1.0" encoding="UTF-8"?>
<svg width="64px" height="64px" viewBox="0 0 64 64" version="1.1" xmlns="http://www.w3.org/2000/svg" xmlns:xlink="http://www.w3.org/1999/xlink">
    <!-- Generator: Sketch 49.3 (51167) - http://www.bohemiancoding.com/sketch -->
    <title>02</title>
    <desc>Created with Sketch.</desc>
    <defs></defs>
    <g id="3-подход" stroke="none" stroke-width="1" fill="none" fill-rule="evenodd">
        <g id="02">
            <path d="M63.264,8.13466667 L52.5973333,2.804 C51.9373333,2.476 51.1386667,2.74266667 50.808,3.4 C50.4786667,4.05866667 50.7453333,4.85866667 51.404,5.18933333 L61.3333333,10.148 L61.3333333,60.6426667 L44,53.7146667 L44,42.628 C44,41.892 43.404,41.296 42.6666667,41.296 C41.9306667,41.296 41.3333333,41.892 41.3333333,42.628 L41.3333333,53.6933333 L22.6666667,60.6866667 L22.6666667,42.628 C22.6666667,41.892 22.0706667,41.296 21.3333333,41.296 C20.5973333,41.296 20,41.892 20,42.628 L20,60.6413333 L2.66666667,53.7146667 L2.66666667,3.03866667 L11.6773333,5.28933333 C12.3906667,5.468 13.1146667,5.032 13.2933333,4.32133333 C13.4733333,3.60666667 13.0386667,2.88266667 12.324,2.704 L1.65733333,0.04 C1.25866667,-0.0586666667 0.836,0.0293333333 0.513333333,0.282666667 C0.189333333,0.534666667 0,0.921333333 0,1.332 L0,54.6173333 C0,55.1626667 0.333333333,55.652 0.838666667,55.8546667 L20.8386667,63.848 C20.8546667,63.8546667 20.8693333,63.852 20.8853333,63.8573333 C21.028,63.908 21.1786667,63.9426667 21.3333333,63.9426667 C21.4813333,63.9426667 21.6253333,63.9133333 21.7626667,63.8653333 C21.776,63.86 21.7893333,63.8626667 21.8026667,63.8586667 L42.6533333,56.0466667 L62.172,63.848 C62.332,63.912 62.4986667,63.9413333 62.6666667,63.9413333 C62.9306667,63.9413333 63.1906667,63.864 63.4146667,63.7133333 C63.78,63.4653333 64,63.052 64,62.6093333 L64,9.32533333 C64,8.82133333 63.7146667,8.35866667 63.264,8.13466667" id="Fill-1" fill="#31A3DC"></path>
            <path d="M32,2.664 C40.088,2.664 46.6666667,9.276 46.6666667,17.404 C46.6666667,28.9386667 35.196,39.512 32,42.2333333 C28.8026667,39.5146667 17.3333333,28.9573333 17.3333333,17.404 C17.3333333,9.276 23.9133333,2.664 32,2.664 M31.184,45.0133333 C31.424,45.1986667 31.7133333,45.2933333 32,45.2933333 C32.288,45.2933333 32.5773333,45.1986667 32.8173333,45.0133333 C33.492,44.4906667 49.3333333,32.0506667 49.3333333,17.404 C49.3333333,7.808 41.5573333,0 32,0 C22.444,0 14.6666667,7.808 14.6666667,17.404 C14.6666667,32.0506667 30.5093333,44.4906667 31.184,45.0133333 M40,17.3173333 C40,21.724 36.412,25.3093333 32,25.3093333 C27.5893333,25.3093333 24,21.724 24,17.3173333 C24,12.9106667 27.5893333,9.32533333 32,9.32533333 C36.412,9.32533333 40,12.9106667 40,17.3173333 Z M26.6666667,17.3173333 C26.6666667,20.256 29.0586667,22.6466667 32,22.6466667 C34.9426667,22.6466667 37.3333333,20.256 37.3333333,17.3173333 C37.3333333,14.38 34.9426667,11.9906667 32,11.9906667 C29.0586667,11.9906667 26.6666667,14.38 26.6666667,17.3173333 Z" id="Path" fill="#00973A"></path>
        </g>
    </g>
</svg>