<?xml version="1.0" encoding="UTF-8"?>
<svg width="64px" height="64px" viewBox="0 0 64 64" version="1.1" xmlns="http://www.w3.org/2000/svg" xmlns:xlink="http://www.w3.org/1999/xlink">
    <!-- Generator: Sketch 49.3 (51167) - http://www.bohemiancoding.com/sketch -->
    <title>Artboard</title>
    <desc>Created with Sketch.</desc>
    <defs></defs>
    <g id="3-подход" stroke="none" stroke-width="1" fill="none" fill-rule="evenodd">
        <g id="Artboard">
            <path d="M42.968492,44.8794924 L34.3065193,31.1205905 L60.0137303,5.40235161 L42.968492,44.8794924 Z M58.5269588,4.0609489 L32.8799005,29.7180327 L19.1631054,21.4079527 L58.5269588,4.0609489 Z M63.9998417,1.03527374 C64.0008443,0.99817964 63.9968341,0.964093174 63.994829,0.926999078 C63.9888138,0.843787998 63.9737756,0.762582005 63.946707,0.682378555 C63.935679,0.648292088 63.9266561,0.616210708 63.9126205,0.583126785 C63.8634959,0.47585467 63.8013382,0.373595271 63.7151195,0.287376562 C63.7151195,0.287376562 63.7141169,0.286374019 63.7141169,0.285371476 C63.7131144,0.285371476 63.7131144,0.283366389 63.7121119,0.283366389 C63.6248906,0.196145137 63.5226312,0.134990006 63.4153591,0.0858653929 C63.3822752,0.0718297891 63.3501938,0.0628069009 63.3161073,0.0517789265 C63.2369064,0.0257128051 63.156703,0.00967211506 63.0724893,0.00465939941 C63.0353952,0.00165177002 62.9993037,-0.00135585936 62.9622096,0.000649226895 C62.8729833,0.00465939941 62.7847595,0.0237077189 62.6975382,0.0527814696 C62.6704696,0.0608018146 62.6434009,0.0628069009 62.6183373,0.0738348753 C62.6133246,0.0758399616 62.6083119,0.0758399616 62.6032992,0.0778450478 L16.596595,20.3522747 C16.2557303,20.5026562 16.0261479,20.8294853 16.0020869,21.2014288 C15.9780259,21.5743748 16.1634963,21.9292751 16.4823051,22.1237685 L32.2573212,31.6800096 C32.2703542,31.6940452 32.2743644,31.7120909 32.2884,31.725124 C32.3054433,31.7421672 32.3295043,31.749185 32.3475501,31.7652257 L42.2877652,47.5532749 C42.4722331,47.845015 42.7920444,48.02046 43.1349141,48.02046 C43.1589752,48.02046 43.1850413,48.0194575 43.2111074,48.0174524 C43.5810458,47.9893812 43.9058698,47.7577937 44.0522411,47.4159265 L63.9256535,1.390174 C63.9266561,1.38616383 63.9266561,1.38115112 63.9286612,1.37714094 C63.9366815,1.35909517 63.9376841,1.33804176 63.9436993,1.31899344 C63.9767832,1.22575693 63.9958316,1.13151788 63.9998417,1.03527374 Z" id="Fill-1" fill="#31A3DC"></path>
            <path d="M4.9572648,60.2157249 C4.56674051,60.6062492 3.93357553,60.6062492 3.54305123,60.2157249 C3.15252694,59.8252006 3.15252694,59.1920356 3.54305123,58.8015113 L24.7992343,37.5453283 C25.1897586,37.154804 25.8229236,37.154804 26.2134479,37.5453283 C26.6039722,37.9358526 26.6039722,38.5690175 26.2134479,38.9595418 L4.9572648,60.2157249 Z M6.70710678,45.4658829 C6.31658249,45.8564072 5.68341751,45.8564072 5.29289322,45.4658829 C4.90236893,45.0753586 4.90236893,44.4421937 5.29289322,44.0516694 L16.0516694,33.2928932 C16.4421937,32.9023689 17.0753586,32.9023689 17.4658829,33.2928932 C17.8564072,33.6834175 17.8564072,34.3165825 17.4658829,34.7071068 L6.70710678,45.4658829 Z M1.70710678,50.4658829 C1.31658249,50.8564072 0.683417511,50.8564072 0.292893219,50.4658829 C-0.0976310729,50.0753586 -0.0976310729,49.4421937 0.292893219,49.0516694 L1.81870261,47.52586 C2.2092269,47.1353357 2.84239188,47.1353357 3.23291617,47.52586 C3.62344046,47.9163843 3.62344046,48.5495492 3.23291617,48.9400735 L1.70710678,50.4658829 Z M20.7071068,58.4658829 C20.3165825,58.8564072 19.6834175,58.8564072 19.2928932,58.4658829 C18.9023689,58.0753586 18.9023689,57.4421937 19.2928932,57.0516694 L30.0516694,46.2928932 C30.4421937,45.9023689 31.0753586,45.9023689 31.4658829,46.2928932 C31.8564072,46.6834175 31.8564072,47.3165825 31.4658829,47.7071068 L20.7071068,58.4658829 Z M15.7071068,63.4658829 C15.3165825,63.8564072 14.6834175,63.8564072 14.2928932,63.4658829 C13.9023689,63.0753586 13.9023689,62.4421937 14.2928932,62.0516694 L15.8187026,60.52586 C16.2092269,60.1353357 16.8423919,60.1353357 17.2329162,60.52586 C17.6234405,60.9163843 17.6234405,61.5495492 17.2329162,61.9400735 L15.7071068,63.4658829 Z" id="Path-9" fill="#00973A" fill-rule="nonzero"></path>
        </g>
    </g>
</svg>