<?xml version="1.0" encoding="UTF-8"?>
<svg width="64px" height="64px" viewBox="0 0 64 64" version="1.1" xmlns="http://www.w3.org/2000/svg" xmlns:xlink="http://www.w3.org/1999/xlink">
    <!-- Generator: Sketch 49.3 (51167) - http://www.bohemiancoding.com/sketch -->
    <title>02</title>
    <desc>Created with Sketch.</desc>
    <defs>
        <path d="M57.2159706,0.246813543 C56.9833155,0.0525957418 56.6794107,-0.0303726031 56.3797247,0.00993970006 C56.0806637,0.0538457357 55.8133212,0.222282413 55.6455095,0.474468682 L51.3791241,6.87396868 C51.2625622,7.04912408 51.19975,7.25599807 51.19975,7.46599704 L51.19975,17.0661064 L4.26638542,17.0661064 C1.91342816,17.0661064 0,18.9795346 0,21.3324918 C0,23.6859178 1.91342816,25.599346 4.26638542,25.599346 L6.400125,25.599346 L6.400125,34.1327418 L1.06686979,34.1327418 C0.477966416,34.1327418 0,34.610552 0,35.1996116 L0,41.5991116 C0,42.188015 0.477966416,42.6659814 1.06686979,42.6659814 L13.8664948,42.6659814 C14.4555544,42.6659814 14.9333646,42.188015 14.9333646,41.5991116 L14.9333646,35.1996116 C14.9333646,34.610552 14.4555544,34.1327418 13.8664948,34.1327418 L11.7333802,34.1327418 C11.1443206,34.1327418 10.6665104,34.610552 10.6665104,35.1996116 C10.6665104,35.78789 11.1443206,36.2658564 11.7333802,36.2658564 L12.80025,36.2658564 L12.80025,40.5328668 L2.13311458,40.5328668 L2.13311458,36.2658564 L7.46699479,36.2658564 C8.05542942,36.2658564 8.53323958,35.78789 8.53323958,35.1996116 L8.53323958,25.599346 L25.599875,25.599346 L25.599875,30.7830707 L17.3289779,59.7326168 L13.8664948,59.7326168 C13.2780602,59.7326168 12.80025,60.210427 12.80025,60.7994866 L12.80025,62.9326012 C12.80025,63.5216608 13.2780602,63.998846 13.8664948,63.998846 C14.4555544,63.998846 14.9333646,63.5216608 14.9333646,62.9326012 L14.9333646,61.8657314 L49.0664792,61.8657314 L49.0664792,62.9326012 C49.0664792,63.5216608 49.5444456,63.998846 50.133349,63.998846 C50.7217836,63.998846 51.19975,63.5216608 51.19975,62.9326012 L51.19975,60.7994866 C51.19975,60.210427 50.7217836,59.7326168 50.133349,59.7326168 L46.6708659,59.7326168 L38.400125,30.7830707 L38.400125,25.599346 L52.0499021,25.599346 L61.1154828,29.4427647 C59.9850196,35.164143 57.849405,38.447252 56.673942,39.8870887 L53.3328646,34.8761757 L53.3328646,28.7994866 C53.3328646,28.210427 52.8548982,27.7326168 52.2666198,27.7326168 C51.6775602,27.7326168 51.19975,28.210427 51.19975,28.7994866 L51.19975,35.1996116 C51.19975,35.4096106 51.2625622,35.6164846 51.3791241,35.791015 L55.4666042,41.9225475 L55.4666042,56.5324762 C55.4666042,57.1215358 55.9445706,57.599346 56.532849,57.599346 C57.1219086,57.599346 57.599875,57.1215358 57.599875,56.5324762 L57.599875,42.0592656 C59.0451804,40.6042727 64,34.6489893 64,21.3324918 C64,6.07491009 57.4930005,0.477437417 57.2159706,0.246813543 Z M53.3328646,7.78943296 L56.673942,2.77914493 C57.85003,4.22132539 59.9843946,7.50443436 61.1154828,13.2226877 L53.3328646,16.5223591 L53.3328646,7.78943296 Z M19.5475608,59.7326168 L23.032075,47.5328327 L30.0139159,51.9756235 L22.573796,56.7095066 C22.0769235,57.0249738 21.9303617,57.6854393 22.2459851,58.1829369 C22.4498904,58.5015291 22.7959824,58.6766845 23.1475432,58.6766845 C23.3439485,58.6766845 23.542385,58.6229348 23.7194154,58.5099666 L32,53.2396798 L42.2026064,59.7326168 L19.5475608,59.7326168 Z M44.0690036,58.3904359 L23.6448845,45.3936244 L26.0734664,36.8908534 L30.0639157,39.5269342 L26.0783102,42.1581714 C25.5870626,42.4822323 25.4515945,43.1450416 25.7769054,43.6364454 C25.9812794,43.9470689 26.3206527,44.1144118 26.6673698,44.1144118 C26.8687751,44.1144118 27.0726803,44.0581621 27.2539294,43.9386315 L32,40.804428 L39.6390252,45.8489346 L34.6049873,49.053294 C34.1087397,49.3700112 33.9615529,50.0279767 34.2784264,50.5260993 C34.4823316,50.8453165 34.8265487,51.0198469 35.1787345,51.0198469 C35.3745148,51.0198469 35.5729513,50.9654721 35.7512317,50.8526602 L40.9671437,47.5328327 L44.0690036,58.3904359 Z M39.781837,43.3867591 L26.6881509,34.7394576 L27.6915835,31.2261935 C27.7195522,31.1297877 27.7329896,31.032132 27.7329896,30.9326012 L27.7329896,25.599346 L36.2662292,25.599346 L36.2662292,30.9326012 C36.2662292,31.032132 36.2802916,31.1297877 36.3084165,31.2261935 L37.3118491,34.7394576 L34.6495183,36.4983553 C34.1574895,36.8225725 34.0232714,37.4853817 34.3479573,37.9760043 C34.5524875,38.287409 34.8918609,38.4545957 35.2384217,38.4545957 C35.439827,38.4545957 35.6449822,38.398346 35.8249813,38.2788153 L37.9263773,36.8908534 L39.781837,43.3867591 Z M53.3328646,23.8257609 L53.3328646,22.3993616 C53.3328646,21.810302 52.8548982,21.3324918 52.2666198,21.3324918 C51.6775602,21.3324918 51.19975,21.810302 51.19975,22.3993616 L51.19975,23.4662314 L4.26638542,23.4662314 C3.09014116,23.4662314 2.13311458,22.5092048 2.13311458,21.3324918 C2.13311458,20.1562476 3.09014116,19.199221 4.26638542,19.199221 L52.2666198,19.199221 C52.4136503,19.199221 52.5541184,19.1693774 52.6822428,19.1150027 L61.4761061,15.3883021 C61.7178236,17.1675122 61.8661042,19.1376588 61.8661042,21.3324918 C61.8661042,23.5279499 61.7178236,25.4980965 61.4761061,27.2773066 L53.3328646,23.8257609 Z" id="path-1"></path>
    </defs>
    <g id="3-подход" stroke="none" stroke-width="1" fill="none" fill-rule="evenodd">
        <g id="02">
            <mask id="mask-2" fill="white">
                <use xlink:href="#path-1"></use>
            </mask>
            <use id="Fill-1" fill="#31A3DC" xlink:href="#path-1"></use>
            <path d="M0,25.3333333 L20,25.3333333 L20,44 L0,44 L0,25.3333333 Z M54.6666667,41.3333333 L58.6666667,41.3333333 L58.6666667,58.6666667 L54.6666667,58.6666667 L54.6666667,41.3333333 Z" id="Rectangle-18" fill="#00973A" mask="url(#mask-2)"></path>
        </g>
    </g>
</svg>