<?xml version="1.0" encoding="UTF-8"?>
<svg width="72px" height="64px" viewBox="0 0 72 64" version="1.1" xmlns="http://www.w3.org/2000/svg" xmlns:xlink="http://www.w3.org/1999/xlink">
    <!-- Generator: Sketch 49.3 (51167) - http://www.bohemiancoding.com/sketch -->
    <title>02</title>
    <desc>Created with Sketch.</desc>
    <defs></defs>
    <g id="3-подход" stroke="none" stroke-width="1" fill="none" fill-rule="evenodd">
        <g id="02" fill-rule="nonzero">
            <path d="M66.9597188,37.5009958 L65.0951719,29.9683827 C65.6049375,29.8590188 65.9874375,29.4022472 65.9874375,28.8550018 L65.9874375,27.6404949 C65.9874375,25.0035477 63.8632969,22.8583117 61.2525938,22.8583117 L52.7599688,22.8583117 L52.7599688,20.3531693 C52.7599688,19.0555743 51.7148438,18 50.4300938,18 L7.1398125,18 C5.8550625,18 4.8099375,19.0555743 4.8099375,20.3531693 L4.8099375,41.000213 C4.8099375,41.6289842 5.31464063,42.1388754 5.93732812,42.1388754 C6.559875,42.1388754 7.06471875,41.6291262 7.06471875,41.000213 L7.06471875,20.3531693 C7.06471875,20.3112702 7.09832812,20.2773248 7.1398125,20.2773248 L50.4299531,20.2773248 C50.4714375,20.2773248 50.5050469,20.3112702 50.5050469,20.3531693 L50.5050469,41.0004971 C50.5050469,41.6292683 51.00975,42.1391595 51.6324375,42.1391595 C52.2549844,42.1391595 52.7598281,41.6294103 52.7598281,41.0004971 L52.7598281,39.7097196 L66.0585938,39.7097196 C66.0597188,39.7097196 66.0605625,39.7100036 66.0615469,39.7100036 C66.0626719,39.7100036 66.0636563,39.7098616 66.0646406,39.7098616 C67.7010938,39.7109978 69.0906094,40.7958305 69.5678906,42.2907065 L66.0623906,42.2907065 C65.4398438,42.2907065 64.935,42.8004557 64.935,43.4293689 L64.935,45.8583828 C64.935,47.8256539 66.5195625,49.426059 68.4673594,49.426059 L69.7450781,49.426059 L69.7450781,54.4359178 L66.7972969,54.4359178 C65.8289531,51.6119158 63.171,49.5777481 60.0498281,49.5777481 C56.9286563,49.5777481 54.2705625,51.6119158 53.3023594,54.4359178 L52.7595469,54.4359178 L52.7595469,45.8582407 C52.7595469,45.2294696 52.2548438,44.7195784 51.6321563,44.7195784 C51.0096094,44.7195784 50.5047656,45.2293275 50.5047656,45.8582407 L50.5047656,54.4356337 L27.1148906,54.4356337 C26.1465469,51.6116317 23.4885938,49.577464 20.3674219,49.577464 C17.24625,49.577464 14.5881563,51.6116317 13.6199531,54.4356337 L7.1398125,54.4356337 C7.09832813,54.4356337 7.06471875,54.4016883 7.06471875,54.3597892 L7.06471875,51.8547888 L11.9498906,51.8547888 C12.5724375,51.8547888 13.0772813,51.3450396 13.0772813,50.7161264 C13.0772813,50.0872132 12.5725781,49.577464 11.9498906,49.577464 L1.12739063,49.577464 C0.50484375,49.577464 0,50.0872132 0,50.7161264 C0,51.3450396 0.504703125,51.8547888 1.12739063,51.8547888 L4.81007813,51.8547888 L4.81007813,54.3597892 C4.81007813,55.6573842 5.85520313,56.7129585 7.13995313,56.7129585 L13.2295781,56.7129585 C13.2292969,56.73824 13.2276094,56.7633795 13.2276094,56.788803 C13.2276094,60.7651024 16.430625,64 20.3674219,64 C24.3042188,64 27.5072344,60.7651024 27.5072344,56.788803 C27.5072344,56.7632374 27.5055469,56.73824 27.5052656,56.7129585 L52.9119844,56.7129585 C52.9117031,56.73824 52.9100156,56.7633795 52.9100156,56.788803 C52.9100156,60.7651024 56.1130312,64 60.0498281,64 C63.986625,64 67.1896406,60.7651024 67.1896406,56.788803 C67.1896406,56.7632374 67.1879531,56.73824 67.1876719,56.7129585 L70.8724687,56.7129585 C71.4950156,56.7129585 71.9998594,56.2032093 71.9998594,55.5742961 L71.9998594,43.4290849 C72,40.4305268 69.8094844,37.9391613 66.9597188,37.5009958 Z M52.7599688,25.1354945 L61.2525938,25.1354945 C62.6201719,25.1354945 63.7327969,26.2592436 63.7327969,27.6404949 L63.7327969,27.7163394 L52.7599688,27.7163394 L52.7599688,25.1354945 Z M52.7599688,37.4325368 L52.7599688,29.9935222 L62.7773906,29.9935222 L64.6187344,37.4325368 L52.7599688,37.4325368 Z M20.3674219,61.7231013 C17.67375,61.7231013 15.48225,59.5098326 15.48225,56.7890871 C15.48225,54.0683416 17.67375,51.8550728 20.3674219,51.8550728 C23.0610938,51.8550728 25.2525938,54.0683416 25.2525938,56.7890871 C25.2525938,59.5098326 23.0610938,61.7231013 20.3674219,61.7231013 Z M60.0501094,61.7231013 C57.3564375,61.7231013 55.1649375,59.5098326 55.1649375,56.7890871 C55.1649375,54.0683416 57.3564375,51.8550728 60.0501094,51.8550728 C62.7437812,51.8550728 64.9352813,54.0683416 64.9352813,56.7890871 C64.9352813,59.5098326 62.7437812,61.7231013 60.0501094,61.7231013 Z M69.7453594,47.1487342 L68.4676406,47.1487342 C67.7631094,47.1487342 67.1899219,46.5698159 67.1899219,45.8582407 L67.1899219,44.5677472 L69.7452187,44.5677472 L69.7452187,47.1487342 L69.7453594,47.1487342 Z M20.3674219,54.4359178 C21.6521719,54.4359178 22.6972969,55.491492 22.6972969,56.7890871 C22.6972969,58.0866821 21.6521719,59.1422564 20.3674219,59.1422564 C19.0826719,59.1422564 18.0375469,58.0866821 18.0375469,56.7890871 C18.0375469,55.491492 19.0826719,54.4359178 20.3674219,54.4359178 Z M60.0501094,54.4359178 C61.3348594,54.4359178 62.3799844,55.491492 62.3799844,56.7890871 C62.3799844,58.0866821 61.3348594,59.1422564 60.0501094,59.1422564 C58.7653594,59.1422564 57.7202344,58.0866821 57.7202344,56.7890871 C57.7202344,55.491492 58.7653594,54.4359178 60.0501094,54.4359178 Z M46.8225,49.5778901 C47.4451875,49.5778901 47.9498906,50.0876393 47.9498906,50.7165525 C47.9498906,51.3454657 47.4450469,51.8552149 46.8225,51.8552149 L29.9874375,51.8552149 C29.36475,51.8552149 28.8600469,51.3454657 28.8600469,50.7165525 C28.8600469,50.0876393 29.3648906,49.5778901 29.9874375,49.5778901 L46.8225,49.5778901 Z M17.9624531,44.7197204 C18.585,44.7197204 19.0898437,45.2294696 19.0898437,45.8583828 C19.0898437,46.4872959 18.585,46.9970451 17.9624531,46.9970451 L3.53235937,46.9970451 C2.90967187,46.9970451 2.40496875,46.4872959 2.40496875,45.8583828 C2.40496875,45.2294696 2.9098125,44.7197204 3.53235937,44.7197204 L17.9624531,44.7197204 Z" id="Shape" fill="#31A3DC"></path>
            <path d="M38.7595508,29.3300996 C38.3193945,28.8899434 37.6054414,28.8899434 37.1652852,29.3302402 L27.1398477,39.3555371 L21.9244883,34.1401777 C21.4841914,33.6998809 20.7703789,33.6998809 20.3302227,34.1401777 C19.8899258,34.5804746 19.8899258,35.2941465 20.3302227,35.7344434 L26.3427852,41.7470059 C26.5628633,41.9672246 26.8514258,42.0771934 27.1398477,42.0771934 C27.4282695,42.0771934 27.7169727,41.9672246 27.9369102,41.7470059 L38.7594102,30.9245059 C39.199707,30.4840684 39.199707,29.7703965 38.7595508,29.3300996 Z" id="Shape" fill="#00973A"></path>
        </g>
    </g>
</svg>