<?xml version="1.0" encoding="UTF-8"?>
<svg width="64px" height="64px" viewBox="0 0 64 64" version="1.1" xmlns="http://www.w3.org/2000/svg" xmlns:xlink="http://www.w3.org/1999/xlink">
    <!-- Generator: Sketch 49.3 (51167) - http://www.bohemiancoding.com/sketch -->
    <title>02</title>
    <desc>Created with Sketch.</desc>
    <defs></defs>
    <g id="3-подход" stroke="none" stroke-width="1" fill="none" fill-rule="evenodd">
        <g id="02">
            <path d="M44.8,48.333375 L46.933375,48.333375 L46.933375,46.2 L44.8,46.2 L44.8,48.333375 Z M61.86675,51.533375 C61.866125,52.12225 61.388875,52.599375 60.8,52.6 L3.2,52.6 C2.610875,52.6 2.133375,52.1225 2.133375,51.533375 C2.133375,50.94425 2.610875,50.466625 3.2,50.466625 L60.8,50.466625 C61.388875,50.46725 61.866125,50.9445 61.86675,51.533375 Z M58.484375,56.866625 L41.782375,56.866625 C42.236125,55.589125 43.44425,54.735 44.8,54.733375 L55.46675,54.733375 C56.8225,54.735 58.030625,55.589125 58.484375,56.866625 Z M57.6,60.6 C57.6,61.483625 56.88375,62.2 56,62.2 C55.116375,62.2 54.4,61.483625 54.4,60.6 C54.4,59.716375 55.116375,59 56,59 C56.88325,59.001 57.599125,59.71675 57.6,60.6 Z M45.86675,60.6 C45.86675,61.483625 45.150375,62.2 44.26675,62.2 C43.383,62.2 42.66675,61.483625 42.66675,60.6 C42.66675,59.716375 43.383,59 44.26675,59 C45.15,59.001 45.86575,59.71675 45.86675,60.6 Z M22.21775,56.866625 L5.515625,56.866625 C5.9695,55.589125 7.177625,54.735 8.533375,54.733375 L19.2,54.733375 C20.55575,54.735 21.764,55.589125 22.21775,56.866625 Z M21.333375,60.6 C21.333375,61.483625 20.617,62.2 19.733375,62.2 C18.84975,62.2 18.133375,61.483625 18.133375,60.6 C18.133375,59.716375 18.84975,59 19.733375,59 C20.616625,59.001 21.332375,59.71675 21.333375,60.6 Z M9.6,60.6 C9.6,61.483625 8.88375,62.2 8,62.2 C7.116375,62.2 6.4,61.483625 6.4,60.6 C6.4,59.716375 7.116375,59 8,59 C8.88325,59.001 9.599125,59.71675 9.6,60.6 Z M16,48.333375 L18.133375,48.333375 L18.133375,46.2 L16,46.2 L16,48.333375 Z M30.933375,48.333375 L33.06675,48.333375 L33.06675,46.2 L30.933375,46.2 L30.933375,48.333375 Z M20.26675,48.333375 L28.8,48.333375 L28.8,46.2 L20.26675,46.2 L20.26675,48.333375 Z M35.2,48.333375 L42.66675,48.333375 L42.66675,46.2 L35.2,46.2 L35.2,48.333375 Z M2.133375,31.266625 C2.14125,24.20075 7.867375,18.474625 14.933375,18.466625 L49.06675,18.466625 C56.136,18.466625 61.86675,24.197375 61.86675,31.266625 C61.86675,38.335875 56.136,44.066625 49.06675,44.066625 L14.933375,44.066625 C7.867375,44.05875 2.14125,38.332625 2.133375,31.266625 Z M36.26675,16.333375 L42.66675,16.333375 L42.66675,13.133375 L36.26675,13.133375 L36.26675,16.333375 Z M64,31.266625 C63.99075,23.023 57.310375,16.342625 49.06675,16.333375 L44.8,16.333375 L44.8,13.133375 L45.86675,13.133375 C46.45575,13.133375 46.933375,12.65575 46.933375,12.066625 C46.933375,11.477625 46.45575,11 45.86675,11 L33.06675,11 C32.477625,11 32,11.477625 32,12.066625 C32,12.65575 32.477625,13.133375 33.06675,13.133375 L34.133375,13.133375 L34.133375,16.333375 L14.933375,16.333375 C6.895,16.329 0.297125,22.691625 0.00975,30.72475 C-0.27775,38.758 5.848625,45.575875 13.86675,46.146 L13.86675,48.333375 L3.2,48.333375 C1.43275,48.333375 0,49.766 0,51.533375 C0,53.300625 1.43275,54.733375 3.2,54.733375 L4.294,54.733375 C3.5885,55.65125 3.204125,56.775625 3.2,57.933375 C3.2,58.21625 3.312375,58.487625 3.512375,58.687625 C3.712375,58.88775 3.98375,59.000125 4.26675,59 L4.641125,59 C4.397625,59.498375 4.26975,60.04525 4.26675,60.6 C4.26675,62.661875 5.938125,64.333375 8,64.333375 C10.061875,64.333375 11.733375,62.661875 11.733375,60.6 C11.730375,60.04525 11.602375,59.498375 11.358875,59 L16.3745,59 C16.131,59.498375 16.003,60.04525 16,60.6 C16,62.661875 17.6715,64.333375 19.733375,64.333375 C21.79525,64.333375 23.46675,62.661875 23.46675,60.6 C23.46375,60.04525 23.33575,59.498375 23.09225,59 L23.46675,59 C23.749625,59.000125 24.021,58.88775 24.221,58.687625 C24.421125,58.487625 24.5335,58.21625 24.533375,57.933375 C24.529375,56.775625 24.145,55.65125 23.439375,54.733375 L40.56075,54.733375 C39.855125,55.65125 39.47075,56.775625 39.46675,57.933375 C39.466625,58.21625 39.579,58.487625 39.779,58.687625 C39.979125,58.88775 40.2505,59.000125 40.533375,59 L40.907875,59 C40.664375,59.498375 40.536375,60.04525 40.533375,60.6 C40.533375,62.661875 42.204875,64.333375 44.26675,64.333375 C46.328625,64.333375 48,62.661875 48,60.6 C47.997125,60.04525 47.869125,59.498375 47.625625,59 L52.64125,59 C52.39775,59.498375 52.26975,60.04525 52.26675,60.6 C52.26675,62.661875 53.938125,64.333375 56,64.333375 C58.061875,64.333375 59.733375,62.661875 59.733375,60.6 C59.730375,60.04525 59.602375,59.498375 59.358875,59 L59.733375,59 C60.01625,59.000125 60.287625,58.88775 60.48775,58.687625 C60.68775,58.487625 60.800125,58.21625 60.8,57.933375 C60.796,56.775625 60.411625,55.65125 59.706,54.733375 L60.8,54.733375 C62.567375,54.733375 64,53.300625 64,51.533375 C64,49.766 62.567375,48.333375 60.8,48.333375 L49.06675,48.333375 L49.06675,46.2 C57.310375,46.19075 63.99075,39.51025 64,31.266625 Z" id="Fill-1" fill="#31A3DC"></path>
            <path d="M32.466625,24.703125 C34.799,27.546875 37.8,31.86925 37.8,33.857875 C37.721875,36.747125 35.357,39.04875 32.466625,39.04875 C29.57625,39.04875 27.2115,36.747125 27.133375,33.857875 C27.133375,31.871875 30.134375,27.548375 32.466625,24.703125 Z M32.466625,41.18225 C28.384375,41.21625 25.0445,37.94 25,33.857875 C25,30.110375 30.98025,23.13175 31.6625,22.3485 C31.870875,22.126125 32.162,22 32.466625,22 C32.771375,22 33.0625,22.126125 33.270875,22.3485 C33.953125,23.13175 39.933375,30.110375 39.933375,33.857875 C39.888875,37.94 36.549,41.21625 32.466625,41.18225 Z M32.466625,36.915625 C33.05575,36.915625 33.533375,36.438125 33.533375,35.849 C33.533375,35.259875 33.05575,34.78225 32.466625,34.78225 C31.93275,34.81175 31.467125,34.422875 31.401125,33.89225 C31.388625,33.5095 31.171875,33.162875 30.833375,32.984 C30.49475,32.805125 30.08625,32.8215 29.763125,33.026875 C29.439875,33.23225 29.251625,33.595125 29.269875,33.977625 C29.371,35.65775 30.784,36.95625 32.466625,36.915625 Z" id="Fill-4" fill="#00973A"></path>
        </g>
    </g>
</svg>