<?xml version="1.0" encoding="UTF-8"?>
<svg width="64px" height="64px" viewBox="0 0 64 64" version="1.1" xmlns="http://www.w3.org/2000/svg" xmlns:xlink="http://www.w3.org/1999/xlink">
    <!-- Generator: Sketch 49.3 (51167) - http://www.bohemiancoding.com/sketch -->
    <title>01</title>
    <desc>Created with Sketch.</desc>
    <defs></defs>
    <g id="3-подход" stroke="none" stroke-width="1" fill="none" fill-rule="evenodd">
        <g id="01">
            <path d="M60.0409695,60.0165696 C59.1302179,60.9285198 57.9368653,61.377809 56.6162754,61.3122876 C54.8938833,61.2293831 53.1728305,60.2893523 51.8442046,58.6767249 L26.288245,31.090901 C26.2547615,31.0561346 26.2105632,31.0414257 26.1757404,31.0106708 C26.1087733,30.9518353 26.0418063,30.90236 25.9627852,30.8568962 C25.8797461,30.8087581 25.796707,30.7739916 25.7069711,30.7445739 C25.6654516,30.7325393 25.6333074,30.7044588 25.5904485,30.6937614 C25.4766045,30.6696923 14.1792659,28.1972644 9.04825172,23.0571816 C6.41644727,20.4202818 4.27350218,15.9581444 3.31587359,11.1162506 C2.66227534,7.81477704 2.72254567,5.121716 3.1417593,3.55455237 L28.4539589,28.853815 C28.4767277,28.8765469 28.5088718,28.8845699 28.53298,28.9059647 C28.5557488,28.9260222 28.5664635,28.9541028 28.5905716,28.971486 L58.7605598,51.8611677 C60.3115164,53.1395026 61.2503942,54.861778 61.3334333,56.5853905 C61.3977217,57.9198865 60.9503819,59.1059566 60.0409695,60.0165696 Z M12.1689155,58.7342232 C10.8831485,60.3000497 9.15405963,61.2440919 7.42229213,61.3269965 C6.06554001,61.3898435 4.88692021,60.9405543 3.97081119,60.0219183 C3.05202348,59.1046194 2.60334435,57.907852 2.6676327,56.5639958 C2.75067182,54.8296859 3.694907,53.0967131 5.26059626,51.8063438 L25.9333197,34.6263793 L29.3767646,38.3423757 L12.1689155,58.7342232 Z M60.4092882,49.7684962 L30.2674262,26.9015463 L3.753838,0.39883039 C3.23417381,-0.118654528 2.39306786,-0.118654528 1.87340368,0.39883039 C-0.213289108,2.48749045 -0.0994451501,7.57141204 0.70415926,11.6337355 C1.77697115,17.0519497 4.13153207,21.9032036 7.16647806,24.9425918 C11.8139902,29.5959446 20.4527376,32.1512771 23.7341223,32.9883457 L3.56499096,49.751113 C1.42606389,51.5148406 0.129582107,53.9525021 0.00904144519,56.4369646 C-0.091409106,58.5216132 0.647906951,60.4645216 2.08903753,61.9073284 C3.44311096,63.2645563 5.23782747,64 7.17719278,64 C7.30175146,64 7.42631015,63.9973257 7.55086883,63.9906398 C10.0299884,63.8716316 12.4622311,62.5719021 14.2127494,60.4431269 L31.2009466,40.3120276 L49.8405509,60.428418 C51.5950872,62.5625419 54.0179545,63.8542484 56.4876987,63.9745938 C56.6122574,63.9812796 56.7354767,63.9826168 56.8586961,63.9826168 C58.7900253,63.9826168 60.5753665,63.2511846 61.9240825,61.9019798 C63.3571771,60.4658588 64.0924751,58.5323105 63.9906852,56.4570222 C63.8728232,53.9845942 62.5816988,51.5589672 60.4092882,49.7684962 Z" id="Fill-1-Copy" fill="#31A3DC"></path>
            <path d="M12.1689155,58.7342232 C10.8831485,60.3000497 9.15405963,61.2440919 7.42229213,61.3269965 C6.06554001,61.3898435 4.88692021,60.9405543 3.97081119,60.0219183 C3.05202348,59.1046194 2.60334435,57.907852 2.6676327,56.5639958 C2.75067182,54.8296859 3.694907,53.0967131 5.26059626,51.8063438 L26,35 L29.3767646,38.3423757 L12.1689155,58.7342232 Z M24,33 L31.2009466,40.3120276 L14.2127494,60.4431269 C12.4622311,62.5719021 10.0299884,63.8716316 7.55086883,63.9906398 C7.42631015,63.9973257 7.30175146,64 7.17719278,64 C5.23782747,64 3.44311096,63.2645563 2.08903753,61.9073284 C0.647906951,60.4645216 -0.091409106,58.5216132 0.00904144519,56.4369646 C0.129582107,53.9525021 1.42606389,51.5148406 3.56499096,49.751113 L24,33 Z M34.7220733,25.3330455 C34.0082047,25.3330455 33.4188948,24.7660853 33.3934473,24.0466877 C33.270228,20.4644084 33.7778381,13.7451275 38.5713384,8.98881259 C43.3849288,4.211103 51.370078,0.291856764 51.7089312,0.128721984 C51.7544687,0.105990088 51.8040243,0.108664429 51.8522406,0.0912812143 C51.9111716,0.0685493187 51.9714419,0.057851956 52.0330516,0.0444802527 C52.1321628,0.0244226978 52.227256,0.00837665381 52.3263672,0.0110509945 C52.357172,0.0110509945 52.3866375,-0.00232070884 52.4187817,0.000353631823 C52.7000433,0.0284342088 55.2863101,0.386795857 59.4221941,4.53202388 C63.4884325,8.6010332 63.8460364,11.0600894 63.8768413,11.512053 C63.8781806,11.5401336 63.8661265,11.5642027 63.8661265,11.5909461 C63.8674659,11.6778621 63.8487151,11.7607667 63.8313037,11.8476828 C63.8138922,11.9386103 63.7991595,12.0268636 63.7643366,12.1111053 C63.7536219,12.1338372 63.7563006,12.1605806 63.7455859,12.1846497 C63.5821863,12.5216166 59.6766689,20.5112093 54.9702257,25.3892067 C50.6495127,29.8700645 44.7818611,30.6870756 41.0785842,30.6870756 C40.6901754,30.6870756 40.3245353,30.6777154 39.9883608,30.6630065 C39.2544021,30.6295772 38.683843,30.0091302 38.7173265,29.2736865 C38.7494707,28.5382428 39.3548527,27.9779685 40.1048835,28.0007004 C43.2121539,28.1344174 49.007481,27.7332663 53.0576472,23.5372258 C56.8895009,19.5644927 60.2874082,13.1206689 61.1419076,11.4371715 C61.037439,11.1095647 60.7883216,10.5105124 60.2271379,9.64536323 L49.1280217,20.7625974 C48.8695289,21.0220084 48.527997,21.1530511 48.1878045,21.1530511 C47.8462726,21.1530511 47.5060801,21.0220084 47.2475873,20.7625974 C46.7265838,20.2424381 46.7265838,19.3973464 47.2475873,18.8771872 L58.5837669,7.52327391 C58.2717005,7.17293529 57.9301686,6.80655062 57.5417598,6.41609688 C57.1252249,6.00023691 56.7327981,5.63251506 56.359122,5.30223399 L45.0256211,16.6507986 C44.7657891,16.9115468 44.4255965,17.0425895 44.085404,17.0425895 C43.7438721,17.0425895 43.4036796,16.9115468 43.1438475,16.6507986 C42.6241833,16.1319765 42.6241833,15.2868849 43.1438475,14.7667256 L54.2335883,3.661526 C53.3857857,3.11328616 52.781743,2.85521229 52.4442292,2.74155281 C50.7513026,3.60670201 44.3425574,7.01381202 40.445076,10.8822458 C36.3708016,14.9245117 35.9448913,20.8080611 36.0533779,23.9544229 C36.0788254,24.6898666 35.5042482,25.3076393 34.7689502,25.3330455 C34.7528781,25.3330455 34.7381454,25.3330455 34.7220733,25.3330455 Z" id="Fill-1" fill="#00973A"></path>
        </g>
    </g>
</svg>