<?xml version="1.0" encoding="UTF-8"?>
<svg width="64px" height="64px" viewBox="0 0 64 64" version="1.1" xmlns="http://www.w3.org/2000/svg" xmlns:xlink="http://www.w3.org/1999/xlink">
    <!-- Generator: Sketch 49.3 (51167) - http://www.bohemiancoding.com/sketch -->
    <title>02</title>
    <desc>Created with Sketch.</desc>
    <defs>
        <path d="M35.4689193,37.8820039 L31.792646,35.1624411 C31.3502673,34.835987 30.7559876,34.8146675 30.2949544,35.1064776 C28.9025276,35.9845725 27.3915113,36.6161614 25.803212,36.9825895 C25.2608984,37.1078412 24.8544963,37.5568822 24.7812107,38.1085231 L24.186931,42.616255 L20.9743558,42.6269148 L20.2841385,38.093866 C20.2015256,37.5528848 19.796456,37.115836 19.2634697,36.9945817 C17.6898275,36.6361483 16.1881385,36.0165517 14.7997091,35.147784 C14.5838496,35.0145374 14.3400084,34.9465817 14.0961671,34.9465817 C13.8123519,34.9465817 13.5298692,35.0371893 13.2926902,35.2170722 L9.67637794,37.9632843 L7.37787436,35.6701106 L10.0667904,31.9685205 C10.3865822,31.5261418 10.4065692,30.9358595 10.1174241,30.4734938 C9.22866941,29.0530852 8.5970806,27.5154196 8.23731483,25.9044684 C8.11472797,25.3554925 7.66035712,24.9397632 7.1033864,24.8718074 L2.67826733,24.3175016 L2.66627514,21.0902694 L7.16201489,20.4093793 C7.70299602,20.3280989 8.13737989,19.9230293 8.25996675,19.3887105 C8.63172472,17.768432 9.27264079,16.2334314 10.1667254,14.825015 C10.4705276,14.3493247 10.4412133,13.7337254 10.0947722,13.2873494 L7.31658093,9.71234353 L9.56711574,7.43249447 L13.1994176,10.2120182 C13.6417963,10.551797 14.2480682,10.5771139 14.7170962,10.279974 C16.1175178,9.39388419 17.6431912,8.75696552 19.2514775,8.38654001 C19.7951235,8.26262069 20.2015256,7.81091477 20.2734788,7.25660898 L20.8597638,2.68225374 L24.0656766,2.67292648 L24.730577,7.27259857 C24.8091925,7.81890956 25.2155946,8.25995576 25.7525783,8.38121015 C27.3235556,8.73964346 28.8212472,9.35657515 30.2056792,10.2186805 C30.6747071,10.5104906 31.2756492,10.4838412 31.715363,10.1467274 L35.3769791,7.34188679 L37.6568282,9.62040338 L34.9066187,13.2940117 C34.5735022,13.7390553 34.5508503,14.3439948 34.8479902,14.8130228 C35.7407423,16.2161093 36.3829908,17.748445 36.7560813,19.3660586 C36.881333,19.9070397 37.3290416,20.3147742 37.87935,20.3867274 L42.3710923,20.9783422 L42.3804196,24.2175667 L37.8700227,24.9157788 C37.3290416,24.9983917 36.8959902,25.4061262 36.7747358,25.940445 C36.4163025,27.5287443 35.7940409,29.043758 34.9239407,30.4415146 C34.6307982,30.9118751 34.65878,31.5154821 34.9932289,31.9565283 L37.742106,35.5795029 L35.4689193,37.8820039 Z M40.5602712,34.8866207 L37.6514983,31.0531165 C38.288417,29.8978686 38.7880917,28.6813273 39.1451925,27.4181496 L43.9180852,26.6799636 C44.5683285,26.5800286 45.0480162,26.0163956 45.0453513,25.3581574 L45.0280292,19.8031074 C45.0253643,19.135542 44.5310194,18.5719089 43.8701164,18.4852986 L39.1132133,17.8577072 C38.7441203,16.5758751 38.2271235,15.3433442 37.5728828,14.178769 L40.4803233,10.2959636 C40.8787306,9.76430969 40.8254319,9.01812882 40.3550715,8.54910085 L36.4309596,4.62765387 C35.9605991,4.15596096 35.2130858,4.10665973 34.6854293,4.51306181 L30.8079537,7.48179571 C29.6713604,6.85553676 28.4761385,6.36119193 27.2369453,6.00808848 L26.5334033,1.14325569 C26.4401307,0.486350033 25.8764977,0.0293142485 25.2129297,0 L19.6845289,0.0159895901 C19.015631,0.017322056 18.4533304,0.516996747 18.3680526,1.18056474 L17.748456,6.02008068 C16.4772836,6.38517632 15.2567449,6.89551074 14.0988321,7.54308913 L10.2506707,4.59967209 C9.71901684,4.19460247 8.97017104,4.24656864 8.49847813,4.72092648 L4.60101554,8.66769031 C4.1306551,9.14471308 4.08535126,9.89755628 4.49708321,10.4278777 L7.43517039,14.2080833 C6.77826473,15.3779883 6.26393291,16.6145166 5.89483988,17.9016786 L1.13260695,18.6238751 C0.479698692,18.7224776 -0.00265394329,19.2861106 1.09883903e-05,19.9483461 L0.019997976,25.5020638 C0.0226629077,26.1736265 0.521005133,26.7385921 1.18590559,26.8212049 L5.87218796,27.4074899 C6.23461867,28.691987 6.74628555,29.9298478 7.39919381,31.1064151 L4.5557117,35.0225322 C4.16929661,35.5555185 4.22659264,36.2897072 4.69295569,36.7534053 L8.61840006,40.6735198 C9.0887605,41.1425478 9.82961151,41.1918491 10.3599329,40.7921093 L14.1907722,37.8833364 C15.3353604,38.5175901 16.538577,39.0145999 17.7870975,39.3703682 L18.5159563,44.1672453 C18.6158913,44.8201535 19.1755269,45.3011737 19.8324326,45.3011737 L19.83643,45.3011737 L25.3581684,45.2825192 C26.0244014,45.2811867 26.5853695,44.7855094 26.6719798,44.1232739 L27.3022361,39.3503813 C28.5600839,38.9866181 29.7726278,38.4789486 30.9212133,37.8367001 L34.8146785,40.7148263 C35.3489973,41.1092362 36.0871834,41.0506077 36.5508815,40.5802472 L40.4470116,36.6334834 C40.9133747,36.160458 40.9613435,35.4156096 40.5602712,34.8866207 Z M50.4485003,53.3719193 C48.9854528,53.3719193 47.7942283,52.1780299 47.7942283,50.7096526 C47.7942283,49.2426077 48.9854528,48.0487183 50.4485003,48.0487183 C51.9115477,48.0487183 53.1027722,49.2426077 53.1027722,50.7096526 C53.1027722,52.1780299 51.9115477,53.3719193 50.4485003,53.3719193 Z M50.4485003,45.3784567 C47.5170754,45.3784567 45.133294,47.7702329 45.133294,50.7096526 C45.133294,53.6490722 47.5170754,56.0395159 50.4485003,56.0395159 C53.3799251,56.0395159 55.7637065,53.6490722 55.7637065,50.7096526 C55.7637065,47.7702329 53.3799251,45.3784567 50.4485003,45.3784567 Z M22.5213487,28.0470735 C19.5992511,28.0470735 17.2234645,25.6539649 17.2234645,22.7132128 C17.2234645,19.7724606 19.5992511,17.3820169 22.5213487,17.3820169 C25.4421138,17.3820169 27.8192328,19.7724606 27.8192328,22.7132128 C27.8192328,25.6539649 25.4421138,28.0470735 22.5213487,28.0470735 Z M22.5213487,14.7117554 C18.1322062,14.7117554 14.5611977,18.3014183 14.5611977,22.7132128 C14.5611977,27.1250072 18.1322062,30.7160026 22.5213487,30.7160026 C26.9104911,30.7160026 30.4801671,27.1250072 30.4801671,22.7132128 C30.4801671,18.3014183 26.9104911,14.7117554 22.5213487,14.7117554 Z M60.5832355,53.6530696 L58.8417026,53.5824489 C57.8983168,53.5824489 56.8643233,54.0927833 56.2940279,54.8323019 L55.2720266,55.9688953 C54.5858067,56.6271334 54.1674124,57.7637267 54.2700123,58.708445 L54.4832068,60.6271958 L52.3992302,61.2641145 L51.4971509,59.529244 C51.0441125,58.6724684 50.0261086,57.9462746 49.1959824,57.8290176 L47.9288073,57.521218 C47.6290025,57.4172856 47.2945536,57.3653195 46.9361203,57.3653195 C46.1992667,57.3653195 45.4797351,57.5865088 44.9733981,57.9649291 L43.9127553,58.7417567 L42.3204586,57.24673 L43.0466525,56.094147 C43.5889661,55.2400364 43.6662491,53.9648666 43.2691743,53.1467326 C43.2531847,53.1000963 43.202551,52.95619 43.0866265,52.56711 C42.9707019,52.1940195 42.9293955,52.0168016 42.9227332,51.9834899 C42.7788269,50.9841405 42.0059967,49.9661366 41.0905926,49.5663969 L39.8260826,49.0080937 L40.3217598,46.8708185 L41.8474332,46.9321119 C42.8068086,46.9321119 43.8754463,46.4044554 44.372456,45.73689 L44.9893877,45.0413429 C45.6862673,44.3791074 46.1179863,43.2065374 46.0127215,42.2484945 L45.8421658,40.6975042 L47.9301398,40.0592531 L48.528417,41.211836 C48.9894502,42.1085856 50.050093,42.8187899 50.9201932,42.8827482 L52.212685,43.1199271 C53.0987748,43.3517762 54.320646,43.1159297 55.0481723,42.5749486 L56.2926954,41.6595446 L57.8889895,43.1585686 L57.2307514,44.2018894 C56.6791105,45.0693247 56.623147,46.3564867 57.0975048,47.258566 C57.1001697,47.2638959 57.2733903,47.6023422 57.4546057,48.2072817 L57.5731951,48.5843696 C57.7743975,49.483784 58.5272407,50.3925257 59.3973409,50.7722785 L61.0762478,51.5144619 L60.5832355,53.6530696 Z M62.2488178,49.1160234 L60.4659785,48.3298686 C60.3700409,48.2858972 60.2008178,48.0926897 60.172836,48.0140742 C60.1621762,47.9567781 60.1475191,47.8994821 60.1301971,47.8435185 L59.9969505,47.4211269 C59.7464469,46.5803409 59.4812862,46.0700065 59.4586343,46.0287001 C59.4239902,45.9380924 59.4346499,45.7155706 59.4772888,45.6329577 L60.1941554,44.4950319 C60.8324066,43.4810254 60.6578535,42.1019232 59.7904183,41.2864541 L58.0342283,39.6381939 C57.2054345,38.8587014 55.7530468,38.7587664 54.8083285,39.4409889 L53.4692003,40.4270137 C53.4145692,40.4656552 53.2120344,40.5482681 52.8869127,40.5376083 C52.8416089,40.5242837 52.7949726,40.5136239 52.7483363,40.5056291 L51.2719641,40.2404684 C51.1653669,40.2244789 50.9481749,40.0779076 50.8908789,39.984635 L50.2366382,38.7241223 C49.698322,37.6927938 48.3858431,37.1344906 47.2625744,37.4742694 L44.9560761,38.1791438 C43.8141528,38.5309148 43.0533148,39.692825 43.1852289,40.880052 L43.3664443,42.538972 C43.379769,42.6775485 43.2585146,43.0026701 43.085294,43.1798881 L42.3231235,44.0379961 C42.2431756,44.1339336 41.9713526,44.2631828 41.8527631,44.2645153 L40.21916,44.197892 C39.0719069,44.197892 38.0125965,45.0413429 37.7554306,46.1552843 L37.2077872,48.5137489 C36.9439589,49.6823214 37.5662205,50.925512 38.6548451,51.4065322 L40.0192901,52.0088068 C40.1125627,52.0594405 40.2671288,52.2646402 40.2884482,52.3552479 C40.2884482,52.3552479 40.3137651,52.6124138 40.5429492,53.3466025 C40.745484,54.028825 40.8134397,54.1700664 40.8307618,54.2100403 C40.8694033,54.3113077 40.8507488,54.5711386 40.8001151,54.6644112 L40.0206226,55.9009395 C39.3863688,56.8909616 39.5609219,58.3033754 40.4216948,59.120177 L42.1792172,60.7711021 C43.0120084,61.5559245 44.4937104,61.6305426 45.3971222,60.9616448 L46.5483727,60.1168614 C46.5936766,60.0888796 46.7535725,60.0342485 46.9361203,60.0342485 L48.6803181,60.4433155 C48.8095673,60.4699649 49.0800578,60.6631724 49.1413513,60.7724346 L50.0887345,62.5939154 C50.516456,63.4213767 51.4092081,63.954363 52.3619212,63.954363 C52.6070949,63.954363 52.8442738,63.9197189 53.0627982,63.8530956 L55.3586369,63.1495537 C56.485903,62.8084424 57.2693929,61.6185504 57.1401437,60.4419831 L56.914957,58.416635 C56.9056297,58.2860534 57.0175569,57.9915784 57.1081645,57.9009707 C57.1441411,57.8689915 57.1774528,57.8356799 57.2094319,57.7997033 L58.3100487,56.5751672 C58.3233734,56.5618426 58.3886642,56.4792297 58.3979915,56.4645725 C58.4726096,56.3752973 58.7257781,56.2527105 58.8403701,56.2500455 L60.6751756,56.3273286 C61.8210962,56.3273286 62.884404,55.4865426 63.1495647,54.3659388 L63.6945432,52.0101392 C63.9597039,50.8415667 63.3387748,49.5957111 62.2488178,49.1160234 Z" id="path-1"></path>
    </defs>
    <g id="3-подход" stroke="none" stroke-width="1" fill="none" fill-rule="evenodd">
        <g id="02">
            <mask id="mask-2" fill="white">
                <use xlink:href="#path-1"></use>
            </mask>
            <use id="Fill-1" fill="#31A3DC" xlink:href="#path-1"></use>
            <polygon id="Rectangle-4" fill="#00973A" mask="url(#mask-2)" points="44.7716597 37 63.7716597 37 63.7716597 64 36.7716597 64 36.7716597 44"></polygon>
        </g>
    </g>
</svg>